<?xml version="1.0" standalone="no"?>
<!DOCTYPE svg PUBLIC "-//W3C//DTD SVG 1.1//EN" "http://www.w3.org/Graphics/SVG/1.1/DTD/svg11.dtd" >
<svg>
<metadata>
Created by FontForge 20090914 at Sat Jun 27 12:10:48 2015
 By www-data
Copyright (c) Frantisek Storm, www.stormtype.com, 2005. All rights reserved.
</metadata>
<defs>
<font id="ElektraMediumPro" horiz-adv-x="588" >
  <font-face 
    font-family="Elektra Medium Pro"
    font-weight="400"
    font-stretch="normal"
    units-per-em="1000"
    panose-1="2 0 8 3 0 0 0 2 0 4"
    ascent="800"
    descent="-200"
    x-height="509"
    cap-height="697"
    bbox="-156 -314 1343 890"
    underline-thickness="50"
    underline-position="-100"
    stemh="40"
    stemv="94"
    unicode-range="U+0020-U+FB04"
  />
<missing-glyph horiz-adv-x="530" 
d="M0 0v697h530v-697h-530zM265 419l132 196h-264zM313 349l132 -197v393zM133 82h264l-132 197zM85 545v-393l132 197z" />
    <glyph glyph-name="ff" unicode="ff" horiz-adv-x="687" 
d="M525 536v-27h165v-108h-165v-401h-124v401h-187v-401h-124v401h-85v108h85v30c0 149 95 185 202 185c58 0 121 -9 172 -29c33 23 76 29 121 29c47 0 102 -9 141 -22l-28 -98c-24 8 -62 14 -92 14c-49 0 -81 -19 -81 -82zM214 532v-23h187v34c0 24 2 45 8 61
c-31 9 -63 14 -94 14c-65 0 -101 -16 -101 -86z" />
    <glyph glyph-name="fi" unicode="fi" horiz-adv-x="594" 
d="M525 509v-509h-124v401h-187v-401h-124v401h-85v108h85v30c0 150 99 185 239 185c68 0 136 -12 189 -31l-29 -97c-36 12 -89 22 -144 22c-80 0 -131 -14 -131 -86v-23h311z" />
    <glyph glyph-name="fl" unicode="fl" horiz-adv-x="599" 
d="M525 693v-550c0 -46 8 -84 39 -120l-110 -46c-35 39 -53 87 -53 161v469c-28 7 -58 11 -86 11c-61 0 -101 -15 -101 -86v-23h135v-108h-135v-401h-124v401h-85v108h85v30c0 151 95 185 227 185c72 0 138 -10 208 -31z" />
    <glyph glyph-name="ffi" unicode="ffi" horiz-adv-x="905" 
d="M836 509v-509h-124v401h-187v-401h-124v401h-187v-401h-124v401h-85v108h85v30c0 151 95 185 204 185c58 0 123 -14 178 -34c43 26 101 34 168 34c68 0 136 -12 189 -31l-29 -97c-36 12 -89 22 -144 22c-80 0 -131 -14 -131 -86v-23h311zM214 532v-23h187v30
c0 25 3 46 10 64c-31 10 -66 15 -96 15c-65 0 -101 -16 -101 -86z" />
    <glyph glyph-name="ffl" unicode="ffl" horiz-adv-x="911" 
d="M836 693v-550c0 -46 8 -84 39 -120l-110 -46c-35 39 -53 87 -53 161v469c-28 7 -58 11 -86 11c-60 0 -101 -16 -101 -86v-23h135v-108h-135v-401h-124v401h-187v-401h-124v401h-85v108h85v30c0 151 95 185 204 185c58 0 123 -12 176 -33c40 25 95 33 158 33
c72 0 138 -10 208 -31zM401 539c0 26 3 47 10 64c-31 9 -64 15 -96 15c-74 0 -101 -23 -101 -96v-13h187v30z" />
    <glyph glyph-name="Th" unicode="Th" horiz-adv-x="1083" 
d="M1018 293v-293h-124v283c0 108 -35 129 -103 129c-50 0 -97 -15 -97 -45v-367h-124v583h-199v-583h-133v583h-235v114h691v-208c32 17 87 35 140 35c119 0 184 -41 184 -231z" />
    <glyph glyph-name="ffk" unicode="ffk" horiz-adv-x="1194" 
d="M1195 0h-147c-115 167 -185 257 -212 269v-269h-124v607c-28 7 -58 11 -86 11c-60 0 -101 -16 -101 -86v-23h135v-108h-135v-401h-124v401h-187v-401h-124v401h-85v108h85v30c0 151 96 184 203 184c60 0 124 -10 177 -32c40 25 95 33 158 33c71 0 138 -8 208 -31v-424
c28 23 97 105 197 240h146c-97 -132 -167 -210 -194 -231c26 -16 101 -109 210 -278zM401 539c0 26 3 47 10 64c-31 9 -64 15 -96 15c-70 0 -101 -14 -101 -76v-33h187v30z" />
    <glyph glyph-name="fk" unicode="fk" horiz-adv-x="883" 
d="M525 0h-124v607c-28 7 -58 11 -86 11c-60 0 -101 -16 -101 -86v-23h135v-108h-135v-401h-124v401h-85v108h85v30c0 151 95 185 227 185c71 0 138 -8 208 -31v-693zM884 0h-147c-115 167 -185 257 -212 269c28 23 97 105 197 240h146c-97 -132 -167 -210 -194 -231
c26 -16 101 -109 210 -278z" />
    <glyph glyph-name="fj" unicode="fj" horiz-adv-x="594" 
d="M525 509v-521c0 -137 -70 -198 -210 -191v103c57 0 86 18 86 86v415h-187v-401h-124v401h-85v108h85v30c0 150 99 185 239 185c68 0 136 -12 189 -31l-29 -97c-36 12 -89 22 -144 22c-80 0 -131 -14 -131 -86v-23h311z" />
    <glyph glyph-name=".notdef" horiz-adv-x="530" 
d="M0 0v697h530v-697h-530zM265 419l132 196h-264zM313 349l132 -197v393zM133 82h264l-132 197zM85 545v-393l132 197z" />
    <glyph glyph-name="space" unicode=" " horiz-adv-x="266" 
 />
    <glyph glyph-name="exclam" unicode="!" horiz-adv-x="332" 
d="M89 697h153l-31 -474h-91zM166 143c60 0 80 -9 80 -70c0 -66 -20 -78 -80 -78c-58 0 -78 12 -78 78c0 61 20 70 78 70z" />
    <glyph glyph-name="quotedbl" unicode="&#x22;" horiz-adv-x="370" 
d="M45 697h112l-19 -240h-82zM216 697h109l-19 -240h-81z" />
    <glyph glyph-name="numbersign" unicode="#" horiz-adv-x="712" 
d="M40 435l7 100h129l10 162h116l-11 -162h138l11 162h115l-10 -162h137l-7 -100h-137l-10 -159h139l-7 -99h-138l-12 -177h-115l11 177h-138l-11 -177h-116l12 177h-128l7 99h127l10 159h-129zM285 435l-11 -159h138l11 159h-138z" />
    <glyph glyph-name="dollar" unicode="$" horiz-adv-x="622" 
d="M266 825h88v-138c66 -1 140 -11 189 -27l-29 -110c-32 13 -101 22 -160 23v-171c136 -19 204 -77 204 -192c0 -131 -68 -188 -204 -202v-145h-88v142c-69 1 -145 10 -195 26l29 111c37 -13 108 -22 166 -24v180c-131 15 -204 63 -204 176c0 130 70 192 204 208v143z
M185 488c0 -45 17 -64 81 -74v155c-54 -9 -81 -33 -81 -81zM435 203c0 45 -16 70 -81 82v-163c52 9 81 31 81 81z" />
    <glyph glyph-name="percent" unicode="%" horiz-adv-x="959" 
d="M633 697h117l-429 -697h-116zM217 714c129 0 182 -46 182 -223c0 -178 -53 -231 -182 -231s-182 53 -182 231c0 177 53 223 182 223zM217 349c56 0 72 25 72 141c0 117 -16 136 -72 136c-55 0 -73 -19 -73 -136c0 -116 18 -141 73 -141zM742 439c129 0 182 -46 182 -222
c0 -179 -53 -231 -182 -231s-182 52 -182 231c0 176 53 222 182 222zM742 74c56 0 72 25 72 142s-16 135 -72 135c-55 0 -73 -18 -73 -135s18 -142 73 -142z" />
    <glyph glyph-name="ampersand" unicode="&#x26;" horiz-adv-x="796" 
d="M761 396c0 -87 -36 -172 -95 -242c34 -44 68 -95 108 -154h-150c-16 26 -33 52 -49 75c-81 -60 -151 -89 -262 -89c-190 0 -263 47 -263 196c0 105 54 174 187 180c-125 10 -141 74 -141 166c0 121 54 186 242 186c182 0 242 -53 242 -175c0 -92 -35 -156 -160 -166
c44 -4 95 -37 167 -126c26 43 41 94 41 149h133zM313 94c84 0 133 18 194 70c-71 96 -129 150 -188 150c-89 0 -129 -32 -129 -113c0 -80 27 -107 123 -107zM332 417c74 0 115 26 115 97c0 69 -31 90 -109 90c-79 0 -109 -20 -109 -89c0 -71 28 -98 103 -98z" />
    <glyph glyph-name="quotesingle" unicode="'" horiz-adv-x="202" 
d="M45 697h112l-19 -240h-82z" />
    <glyph glyph-name="parenleft" unicode="(" horiz-adv-x="303" 
d="M68 249c0 317 97 462 220 517l57 -93c-81 -39 -146 -142 -146 -424c0 -281 65 -385 146 -424l-57 -93c-123 55 -220 200 -220 517z" />
    <glyph glyph-name="parenright" unicode=")" horiz-adv-x="303" 
d="M235 249c0 -317 -97 -462 -220 -517l-58 93c81 39 146 142 146 424c0 281 -65 385 -146 424l58 93c123 -55 220 -200 220 -517z" />
    <glyph glyph-name="asterisk" unicode="*" horiz-adv-x="494" 
d="M30 479v100h129l-65 113l89 50l64 -112l64 112l89 -50l-66 -113h130v-100h-130l65 -113l-88 -49l-64 110l-64 -110l-89 50l65 112h-129z" />
    <glyph glyph-name="plus" unicode="+" horiz-adv-x="582" 
d="M48 303v118h183v184h119v-184h184v-118h-184v-184h-119v184h-183z" />
    <glyph glyph-name="comma" unicode="," horiz-adv-x="285" 
d="M236 103l-115 -262h-111l78 262h148z" />
    <glyph glyph-name="hyphen" unicode="-" horiz-adv-x="304" 
d="M29 222v118h246v-118h-246z" />
    <glyph glyph-name="hyphen" unicode="&#xad;" horiz-adv-x="304" 
d="M29 222v118h246v-118h-246z" />
    <glyph glyph-name="period" unicode="." horiz-adv-x="285" 
d="M141 143c61 0 80 -9 80 -70c0 -66 -19 -78 -80 -78c-58 0 -77 12 -77 78c0 61 19 70 77 70z" />
    <glyph glyph-name="slash" unicode="/" horiz-adv-x="467" 
d="M371 697h134l-356 -697h-134z" />
    <glyph glyph-name="zero" unicode="0" horiz-adv-x="626" 
d="M313 714c173 0 262 -74 262 -356c0 -286 -88 -372 -262 -372c-173 0 -262 86 -262 372c0 282 89 356 262 356zM313 105c103 0 131 43 131 253c0 211 -28 239 -131 239c-102 0 -130 -28 -130 -239c0 -210 28 -253 130 -253z" />
    <glyph glyph-name="one" unicode="1" horiz-adv-x="626" 
d="M410 0h-129v556l-156 -67l-37 108l322 129v-726z" />
    <glyph glyph-name="two" unicode="2" horiz-adv-x="626" 
d="M102 568l-28 114c58 18 142 32 222 32c173 0 258 -44 258 -205c0 -142 -45 -199 -328 -395h327v-114h-506v106c346 264 367 289 367 392c0 76 -35 97 -129 97c-62 0 -142 -12 -183 -27z" />
    <glyph glyph-name="three" unicode="3" horiz-adv-x="626" 
d="M193 310v112h96c85 0 117 21 117 89c0 63 -27 85 -150 85c-54 0 -133 -9 -175 -22l-26 114c60 13 146 26 226 26c200 0 264 -52 264 -178c0 -92 -25 -156 -149 -167c132 -6 163 -76 163 -181c0 -151 -82 -202 -280 -202c-73 0 -166 11 -229 25l25 114
c46 -13 124 -20 178 -20c134 0 163 26 163 101c0 79 -34 104 -124 104h-99z" />
    <glyph glyph-name="four" unicode="4" horiz-adv-x="622" 
d="M365 179h-348v41c73 131 202 346 298 477h176v-409h93v-109h-93v-179h-126v179zM365 288v295c-67 -88 -150 -226 -188 -295h188z" />
    <glyph glyph-name="five" unicode="5" horiz-adv-x="626" 
d="M96 697h432v-114h-307v-155c26 2 55 4 83 4c196 0 256 -61 256 -217c0 -177 -75 -229 -274 -229c-67 0 -164 11 -222 25l26 114c43 -13 117 -20 171 -20c129 0 156 22 156 103c0 87 -22 112 -150 112c-55 0 -124 -5 -171 -14v391z" />
    <glyph glyph-name="six" unicode="6" horiz-adv-x="626" 
d="M562 687l-29 -116c-37 14 -101 23 -164 23c-107 0 -170 -26 -174 -173c40 7 93 11 132 11c196 0 258 -61 258 -217c0 -177 -71 -229 -262 -229c-198 0 -269 83 -269 368s89 360 315 360c62 0 139 -11 193 -27zM323 105c102 0 124 27 124 103c0 79 -21 112 -125 112
c-51 0 -96 -5 -129 -10c3 -174 43 -205 130 -205z" />
    <glyph glyph-name="seven" unicode="7" horiz-adv-x="626" 
d="M602 697v-40c-92 -147 -237 -462 -302 -657h-149c73 200 190 461 276 583h-360v114h535z" />
    <glyph glyph-name="eight" unicode="8" horiz-adv-x="626" 
d="M313 94c96 0 125 27 125 107c0 81 -32 113 -125 113s-124 -32 -124 -113c0 -80 28 -107 124 -107zM313 417c80 0 113 27 113 98c0 69 -30 89 -113 89c-84 0 -114 -20 -114 -89c0 -71 34 -98 114 -98zM313 -14c-190 0 -262 53 -262 202c0 105 30 175 163 181
c-125 11 -148 75 -148 167c0 122 53 178 247 178s247 -56 247 -178c0 -92 -23 -156 -148 -167c133 -6 163 -76 163 -181c0 -149 -71 -202 -262 -202z" />
    <glyph glyph-name="nine" unicode="9" horiz-adv-x="626" 
d="M171 0c93 88 179 182 225 273c-24 -3 -69 -5 -87 -5c-196 0 -258 54 -258 210c0 177 70 236 262 236c210 0 266 -53 266 -241c0 -199 -113 -346 -244 -473h-164zM323 380c36 0 75 2 108 7c6 23 9 47 9 72c0 121 -31 137 -127 137c-103 0 -124 -34 -124 -112
c0 -86 22 -104 134 -104z" />
    <glyph glyph-name="colon" unicode=":" horiz-adv-x="285" 
d="M141 143c61 0 80 -9 80 -70c0 -66 -19 -78 -80 -78c-58 0 -77 12 -77 78c0 61 19 70 77 70zM141 515c61 0 80 -9 80 -71c0 -66 -19 -77 -80 -77c-58 0 -77 11 -77 77c0 62 19 71 77 71z" />
    <glyph glyph-name="semicolon" unicode=";" horiz-adv-x="285" 
d="M236 103l-115 -262h-111l78 262h148zM141 515c61 0 80 -9 80 -71c0 -66 -19 -77 -80 -77c-58 0 -77 11 -77 77c0 62 19 71 77 71z" />
    <glyph glyph-name="less" unicode="&#x3c;" horiz-adv-x="582" 
d="M515 587l-268 -225l268 -227l-65 -90l-366 285v61l364 284z" />
    <glyph glyph-name="equal" unicode="=" horiz-adv-x="582" 
d="M48 168v118h486v-118h-486zM48 435v118h486v-118h-486z" />
    <glyph glyph-name="greater" unicode="&#x3e;" horiz-adv-x="582" 
d="M85 134l268 225l-268 228l65 89l365 -285v-61l-364 -284z" />
    <glyph glyph-name="question" unicode="?" horiz-adv-x="493" 
d="M235 143c61 0 80 -9 80 -70c0 -66 -19 -77 -80 -77c-58 0 -77 11 -77 77c0 61 19 70 77 70zM300 215h-130c99 106 148 184 148 292c0 55 -27 87 -121 87c-58 0 -110 -8 -143 -21l-27 116c45 14 127 25 181 25c187 0 259 -68 259 -202c0 -113 -64 -200 -167 -297z" />
    <glyph glyph-name="at" unicode="@" horiz-adv-x="939" 
d="M429 528c-199 0 -259 -37 -259 -260s62 -271 299 -271s304 62 304 304c0 85 -8 150 -22 187h113c13 -44 20 -106 20 -191c0 -311 -125 -404 -414 -404c-292 0 -416 79 -416 373c0 292 137 365 371 365c183 0 255 -40 255 -278c0 -223 -51 -258 -222 -258
c-154 0 -204 35 -204 169c0 141 53 166 186 166c44 0 97 -4 125 -10c-1 84 -31 108 -136 108zM471 342c-73 0 -96 -9 -96 -74c0 -63 20 -78 97 -78c69 0 93 19 93 98v47c-26 5 -68 7 -94 7z" />
    <glyph glyph-name="A" unicode="A" horiz-adv-x="682" 
d="M555 0c-20 50 -44 110 -67 174h-305l-54 -174h-138c65 208 167 489 252 697h207c71 -224 173 -511 251 -697h-146zM353 585h-27c-35 -90 -72 -193 -108 -298h232c-36 103 -70 208 -97 298z" />
    <glyph glyph-name="B" unicode="B" horiz-adv-x="712" 
d="M220 111h220c48 0 67 35 67 98c0 66 -23 103 -71 103h-216v-201zM220 585v-166h214c44 0 60 32 60 84c0 56 -15 82 -60 82h-214zM489 369c133 -6 160 -74 160 -178c0 -137 -68 -191 -180 -191h-381v697h375c139 0 171 -65 171 -167c0 -92 -20 -150 -145 -161z" />
    <glyph glyph-name="C" unicode="C" horiz-adv-x="592" 
d="M53 355c0 285 106 359 327 359c64 0 146 -11 200 -26l-29 -116c-36 13 -101 22 -148 22c-152 0 -209 -26 -209 -240s57 -247 209 -247c47 0 112 9 148 22l29 -118c-54 -15 -136 -25 -200 -25c-221 0 -327 85 -327 369z" />
    <glyph glyph-name="D" unicode="D" horiz-adv-x="736" 
d="M88 697h266c221 0 329 -75 329 -346c0 -270 -108 -351 -329 -351h-266v697zM542 350c0 205 -47 233 -201 233h-121v-469h121c154 0 201 39 201 236z" />
    <glyph glyph-name="E" unicode="E" horiz-adv-x="620" 
d="M88 697h506v-114h-374v-161h267v-113h-267v-195h374v-114h-506v697z" />
    <glyph glyph-name="F" unicode="F" horiz-adv-x="584" 
d="M88 697h496v-114h-364v-197h267v-113h-267v-273h-132v697z" />
    <glyph glyph-name="G" unicode="G" horiz-adv-x="700" 
d="M493 116v180h-152v111h287v-391c-57 -18 -167 -30 -248 -30c-221 0 -327 85 -327 369c0 285 119 359 346 359c63 0 156 -11 210 -26l-27 -115c-37 13 -126 21 -173 21c-158 0 -215 -26 -215 -240s57 -248 209 -248c33 0 69 5 90 10z" />
    <glyph glyph-name="H" unicode="H" horiz-adv-x="736" 
d="M220 309v-309h-132v697h132v-266h298v266h130v-697h-130v309h-298z" />
    <glyph glyph-name="I" unicode="I" horiz-adv-x="308" 
d="M88 697h132v-697h-132v697z" />
    <glyph glyph-name="J" unicode="J" horiz-adv-x="461" 
d="M375 697l1 -505c0 -166 -106 -206 -212 -206c-57 0 -114 11 -158 27l26 118c33 -13 77 -21 119 -21c50 0 91 20 91 99v488h133z" />
    <glyph glyph-name="K" unicode="K" horiz-adv-x="662" 
d="M220 697v-697h-132v697h132zM675 0h-162c-140 231 -252 352 -292 368c43 31 150 149 272 329h160c-128 -180 -228 -291 -263 -320c34 -23 146 -146 285 -377z" />
    <glyph glyph-name="L" unicode="L" horiz-adv-x="551" 
d="M88 697h132v-582h329v-115h-461v697z" />
    <glyph glyph-name="M" unicode="M" horiz-adv-x="916" 
d="M464 251c55 146 128 312 193 446h171v-697h-129v519c-63 -139 -138 -318 -194 -455h-103c-54 137 -126 321 -187 455v-519h-127v697h180c66 -136 138 -301 196 -446z" />
    <glyph glyph-name="N" unicode="N" horiz-adv-x="774" 
d="M685 697v-697h-161c-94 174 -198 352 -307 525v-525h-129v697h173c101 -159 202 -333 293 -503v503h131z" />
    <glyph glyph-name="O" unicode="O" horiz-adv-x="770" 
d="M385 714c221 0 331 -76 331 -359c0 -288 -110 -369 -331 -369c-222 0 -332 81 -332 369c0 283 111 359 332 359zM385 105c153 0 191 38 191 248c0 211 -38 242 -191 242s-191 -31 -191 -242c0 -210 38 -248 191 -248z" />
    <glyph glyph-name="P" unicode="P" horiz-adv-x="673" 
d="M220 340h194c55 0 86 40 86 119c0 85 -29 126 -83 126h-197v-245zM220 0h-132v697h363c147 0 194 -103 194 -239c0 -120 -57 -228 -191 -228h-234v-230z" />
    <glyph glyph-name="Q" unicode="Q" horiz-adv-x="783" 
d="M391 714c221 0 332 -76 332 -359c0 -221 -66 -315 -195 -340c44 -12 112 -76 207 -207h-154c-77 118 -147 173 -192 178c-220 0 -329 83 -329 369c0 283 110 359 331 359zM391 105c154 0 192 38 192 248c0 211 -38 242 -192 242c-153 0 -190 -31 -190 -242
c0 -210 37 -248 190 -248z" />
    <glyph glyph-name="R" unicode="R" horiz-adv-x="706" 
d="M220 585v-210h197c51 0 81 34 81 102c0 73 -29 108 -78 108h-200zM462 303c48 -17 111 -99 233 -303h-163c-109 191 -174 266 -219 266h-93v-266h-132v697h363c147 0 194 -91 194 -203c0 -100 -44 -186 -183 -191z" />
    <glyph glyph-name="S" unicode="S" horiz-adv-x="622" 
d="M559 683l-29 -114c-39 14 -114 25 -184 25c-111 0 -157 -23 -157 -91c0 -53 26 -77 153 -89c162 -17 234 -77 234 -209c0 -164 -100 -219 -301 -219c-77 0 -161 12 -217 31l29 114c44 -14 118 -25 186 -25c111 0 161 20 161 92c0 52 -25 85 -159 97
c-154 15 -226 63 -226 192c0 164 102 227 297 227c76 0 158 -13 213 -31z" />
    <glyph glyph-name="T" unicode="T" horiz-adv-x="609" 
d="M371 0h-133v583h-235v114h603v-114h-235v-583z" />
    <glyph glyph-name="U" unicode="U" horiz-adv-x="742" 
d="M663 697l1 -486c0 -183 -111 -225 -293 -225s-293 42 -293 225v486h133v-466c0 -93 41 -124 160 -124c113 0 161 26 161 124v466h131z" />
    <glyph glyph-name="V" unicode="V" horiz-adv-x="648" 
d="M-19 697h146c63 -152 148 -389 199 -563c69 170 142 393 192 563h139c-64 -208 -167 -489 -255 -697h-169c-68 221 -170 511 -252 697z" />
    <glyph glyph-name="W" unicode="W" horiz-adv-x="975" 
d="M493 478c-30 -146 -81 -325 -128 -478h-167c-55 221 -134 511 -200 697h144c51 -152 107 -351 150 -533c42 139 110 379 140 533h122c42 -150 108 -388 137 -533c57 178 106 361 145 533h136c-51 -208 -132 -489 -202 -697h-168c-30 160 -73 339 -109 478z" />
    <glyph glyph-name="X" unicode="X" horiz-adv-x="674" 
d="M169 697l175 -230l160 230h162l-241 -342l252 -355h-164l-170 241l-185 -241h-162c69 86 169 219 266 352l-262 345h169z" />
    <glyph glyph-name="Y" unicode="Y" horiz-adv-x="638" 
d="M134 697c59 -74 128 -169 194 -266c70 94 136 189 184 266h160c-80 -120 -181 -263 -281 -396v-301h-132v300c-100 142 -213 295 -297 397h172z" />
    <glyph glyph-name="Z" unicode="Z" horiz-adv-x="621" 
d="M17 0v32c120 163 284 402 382 551h-360v114h565v-30c-100 -161 -275 -419 -382 -553h375v-114h-580z" />
    <glyph glyph-name="bracketleft" unicode="[" horiz-adv-x="341" 
d="M90 755h270v-108h-141v-800h141v-107h-270v1015z" />
    <glyph glyph-name="backslash" unicode="\" horiz-adv-x="467" 
d="M-29 697h134l356 -697h-134z" />
    <glyph glyph-name="bracketright" unicode="]" horiz-adv-x="341" 
d="M-19 755h270v-1015h-270v107h141v800h-141v108z" />
    <glyph glyph-name="asciicircum" unicode="^" horiz-adv-x="531" 
d="M384 296l-121 266l-119 -266h-131l192 401h119l194 -401h-134z" />
    <glyph glyph-name="underscore" unicode="_" horiz-adv-x="470" 
d="M29 -166v118h412v-118h-412z" />
    <glyph glyph-name="grave" unicode="`" horiz-adv-x="481" 
d="M347 568h-110l-144 129h132z" />
    <glyph glyph-name="a" unicode="a" horiz-adv-x="560" 
d="M494 326v-300c-64 -25 -159 -40 -230 -40c-161 0 -215 37 -215 170c0 144 81 167 200 167c43 0 83 -5 126 -14c0 89 -21 111 -127 111c-56 0 -112 -10 -154 -25l-23 102c53 14 130 27 203 27c151 0 220 -46 220 -198zM375 98v127c-28 6 -64 9 -101 9
c-70 0 -95 -8 -95 -73c0 -69 19 -80 94 -80c36 0 73 7 102 17z" />
    <glyph glyph-name="b" unicode="b" 
d="M193 367v-263c29 -11 67 -16 99 -16c88 0 117 23 117 168c0 126 -28 159 -115 159c-55 0 -101 -18 -101 -48zM69 23v699h124v-232c28 17 75 34 132 34c141 0 211 -60 211 -266c0 -209 -76 -272 -244 -272c-74 0 -168 15 -223 37z" />
    <glyph glyph-name="c" unicode="c" horiz-adv-x="470" 
d="M430 118l28 -106c-40 -16 -107 -26 -155 -26c-155 0 -252 62 -252 271c0 208 98 267 252 267c49 0 117 -10 155 -24l-28 -106c-32 12 -77 22 -118 22c-90 0 -133 -20 -133 -161c0 -135 43 -161 133 -161c43 0 86 11 118 24z" />
    <glyph glyph-name="d" unicode="d" 
d="M394 107v263c0 30 -44 49 -100 49c-87 0 -115 -35 -115 -162c0 -139 29 -165 117 -165c34 0 72 6 98 15zM518 722v-699c-55 -22 -149 -37 -222 -37c-168 0 -245 60 -245 269c0 206 85 269 221 269c58 0 95 -14 122 -29v227h124z" />
    <glyph glyph-name="e" unicode="e" horiz-adv-x="552" 
d="M456 112l20 -98c-51 -17 -126 -28 -178 -28c-147 0 -247 62 -247 271c0 204 89 267 237 267c161 0 231 -55 222 -302h-329c1 -109 43 -131 132 -131c36 0 103 9 143 21zM295 426c-78 0 -105 -25 -113 -109h214c-4 90 -30 109 -101 109z" />
    <glyph glyph-name="f" unicode="f" horiz-adv-x="376" 
d="M214 536v-27h165v-108h-165v-401h-124v401h-85v108h85v34c0 148 85 181 185 181c47 0 101 -9 140 -22l-28 -98c-24 8 -62 14 -92 14c-49 0 -81 -17 -81 -82z" />
    <glyph glyph-name="g" unicode="g" 
d="M394 143v262c-29 11 -67 17 -98 17c-88 0 -117 -23 -117 -168c0 -127 27 -159 114 -159c55 0 101 17 101 48zM394 21c-28 -17 -71 -33 -129 -33c-140 0 -214 58 -214 265c0 208 77 271 245 271c73 0 167 -15 222 -38v-447c0 -199 -111 -243 -272 -243
c-58 0 -135 13 -179 30l25 100c47 -15 105 -25 153 -25c94 0 149 26 149 120z" />
    <glyph glyph-name="h" unicode="h" horiz-adv-x="583" 
d="M333 524c119 0 184 -41 184 -231v-293h-124v283c0 84 -22 129 -102 129c-51 0 -98 -15 -98 -45v-367h-124v722h124v-233c33 17 88 35 140 35z" />
    <glyph glyph-name="i" unicode="i" horiz-adv-x="262" 
d="M193 509v-509h-124v509h124zM132 721c54 0 71 -8 71 -61c0 -59 -17 -69 -71 -69c-55 0 -72 10 -72 69c0 53 17 61 72 61z" />
    <glyph glyph-name="j" unicode="j" horiz-adv-x="262" 
d="M-16 -203v103c56 0 85 18 85 86v523h124v-520c0 -151 -70 -192 -209 -192zM132 721c54 0 71 -8 71 -61c0 -59 -17 -69 -71 -69c-55 0 -72 10 -72 69c0 53 17 61 72 61z" />
    <glyph glyph-name="k" unicode="k" horiz-adv-x="551" 
d="M552 0h-146c-115 167 -185 257 -213 269v-269h-124v722h124v-453c28 23 97 105 197 240h147c-98 -132 -168 -210 -195 -231c26 -16 102 -109 210 -278z" />
    <glyph glyph-name="l" unicode="l" horiz-adv-x="268" 
d="M193 722v-579c0 -49 11 -83 39 -120l-109 -47c-35 40 -54 88 -54 162v584h124z" />
    <glyph glyph-name="m" unicode="m" horiz-adv-x="881" 
d="M193 400v-400h-124v480c62 24 154 44 235 44c57 0 100 -11 130 -34c55 20 123 34 181 34c143 0 200 -57 200 -240v-284h-124v271c0 113 -20 141 -102 141c-25 0 -66 -4 -99 -14c9 -30 14 -68 14 -114v-284h-124v271c0 113 -20 141 -102 141c-27 0 -60 -5 -85 -12z" />
    <glyph glyph-name="n" unicode="n" horiz-adv-x="583" 
d="M193 400v-400h-124v480c62 24 160 44 241 44c143 0 207 -57 207 -240v-284h-124v271c0 113 -21 141 -109 141c-32 0 -61 -4 -91 -12z" />
    <glyph glyph-name="o" unicode="o" 
d="M293 -14c-162 0 -242 62 -242 271c0 208 81 267 242 267c163 0 244 -59 244 -267c0 -209 -80 -271 -244 -271zM293 424c-87 0 -114 -23 -114 -169c0 -141 27 -169 114 -169c89 0 116 28 116 169c0 146 -27 169 -116 169z" />
    <glyph glyph-name="p" unicode="p" 
d="M193 402v-262c0 -30 45 -49 100 -49c87 0 116 35 116 161c0 140 -29 165 -117 165c-34 0 -73 -5 -99 -15zM69 -192v678c55 23 149 38 223 38c168 0 244 -61 244 -269c0 -207 -85 -269 -221 -269c-58 0 -94 15 -122 29v-207h-124z" />
    <glyph glyph-name="q" unicode="q" 
d="M394 143v262c-29 11 -67 17 -98 17c-88 0 -117 -23 -117 -168c0 -127 27 -159 114 -159c55 0 101 17 101 48zM518 486v-678h-124v212c-28 -17 -74 -34 -132 -34c-141 0 -211 60 -211 267c0 208 77 271 245 271c73 0 167 -15 222 -38z" />
    <glyph glyph-name="r" unicode="r" horiz-adv-x="379" 
d="M69 0v509h124v-38c18 28 57 53 130 53c17 0 34 -1 52 -3v-118c-18 4 -43 7 -65 7c-62 0 -117 -20 -117 -57v-353h-124z" />
    <glyph glyph-name="s" unicode="s" horiz-adv-x="491" 
d="M434 496l-27 -97c-40 13 -97 24 -148 24c-61 0 -92 -6 -92 -59c0 -35 22 -47 105 -55c123 -13 177 -51 177 -153c0 -132 -88 -170 -218 -170c-54 0 -134 10 -182 27l26 98c37 -13 100 -24 151 -24c68 0 100 9 100 62c0 36 -20 53 -109 61c-112 9 -172 40 -172 145
c0 132 89 169 218 169c53 0 120 -11 171 -28z" />
    <glyph glyph-name="t" unicode="t" horiz-adv-x="415" 
d="M388 401h-169v-219c0 -63 17 -89 77 -89c33 0 62 6 87 14l22 -98c-36 -13 -91 -23 -140 -23c-114 0 -170 34 -170 185v230h-85v108h85v86l124 51v-137h169v-108z" />
    <glyph glyph-name="u" unicode="u" horiz-adv-x="583" 
d="M390 110v399h124v-480c-63 -24 -160 -44 -241 -44c-143 0 -207 57 -207 240v284h124v-271c0 -113 21 -141 108 -141c33 0 62 4 92 13z" />
    <glyph glyph-name="v" unicode="v" horiz-adv-x="511" 
d="M255 125c48 127 93 257 126 384h126c-49 -165 -115 -344 -183 -509h-153c-50 177 -108 356 -171 509h129c45 -114 90 -253 126 -384z" />
    <glyph glyph-name="w" unicode="w" horiz-adv-x="830" 
d="M415 341c-24 -106 -66 -249 -98 -341h-153c-49 177 -105 353 -164 509h131c42 -112 84 -251 116 -382c35 102 89 291 110 382h121c33 -99 79 -273 103 -382c46 127 88 255 118 382h126c-46 -165 -108 -348 -174 -509h-154c-20 103 -58 261 -82 341z" />
    <glyph glyph-name="x" unicode="x" horiz-adv-x="521" 
d="M516 0h-140c-28 47 -66 103 -107 161c-45 -61 -88 -116 -125 -161h-138c54 63 128 159 198 254c-69 96 -142 191 -197 255h148c34 -42 76 -98 117 -156c43 59 78 114 105 156h138l-175 -251c64 -90 128 -184 176 -258z" />
    <glyph glyph-name="y" unicode="y" horiz-adv-x="511" 
d="M180 -25c-50 181 -117 382 -180 534h129c45 -112 91 -255 126 -386c48 127 94 260 126 386h126c-51 -174 -119 -356 -193 -530c-24 -57 -53 -121 -79 -171h-138c27 48 58 112 83 167z" />
    <glyph glyph-name="z" unicode="z" horiz-adv-x="497" 
d="M35 509h439v-25c-72 -116 -195 -291 -262 -376h255v-108h-449v25c97 123 216 294 266 376h-249v108z" />
    <glyph glyph-name="braceleft" unicode="{" horiz-adv-x="338" 
d="M31 198v102c59 0 110 41 110 201c0 170 81 238 164 266l59 -93c-65 -23 -103 -63 -103 -213c0 -158 -55 -202 -88 -212c33 -10 88 -56 88 -214c0 -150 36 -189 103 -213l-59 -92c-83 28 -164 97 -164 267c0 160 -51 201 -110 201z" />
    <glyph glyph-name="bar" unicode="|" horiz-adv-x="371" 
d="M120 755h131v-1011h-131v1011z" />
    <glyph glyph-name="braceright" unicode="}" horiz-adv-x="338" 
d="M307 198c-59 0 -110 -41 -110 -201c0 -170 -81 -238 -164 -266l-59 93c65 23 103 63 103 213c0 157 55 202 88 212c-33 10 -88 56 -88 214c0 149 -36 189 -103 212l59 92c83 -28 164 -96 164 -266c0 -160 51 -201 110 -201v-102z" />
    <glyph glyph-name="asciitilde" unicode="~" horiz-adv-x="582" 
d="M466 445l80 -63c-24 -64 -78 -115 -153 -115c-76 0 -158 86 -219 86c-24 0 -44 -14 -64 -60l-72 69c34 58 74 97 137 97c86 0 165 -83 223 -83c30 0 49 16 68 69z" />
    <glyph glyph-name="nbspace" unicode="&#xa0;" horiz-adv-x="266" 
 />
    <glyph glyph-name="exclamdown" unicode="&#xa1;" horiz-adv-x="332" 
d="M244 -178h-154l32 474h90zM166 376c-60 0 -79 9 -79 70c0 66 19 78 79 78c58 0 78 -12 78 -78c0 -61 -20 -70 -78 -70z" />
    <glyph glyph-name="cent" unicode="&#xa2;" horiz-adv-x="458" 
d="M244 751h98v-104c35 -3 79 -11 107 -21l-28 -98c-22 10 -52 15 -79 16v-328c27 2 57 8 79 18l28 -96c-29 -13 -72 -21 -107 -24v-121h-98v121c-119 16 -193 86 -193 269c0 181 75 248 193 262v106zM170 380c0 -96 24 -136 74 -150v301c-50 -13 -74 -50 -74 -151z" />
    <glyph glyph-name="sterling" unicode="&#xa3;" horiz-adv-x="610" 
d="M36 293v105h59v79c0 157 84 236 279 236c76 0 158 -12 213 -31l-29 -113c-39 13 -114 24 -184 24c-111 0 -147 -33 -147 -108v-87h197v-105h-197v-179h339v-114h-471v293h-59z" />
    <glyph glyph-name="currency" unicode="&#xa4;" horiz-adv-x="674" 
d="M342 83c-42 0 -76 5 -104 17l-80 -100l-104 75l80 103c-23 41 -34 98 -34 177c0 74 11 129 31 168l-77 102l114 72l70 -93c28 12 63 17 104 17c40 0 74 -4 102 -15l61 91l114 -71l-68 -97c23 -40 35 -97 35 -174c0 -79 -12 -136 -35 -177l74 -103l-112 -75l-70 98
c-28 -10 -61 -15 -101 -15zM342 515c-87 0 -119 -16 -119 -163c0 -140 32 -163 119 -163c89 0 121 23 121 163c0 147 -32 163 -121 163z" />
    <glyph glyph-name="yen" unicode="&#xa5;" horiz-adv-x="638" 
d="M81 278v92h128c-86 120 -175 239 -247 327h172c59 -74 128 -169 194 -266c70 94 136 189 184 266h160c-67 -101 -147 -215 -230 -327h120v-92h-171v-78h171v-92h-171v-108h-132v108h-178v92h178v78h-178z" />
    <glyph glyph-name="brokenbar" unicode="&#xa6;" horiz-adv-x="371" 
d="M120 755h131v-367h-131v367zM120 111h131v-367h-131v367z" />
    <glyph glyph-name="section" unicode="&#xa7;" horiz-adv-x="622" 
d="M551 684l-27 -108c-37 13 -109 24 -176 24c-106 0 -152 -25 -152 -88c0 -49 26 -70 148 -81c155 -16 239 -69 239 -191c0 -44 -19 -86 -46 -119c24 -26 36 -62 36 -108c0 -152 -109 -216 -294 -216c-72 0 -151 12 -203 30l27 108c37 -14 109 -24 176 -24
c107 0 152 25 152 87c0 49 -25 71 -147 82c-155 15 -239 69 -239 190c0 46 16 88 43 122c-22 26 -33 60 -33 105c0 152 108 217 294 217c72 0 150 -12 202 -30zM195 334c-11 -14 -18 -32 -18 -57c0 -51 30 -73 168 -85c35 -2 64 -8 87 -16c11 14 18 32 18 57
c0 52 -30 74 -168 85c-35 3 -64 7 -87 16z" />
    <glyph glyph-name="dieresis" unicode="&#xa8;" horiz-adv-x="462" 
d="M119 681c45 0 60 -7 60 -55c0 -53 -15 -62 -60 -62s-59 9 -59 62c0 48 14 55 59 55zM333 681c44 0 59 -7 59 -55c0 -53 -15 -62 -59 -62c-46 0 -60 9 -60 62c0 48 14 55 60 55z" />
    <glyph glyph-name="copyright" unicode="&#xa9;" horiz-adv-x="837" 
d="M418 714c237 0 359 -76 359 -359c0 -288 -122 -369 -359 -369s-358 81 -358 369c0 283 122 359 358 359zM418 78c185 0 249 43 249 276c0 232 -64 268 -249 268c-184 0 -248 -36 -248 -268c0 -233 64 -276 248 -276zM548 246l23 -89c-35 -13 -86 -22 -130 -22
c-142 0 -209 43 -209 218s67 215 209 215c45 0 97 -8 130 -19l-23 -90c-26 10 -68 16 -101 16c-75 0 -102 -16 -102 -123c0 -102 27 -124 102 -124c35 0 75 7 101 18z" />
    <glyph glyph-name="ordfeminine" unicode="&#xaa;" horiz-adv-x="435" 
d="M375 577v-215c-45 -17 -114 -28 -165 -28c-113 0 -150 25 -150 120c0 102 57 118 140 118c31 0 58 -3 88 -10c0 63 -17 77 -89 77c-39 0 -78 -6 -108 -16l-15 72c36 9 90 19 142 19c105 0 157 -31 157 -137zM288 413v89c-19 5 -44 7 -70 7c-42 0 -66 -6 -66 -51
c0 -43 13 -57 65 -57c25 0 51 5 71 12z" />
    <glyph glyph-name="guillemotleft" unicode="&#xab;" horiz-adv-x="668" 
d="M368 518l-176 -204l176 -208l-70 -75l-271 281l270 279zM641 518l-176 -204l176 -208l-70 -75l-271 281l270 279z" />
    <glyph glyph-name="logicalnot" unicode="&#xac;" horiz-adv-x="519" 
d="M486 0h-131v311h-326v117h457v-428z" />
    <glyph glyph-name="registered" unicode="&#xae;" horiz-adv-x="571" 
d="M411 512c0 -61 -25 -80 -68 -80c23 -11 47 -35 61 -98h-85c-7 36 -30 76 -45 76h-19v-76h-78v266h163c50 0 71 -40 71 -88zM330 508c0 16 -5 28 -21 28h-54v-58h54c16 0 21 12 21 30zM524 466c0 -191 -76 -249 -239 -249s-238 58 -238 249c0 194 77 247 238 247
c162 0 239 -53 239 -247zM442 466c0 150 -40 174 -157 174c-114 0 -155 -24 -155 -174c0 -141 41 -174 155 -174c117 0 157 33 157 174z" />
    <glyph glyph-name="macron" unicode="&#xaf;" horiz-adv-x="520" 
d="M123 576v90h278v-90h-278z" />
    <glyph glyph-name="macron" unicode="&#x2c9;" horiz-adv-x="520" 
d="M123 576v90h278v-90h-278z" />
    <glyph glyph-name="degree" unicode="&#xb0;" horiz-adv-x="434" 
d="M217 714c129 0 182 -46 182 -223c0 -178 -53 -231 -182 -231s-182 53 -182 231c0 177 53 223 182 223zM217 349c56 0 72 25 72 141c0 117 -16 136 -72 136c-55 0 -73 -19 -73 -136c0 -116 18 -141 73 -141z" />
    <glyph glyph-name="plusminus" unicode="&#xb1;" horiz-adv-x="582" 
d="M48 380v118h183v184h119v-184h184v-118h-184v-184h-119v184h-183zM48 19v118h486v-118h-486z" />
    <glyph glyph-name="twosuperior" unicode="&#xb2;" horiz-adv-x="429" 
d="M67 601l-17 93c35 11 91 19 141 19c123 0 183 -35 183 -133c0 -60 -23 -112 -91 -136c-76 -27 -117 -39 -123 -81h215v-89h-339c10 134 53 182 143 220c54 21 87 41 87 78c0 34 -21 46 -83 46c-37 0 -91 -8 -116 -17z" />
    <glyph glyph-name="threesuperior" unicode="&#xb3;" horiz-adv-x="423" 
d="M131 454v83h50c55 0 69 11 69 47c0 33 -14 42 -82 42c-43 0 -80 -5 -107 -14l-16 85c38 9 90 16 140 16c124 0 179 -31 179 -110c0 -61 -19 -98 -96 -104c81 -4 106 -44 106 -112c0 -93 -66 -125 -189 -125c-45 0 -103 7 -143 17l16 85c28 -8 75 -14 111 -14
c72 0 90 12 90 52c0 43 -18 52 -76 52h-52z" />
    <glyph glyph-name="acute" unicode="&#xb4;" horiz-adv-x="481" 
d="M202 568h-109l121 129h133z" />
    <glyph glyph-name="mu" unicode="&#xb5;" horiz-adv-x="583" 
d="M181 -192h-121l6 405v296h124v-271c0 -89 14 -141 108 -141c33 0 61 4 92 13v399h124v-480c-63 -24 -160 -43 -241 -43c-39 0 -70 4 -95 16z" />
    <glyph glyph-name="mu" unicode="&#x3bc;" horiz-adv-x="583" 
d="M181 -192h-121l6 405v296h124v-271c0 -89 14 -141 108 -141c33 0 61 4 92 13v399h124v-480c-63 -24 -160 -43 -241 -43c-39 0 -70 4 -95 16z" />
    <glyph glyph-name="paragraph" unicode="&#xb6;" horiz-adv-x="673" 
d="M584 0h-116v230h-86v-230h-117v230h-46c-135 0 -191 108 -191 228c0 136 46 239 193 239h363v-697z" />
    <glyph glyph-name="periodcentered" unicode="&#xb7;" horiz-adv-x="297" 
d="M147 379c66 0 86 -11 86 -76c0 -71 -20 -84 -86 -84c-62 0 -83 13 -83 84c0 65 21 76 83 76z" />
    <glyph glyph-name="periodcentered" unicode="&#x2219;" horiz-adv-x="297" 
d="M147 379c66 0 86 -11 86 -76c0 -71 -20 -84 -86 -84c-62 0 -83 13 -83 84c0 65 21 76 83 76z" />
    <glyph glyph-name="cedilla" unicode="&#xb8;" horiz-adv-x="641" 
d="M330 0h49v-42c78 0 110 -19 110 -78c0 -63 -37 -83 -137 -83c-47 0 -73 5 -98 16l22 54c16 -8 43 -12 71 -12c31 0 41 6 41 26c0 25 -22 30 -94 26z" />
    <glyph glyph-name="onesuperior" unicode="&#xb9;" horiz-adv-x="377" 
d="M263 278h-104v306l-95 -41l-27 88l226 94v-447z" />
    <glyph glyph-name="ordmasculine" unicode="&#xba;" horiz-adv-x="460" 
d="M229 324c-113 0 -174 49 -174 196c0 148 62 194 174 194c115 0 176 -46 176 -194c0 -147 -61 -196 -176 -196zM229 635c-59 0 -77 -17 -77 -116c0 -95 18 -116 77 -116c60 0 79 21 79 116c0 99 -19 116 -79 116z" />
    <glyph glyph-name="guillemotright" unicode="&#xbb;" horiz-adv-x="668" 
d="M300 105l177 204l-177 209l70 74l272 -280l-270 -280zM27 105l177 204l-177 209l70 74l272 -280l-270 -280z" />
    <glyph glyph-name="onequarter" unicode="&#xbc;" horiz-adv-x="860" 
d="M539 697h122l-430 -697h-122zM656 98h-228v43c55 95 134 211 194 291h137v-243h57v-91h-57v-98h-103v98zM656 189v161c-43 -54 -82 -111 -110 -161h110zM249 278h-105v306l-94 -41l-28 88l227 94v-447z" />
    <glyph glyph-name="onehalf" unicode="&#xbd;" horiz-adv-x="860" 
d="M523 327l-17 93c35 11 91 19 141 19c123 0 183 -35 183 -133c0 -60 -23 -112 -91 -136c-76 -27 -117 -39 -123 -81h215v-89h-339c10 134 53 182 143 220c54 21 87 41 87 78c0 34 -21 46 -83 46c-37 0 -91 -8 -116 -17zM535 697h122l-430 -697h-122zM245 278h-105v306
l-94 -41l-28 88l227 94v-447z" />
    <glyph glyph-name="threequarters" unicode="&#xbe;" horiz-adv-x="860" 
d="M603 697h122l-431 -697h-122zM670 98h-228v43c56 95 134 211 195 291h136v-243h58v-91h-58v-98h-103v98zM670 189v161c-42 -54 -81 -111 -110 -161h110zM113 454v83h50c55 0 69 11 69 47c0 33 -14 42 -82 42c-43 0 -80 -5 -107 -14l-16 85c38 9 90 16 140 16
c124 0 179 -31 179 -110c0 -61 -19 -98 -96 -104c81 -4 106 -44 106 -112c0 -93 -66 -125 -189 -125c-45 0 -103 7 -143 17l16 85c28 -8 75 -14 111 -14c72 0 90 12 90 52c0 43 -18 52 -76 52h-52z" />
    <glyph glyph-name="questiondown" unicode="&#xbf;" horiz-adv-x="493" 
d="M259 377c-61 0 -80 9 -80 70c0 66 19 77 80 77c58 0 77 -11 77 -77c0 -61 -19 -70 -77 -70zM194 305h130c-99 -106 -148 -184 -148 -292c0 -55 27 -87 121 -87c58 0 110 8 143 21l27 -116c-45 -14 -127 -25 -181 -25c-187 0 -259 68 -259 202c0 113 64 200 167 297z" />
    <glyph glyph-name="Agrave" unicode="&#xc0;" horiz-adv-x="682" 
d="M555 0c-20 50 -44 110 -67 174h-305l-54 -174h-138c65 208 167 489 252 697h207c71 -224 173 -511 251 -697h-146zM353 585h-27c-35 -90 -72 -193 -108 -298h232c-36 103 -70 208 -97 298zM436 747h-114l-158 129h137z" />
    <glyph glyph-name="Aacute" unicode="&#xc1;" horiz-adv-x="682" 
d="M555 0c-20 50 -44 110 -67 174h-305l-54 -174h-138c65 208 167 489 252 697h207c71 -224 173 -511 251 -697h-146zM353 585h-27c-35 -90 -72 -193 -108 -298h232c-36 103 -70 208 -97 298zM356 747h-108l129 129h137z" />
    <glyph glyph-name="Acircumflex" unicode="&#xc2;" horiz-adv-x="682" 
d="M555 0c-20 50 -44 110 -67 174h-305l-54 -174h-138c65 208 167 489 252 697h207c71 -224 173 -511 251 -697h-146zM353 585h-27c-35 -90 -72 -193 -108 -298h232c-36 103 -70 208 -97 298zM412 747l-72 78l-70 -78h-112l122 129h122l126 -129h-116z" />
    <glyph glyph-name="Atilde" unicode="&#xc3;" horiz-adv-x="682" 
d="M555 0c-20 50 -44 110 -67 174h-305l-54 -174h-138c65 208 167 489 252 697h207c71 -224 173 -511 251 -697h-146zM353 585h-27c-35 -90 -72 -193 -108 -298h232c-36 103 -70 208 -97 298zM462 879l61 -50c-19 -52 -61 -93 -120 -93s-96 54 -143 54
c-20 0 -36 -12 -51 -50l-56 55c27 47 58 79 107 79c68 0 102 -52 148 -52c23 0 38 13 54 57z" />
    <glyph glyph-name="Adieresis" unicode="&#xc4;" horiz-adv-x="682" 
d="M555 0c-20 50 -44 110 -67 174h-305l-54 -174h-138c65 208 167 489 252 697h207c71 -224 173 -511 251 -697h-146zM353 585h-27c-35 -90 -72 -193 -108 -298h232c-36 103 -70 208 -97 298zM233 864c45 0 59 -8 59 -56c0 -52 -14 -61 -59 -61s-60 9 -60 61
c0 48 15 56 60 56zM446 864c45 0 59 -8 59 -56c0 -52 -14 -61 -59 -61c-46 0 -60 9 -60 61c0 48 14 56 60 56z" />
    <glyph glyph-name="Aring" unicode="&#xc5;" horiz-adv-x="682" 
d="M345 890c80 0 119 -26 119 -98c0 -58 -26 -87 -78 -95h64c71 -224 173 -511 251 -697h-146c-20 50 -44 110 -67 174h-305l-54 -174h-138c65 208 167 489 252 697h60c-52 8 -78 36 -78 95c0 72 35 98 120 98zM353 585h-27c-35 -90 -72 -193 -108 -298h232
c-36 103 -70 208 -97 298zM345 834c-41 0 -50 -14 -50 -43s9 -43 50 -43s50 14 50 43c0 30 -9 43 -50 43z" />
    <glyph glyph-name="AE" unicode="&#xc6;" horiz-adv-x="969" 
d="M345 697h597v-114h-374v-161h222v-112h-222v-196h374v-114h-505v174h-311l-112 -174h-158c136 208 332 489 489 697zM437 585h-28l-209 -298h237v298z" />
    <glyph glyph-name="Ccedilla" unicode="&#xc7;" horiz-adv-x="592" 
d="M53 355c0 285 106 359 327 359c64 0 146 -11 200 -26l-29 -116c-36 13 -101 22 -148 22c-152 0 -209 -26 -209 -240s57 -247 209 -247c47 0 112 9 148 22l29 -118c-53 -14 -131 -24 -194 -25v-28c78 0 110 -19 110 -78c0 -63 -37 -83 -137 -83c-47 0 -73 5 -98 16l22 54
c16 -8 43 -12 71 -12c31 0 41 6 41 26c0 25 -22 30 -94 26l31 81c-189 12 -279 104 -279 367z" />
    <glyph glyph-name="Egrave" unicode="&#xc8;" horiz-adv-x="620" 
d="M88 697h506v-114h-374v-161h267v-113h-267v-195h374v-114h-506v697zM473 747h-114l-158 129h137z" />
    <glyph glyph-name="Eacute" unicode="&#xc9;" horiz-adv-x="620" 
d="M88 697h506v-114h-374v-161h267v-113h-267v-195h374v-114h-506v697zM360 747h-108l129 129h137z" />
    <glyph glyph-name="Ecircumflex" unicode="&#xca;" horiz-adv-x="620" 
d="M88 697h506v-114h-374v-161h267v-113h-267v-195h374v-114h-506v697zM419 747l-72 78l-70 -78h-112l122 129h122l126 -129h-116z" />
    <glyph glyph-name="Edieresis" unicode="&#xcb;" horiz-adv-x="620" 
d="M88 697h506v-114h-374v-161h267v-113h-267v-195h374v-114h-506v697zM241 864c45 0 59 -8 59 -56c0 -52 -14 -61 -59 -61s-60 9 -60 61c0 48 15 56 60 56zM454 864c45 0 59 -8 59 -56c0 -52 -14 -61 -59 -61c-46 0 -60 9 -60 61c0 48 14 56 60 56z" />
    <glyph glyph-name="Igrave" unicode="&#xcc;" horiz-adv-x="308" 
d="M88 697h132v-697h-132v697zM242 747h-114l-158 129h137z" />
    <glyph glyph-name="Iacute" unicode="&#xcd;" horiz-adv-x="308" 
d="M88 697h132v-697h-132v697zM178 747h-108l129 129h137z" />
    <glyph glyph-name="Icircumflex" unicode="&#xce;" horiz-adv-x="308" 
d="M88 697h132v-697h-132v697zM224 747l-72 78l-70 -78h-112l122 129h122l126 -129h-116z" />
    <glyph glyph-name="Idieresis" unicode="&#xcf;" horiz-adv-x="308" 
d="M88 697h132v-697h-132v697zM49 864c45 0 59 -8 59 -56c0 -52 -14 -61 -59 -61s-60 9 -60 61c0 48 15 56 60 56zM262 864c45 0 59 -8 59 -56c0 -52 -14 -61 -59 -61c-46 0 -60 9 -60 61c0 48 14 56 60 56z" />
    <glyph glyph-name="Eth" unicode="&#xd0;" horiz-adv-x="736" 
d="M36 311v92h52v294h266c221 0 329 -75 329 -346c0 -270 -108 -351 -329 -351h-266v311h-52zM542 350c0 205 -47 232 -201 232h-121v-179h159v-92h-159v-197h121c154 0 201 39 201 236z" />
    <glyph glyph-name="Ntilde" unicode="&#xd1;" horiz-adv-x="774" 
d="M685 697v-697h-161c-94 174 -198 352 -307 525v-525h-129v697h173c101 -159 202 -333 293 -503v503h131zM515 879l61 -50c-19 -52 -61 -93 -120 -93s-96 54 -143 54c-20 0 -36 -12 -51 -50l-56 55c27 47 58 79 107 79c68 0 102 -52 148 -52c23 0 38 13 54 57z" />
    <glyph glyph-name="Ograve" unicode="&#xd2;" horiz-adv-x="770" 
d="M385 714c221 0 331 -76 331 -359c0 -288 -110 -369 -331 -369c-222 0 -332 81 -332 369c0 283 111 359 332 359zM385 105c153 0 191 38 191 248c0 211 -38 242 -191 242s-191 -31 -191 -242c0 -210 38 -248 191 -248zM484 747h-114l-158 129h137z" />
    <glyph glyph-name="Oacute" unicode="&#xd3;" horiz-adv-x="770" 
d="M385 714c221 0 331 -76 331 -359c0 -288 -110 -369 -331 -369c-222 0 -332 81 -332 369c0 283 111 359 332 359zM385 105c153 0 191 38 191 248c0 211 -38 242 -191 242s-191 -31 -191 -242c0 -210 38 -248 191 -248zM360 747h-108l129 129h137z" />
    <glyph glyph-name="Ocircumflex" unicode="&#xd4;" horiz-adv-x="770" 
d="M385 714c221 0 331 -76 331 -359c0 -288 -110 -369 -331 -369c-222 0 -332 81 -332 369c0 283 111 359 332 359zM385 105c153 0 191 38 191 248c0 211 -38 242 -191 242s-191 -31 -191 -242c0 -210 38 -248 191 -248zM453 747l-72 78l-70 -78h-112l122 129h122l126 -129
h-116z" />
    <glyph glyph-name="Otilde" unicode="&#xd5;" horiz-adv-x="770" 
d="M385 714c221 0 331 -76 331 -359c0 -288 -110 -369 -331 -369c-222 0 -332 81 -332 369c0 283 111 359 332 359zM385 105c153 0 191 38 191 248c0 211 -38 242 -191 242s-191 -31 -191 -242c0 -210 38 -248 191 -248zM507 879l61 -50c-19 -52 -61 -93 -120 -93
s-96 54 -143 54c-20 0 -36 -12 -51 -50l-56 55c27 47 58 79 107 79c68 0 102 -52 148 -52c23 0 38 13 54 57z" />
    <glyph glyph-name="Odieresis" unicode="&#xd6;" horiz-adv-x="770" 
d="M385 714c221 0 331 -76 331 -359c0 -288 -110 -369 -331 -369c-222 0 -332 81 -332 369c0 283 111 359 332 359zM385 105c153 0 191 38 191 248c0 211 -38 242 -191 242s-191 -31 -191 -242c0 -210 38 -248 191 -248zM277 864c45 0 59 -8 59 -56c0 -52 -14 -61 -59 -61
s-60 9 -60 61c0 48 15 56 60 56zM490 864c45 0 59 -8 59 -56c0 -52 -14 -61 -59 -61c-46 0 -60 9 -60 61c0 48 14 56 60 56z" />
    <glyph glyph-name="multiply" unicode="&#xd7;" horiz-adv-x="582" 
d="M161 149l-84 84l129 130l-130 129l84 84l130 -130l130 131l84 -85l-130 -130l130 -130l-84 -83l-130 130z" />
    <glyph glyph-name="Oslash" unicode="&#xd8;" horiz-adv-x="770" 
d="M620 697h135l-88 -101c33 -55 49 -133 49 -241c0 -288 -110 -369 -331 -369c-87 0 -156 13 -207 45l-27 -31h-134l88 101c-35 57 -52 139 -52 254c0 283 111 359 332 359c88 0 158 -13 210 -47zM385 595c-143 0 -191 -31 -191 -209c0 -50 4 -125 14 -168l301 351
c-28 20 -68 26 -124 26zM385 105c144 0 192 36 192 215c0 48 -4 115 -14 157l-298 -346c27 -20 66 -26 120 -26z" />
    <glyph glyph-name="Ugrave" unicode="&#xd9;" horiz-adv-x="742" 
d="M663 697l1 -486c0 -183 -111 -225 -293 -225s-293 42 -293 225v486h133v-466c0 -93 41 -124 160 -124c113 0 161 26 161 124v466h131zM486 747h-114l-158 129h137z" />
    <glyph glyph-name="Uacute" unicode="&#xda;" horiz-adv-x="742" 
d="M663 697l1 -486c0 -183 -111 -225 -293 -225s-293 42 -293 225v486h133v-466c0 -93 41 -124 160 -124c113 0 161 26 161 124v466h131zM372 747h-108l129 129h137z" />
    <glyph glyph-name="Ucircumflex" unicode="&#xdb;" horiz-adv-x="742" 
d="M663 697l1 -486c0 -183 -111 -225 -293 -225s-293 42 -293 225v486h133v-466c0 -93 41 -124 160 -124c113 0 161 26 161 124v466h131zM438 747l-72 78l-70 -78h-112l122 129h122l126 -129h-116z" />
    <glyph glyph-name="Udieresis" unicode="&#xdc;" horiz-adv-x="742" 
d="M663 697l1 -486c0 -183 -111 -225 -293 -225s-293 42 -293 225v486h133v-466c0 -93 41 -124 160 -124c113 0 161 26 161 124v466h131zM262 864c45 0 59 -8 59 -56c0 -52 -14 -61 -59 -61s-60 9 -60 61c0 48 15 56 60 56zM475 864c45 0 59 -8 59 -56
c0 -52 -14 -61 -59 -61c-46 0 -60 9 -60 61c0 48 14 56 60 56z" />
    <glyph glyph-name="Yacute" unicode="&#xdd;" horiz-adv-x="638" 
d="M134 697c59 -74 128 -169 194 -266c70 94 136 189 184 266h160c-80 -120 -181 -263 -281 -396v-301h-132v300c-100 142 -213 295 -297 397h172zM334 747h-108l129 129h137z" />
    <glyph glyph-name="Thorn" unicode="&#xde;" horiz-adv-x="673" 
d="M88 697h132v-103h231c147 0 194 -103 194 -239c0 -120 -57 -228 -191 -228h-234v-127h-132v697zM220 237h194c55 0 86 40 86 119c0 85 -29 125 -83 125h-197v-244z" />
    <glyph glyph-name="germandbls" unicode="&#xdf;" horiz-adv-x="654" 
d="M324 714c182 0 263 -52 263 -178c0 -92 -23 -156 -147 -167c132 -6 163 -76 163 -181c0 -151 -82 -202 -280 -202c-20 0 -47 1 -69 3l14 108c16 -2 41 -4 60 -4c110 0 137 30 137 108c0 85 -35 113 -127 113h-38v103h35c92 0 119 33 119 98c0 66 -33 88 -130 88
c-88 0 -130 -35 -130 -93v-510h-125v527c0 137 102 187 255 187z" />
    <glyph glyph-name="agrave" unicode="&#xe0;" horiz-adv-x="560" 
d="M494 326v-300c-64 -25 -159 -40 -230 -40c-161 0 -215 37 -215 170c0 144 81 167 200 167c43 0 83 -5 126 -14c0 89 -21 111 -127 111c-56 0 -112 -10 -154 -25l-23 102c53 14 130 27 203 27c151 0 220 -46 220 -198zM375 98v127c-28 6 -64 9 -101 9
c-70 0 -95 -8 -95 -73c0 -69 19 -80 94 -80c36 0 73 7 102 17zM369 568h-110l-144 129h132z" />
    <glyph glyph-name="aacute" unicode="&#xe1;" horiz-adv-x="560" 
d="M494 326v-300c-64 -25 -159 -40 -230 -40c-161 0 -215 37 -215 170c0 144 81 167 200 167c43 0 83 -5 126 -14c0 89 -21 111 -127 111c-56 0 -112 -10 -154 -25l-23 102c53 14 130 27 203 27c151 0 220 -46 220 -198zM375 98v127c-28 6 -64 9 -101 9
c-70 0 -95 -8 -95 -73c0 -69 19 -80 94 -80c36 0 73 7 102 17zM298 568h-109l121 129h133z" />
    <glyph glyph-name="acircumflex" unicode="&#xe2;" horiz-adv-x="560" 
d="M494 326v-300c-64 -25 -159 -40 -230 -40c-161 0 -215 37 -215 170c0 144 81 167 200 167c43 0 83 -5 126 -14c0 89 -21 111 -127 111c-56 0 -112 -10 -154 -25l-23 102c53 14 130 27 203 27c151 0 220 -46 220 -198zM375 98v127c-28 6 -64 9 -101 9
c-70 0 -95 -8 -95 -73c0 -69 19 -80 94 -80c36 0 73 7 102 17zM467 568h-117l-71 76l-69 -76h-113l122 129h122z" />
    <glyph glyph-name="atilde" unicode="&#xe3;" horiz-adv-x="560" 
d="M494 326v-300c-64 -25 -159 -40 -230 -40c-161 0 -215 37 -215 170c0 144 81 167 200 167c43 0 83 -5 126 -14c0 89 -21 111 -127 111c-56 0 -112 -10 -154 -25l-23 102c53 14 130 27 203 27c151 0 220 -46 220 -198zM375 98v127c-28 6 -64 9 -101 9
c-70 0 -95 -8 -95 -73c0 -69 19 -80 94 -80c36 0 73 7 102 17zM394 702l62 -50c-19 -54 -57 -93 -117 -93s-92 53 -141 53c-20 0 -36 -12 -52 -51l-56 55c28 49 59 81 109 81c68 0 95 -53 142 -53c24 0 37 13 53 58z" />
    <glyph glyph-name="adieresis" unicode="&#xe4;" horiz-adv-x="560" 
d="M494 326v-300c-64 -25 -159 -40 -230 -40c-161 0 -215 37 -215 170c0 144 81 167 200 167c43 0 83 -5 126 -14c0 89 -21 111 -127 111c-56 0 -112 -10 -154 -25l-23 102c53 14 130 27 203 27c151 0 220 -46 220 -198zM375 98v127c-28 6 -64 9 -101 9
c-70 0 -95 -8 -95 -73c0 -69 19 -80 94 -80c36 0 73 7 102 17zM166 681c45 0 60 -7 60 -55c0 -53 -15 -62 -60 -62s-59 9 -59 62c0 48 14 55 59 55zM380 681c44 0 59 -7 59 -55c0 -53 -15 -62 -59 -62c-46 0 -60 9 -60 62c0 48 14 55 60 55z" />
    <glyph glyph-name="aring" unicode="&#xe5;" horiz-adv-x="560" 
d="M494 326v-300c-64 -25 -159 -40 -230 -40c-161 0 -215 37 -215 170c0 144 81 167 200 167c43 0 83 -5 126 -14c0 89 -21 111 -127 111c-56 0 -112 -10 -154 -25l-23 102c53 14 130 27 203 27c151 0 220 -46 220 -198zM375 98v127c-28 6 -64 9 -101 9
c-70 0 -95 -8 -95 -73c0 -69 19 -80 94 -80c36 0 73 7 102 17zM281 741c80 0 119 -26 119 -98c0 -73 -39 -98 -119 -98s-120 25 -120 98c0 72 35 98 120 98zM281 684c-41 0 -50 -13 -50 -43c0 -29 9 -43 50 -43s50 15 50 43c0 30 -9 43 -50 43z" />
    <glyph glyph-name="ae" unicode="&#xe6;" horiz-adv-x="868" 
d="M772 112l20 -98c-51 -17 -126 -28 -178 -28c-63 0 -112 11 -148 36c-50 -24 -139 -36 -202 -36c-161 0 -215 37 -215 170c0 144 82 167 200 167c43 0 83 -5 126 -14c0 89 -19 109 -127 109c-56 0 -112 -8 -154 -23l-23 102c53 14 130 27 203 27c86 0 139 -16 169 -61
c32 44 84 61 161 61c161 0 231 -55 222 -302h-329c1 -109 43 -131 132 -131c36 0 103 9 143 21zM393 105c-17 41 -20 78 -20 120c-27 6 -61 9 -98 9c-70 0 -95 -8 -95 -73c0 -64 13 -80 94 -80c36 0 93 10 119 24zM611 426c-75 0 -105 -22 -113 -109h214
c-4 90 -30 109 -101 109z" />
    <glyph glyph-name="ccedilla" unicode="&#xe7;" horiz-adv-x="470" 
d="M430 118l28 -106c-39 -15 -102 -25 -149 -26v-28c78 0 110 -19 110 -78c0 -63 -37 -83 -137 -83c-47 0 -73 5 -98 16l22 54c16 -8 43 -12 71 -12c31 0 41 6 41 26c0 25 -22 30 -94 26l31 82c-127 12 -204 81 -204 268c0 208 98 267 252 267c49 0 117 -10 155 -24
l-28 -106c-32 12 -77 22 -118 22c-90 0 -133 -20 -133 -161c0 -135 43 -161 133 -161c43 0 86 11 118 24z" />
    <glyph glyph-name="egrave" unicode="&#xe8;" horiz-adv-x="552" 
d="M456 112l20 -98c-51 -17 -126 -28 -178 -28c-147 0 -247 62 -247 271c0 204 89 267 237 267c161 0 231 -55 222 -302h-329c1 -109 43 -131 132 -131c36 0 103 9 143 21zM295 426c-78 0 -105 -25 -113 -109h214c-4 90 -30 109 -101 109zM390 568h-110l-144 129h132z" />
    <glyph glyph-name="eacute" unicode="&#xe9;" horiz-adv-x="552" 
d="M456 112l20 -98c-51 -17 -126 -28 -178 -28c-147 0 -247 62 -247 271c0 204 89 267 237 267c161 0 231 -55 222 -302h-329c1 -109 43 -131 132 -131c36 0 103 9 143 21zM295 426c-78 0 -105 -25 -113 -109h214c-4 90 -30 109 -101 109zM310 568h-109l121 129h133z" />
    <glyph glyph-name="ecircumflex" unicode="&#xea;" horiz-adv-x="552" 
d="M456 112l20 -98c-51 -17 -126 -28 -178 -28c-147 0 -247 62 -247 271c0 204 89 267 237 267c161 0 231 -55 222 -302h-329c1 -109 43 -131 132 -131c36 0 103 9 143 21zM295 426c-78 0 -105 -25 -113 -109h214c-4 90 -30 109 -101 109zM481 568h-117l-71 76l-69 -76h-113
l122 129h122z" />
    <glyph glyph-name="edieresis" unicode="&#xeb;" horiz-adv-x="552" 
d="M456 112l20 -98c-51 -17 -126 -28 -178 -28c-147 0 -247 62 -247 271c0 204 89 267 237 267c161 0 231 -55 222 -302h-329c1 -109 43 -131 132 -131c36 0 103 9 143 21zM295 426c-78 0 -105 -25 -113 -109h214c-4 90 -30 109 -101 109zM186 681c45 0 60 -7 60 -55
c0 -53 -15 -62 -60 -62s-59 9 -59 62c0 48 14 55 59 55zM400 681c44 0 59 -7 59 -55c0 -53 -15 -62 -59 -62c-46 0 -60 9 -60 62c0 48 14 55 60 55z" />
    <glyph glyph-name="igrave" unicode="&#xec;" horiz-adv-x="262" 
d="M193 509v-509h-124v509h124zM214 568h-110l-144 129h132z" />
    <glyph glyph-name="iacute" unicode="&#xed;" horiz-adv-x="262" 
d="M193 509v-509h-124v509h124zM153 568h-109l121 129h133z" />
    <glyph glyph-name="icircumflex" unicode="&#xee;" horiz-adv-x="262" 
d="M193 509v-509h-124v509h124zM317 568h-117l-71 76l-69 -76h-113l122 129h122z" />
    <glyph glyph-name="idieresis" unicode="&#xef;" horiz-adv-x="262" 
d="M193 509v-509h-124v509h124zM25 681c45 0 60 -7 60 -55c0 -53 -15 -62 -60 -62s-59 9 -59 62c0 48 14 55 59 55zM239 681c44 0 59 -7 59 -55c0 -53 -15 -62 -59 -62c-46 0 -60 9 -60 62c0 48 14 55 60 55z" />
    <glyph glyph-name="eth" unicode="&#xf0;" horiz-adv-x="626" 
d="M255 480l-49 65l70 44c-33 37 -69 72 -105 108h164l47 -45l61 38l48 -65l-55 -35c84 -103 143 -221 143 -366c0 -188 -56 -241 -266 -241c-192 0 -262 59 -262 235c0 156 62 210 258 210c18 0 63 -2 87 -5c-18 35 -41 69 -69 102zM323 317c-112 0 -134 -19 -134 -105
c0 -78 21 -111 124 -111c96 0 127 15 127 137c0 25 -3 49 -9 72c-33 5 -72 7 -108 7z" />
    <glyph glyph-name="ntilde" unicode="&#xf1;" horiz-adv-x="583" 
d="M193 400v-400h-124v480c62 24 160 44 241 44c143 0 207 -57 207 -240v-284h-124v271c0 113 -21 141 -109 141c-32 0 -61 -4 -91 -12zM411 702l62 -50c-19 -54 -57 -93 -117 -93s-92 53 -141 53c-20 0 -36 -12 -52 -51l-56 55c28 49 59 81 109 81c68 0 95 -53 142 -53
c24 0 37 13 53 58z" />
    <glyph glyph-name="ograve" unicode="&#xf2;" 
d="M293 -14c-162 0 -242 62 -242 271c0 208 81 267 242 267c163 0 244 -59 244 -267c0 -209 -80 -271 -244 -271zM293 424c-87 0 -114 -23 -114 -169c0 -141 27 -169 114 -169c89 0 116 28 116 169c0 146 -27 169 -116 169zM397 568h-110l-144 129h132z" />
    <glyph glyph-name="oacute" unicode="&#xf3;" 
d="M293 -14c-162 0 -242 62 -242 271c0 208 81 267 242 267c163 0 244 -59 244 -267c0 -209 -80 -271 -244 -271zM293 424c-87 0 -114 -23 -114 -169c0 -141 27 -169 114 -169c89 0 116 28 116 169c0 146 -27 169 -116 169zM307 568h-109l121 129h133z" />
    <glyph glyph-name="ocircumflex" unicode="&#xf4;" 
d="M293 -14c-162 0 -242 62 -242 271c0 208 81 267 242 267c163 0 244 -59 244 -267c0 -209 -80 -271 -244 -271zM293 424c-87 0 -114 -23 -114 -169c0 -141 27 -169 114 -169c89 0 116 28 116 169c0 146 -27 169 -116 169zM477 568h-117l-71 76l-69 -76h-113l122 129h122z
" />
    <glyph glyph-name="otilde" unicode="&#xf5;" 
d="M293 -14c-162 0 -242 62 -242 271c0 208 81 267 242 267c163 0 244 -59 244 -267c0 -209 -80 -271 -244 -271zM293 424c-87 0 -114 -23 -114 -169c0 -141 27 -169 114 -169c89 0 116 28 116 169c0 146 -27 169 -116 169zM413 702l62 -50c-19 -54 -57 -93 -117 -93
s-92 53 -141 53c-20 0 -36 -12 -52 -51l-56 55c28 49 59 81 109 81c68 0 95 -53 142 -53c24 0 37 13 53 58z" />
    <glyph glyph-name="odieresis" unicode="&#xf6;" 
d="M293 -14c-162 0 -242 62 -242 271c0 208 81 267 242 267c163 0 244 -59 244 -267c0 -209 -80 -271 -244 -271zM293 424c-87 0 -114 -23 -114 -169c0 -141 27 -169 114 -169c89 0 116 28 116 169c0 146 -27 169 -116 169zM186 681c45 0 60 -7 60 -55
c0 -53 -15 -62 -60 -62s-59 9 -59 62c0 48 14 55 59 55zM400 681c44 0 59 -7 59 -55c0 -53 -15 -62 -59 -62c-46 0 -60 9 -60 62c0 48 14 55 60 55z" />
    <glyph glyph-name="divide" unicode="&#xf7;" horiz-adv-x="582" 
d="M48 303v118h486v-118h-486zM289 224c61 0 80 -10 80 -71c0 -66 -19 -77 -80 -77c-58 0 -77 11 -77 77c0 61 19 71 77 71zM289 645c61 0 80 -9 80 -70c0 -66 -19 -77 -80 -77c-58 0 -77 11 -77 77c0 61 19 70 77 70z" />
    <glyph glyph-name="oslash" unicode="&#xf8;" 
d="M457 509h116l-69 -79c22 -41 33 -96 33 -173c0 -209 -80 -271 -244 -271c-61 0 -110 10 -147 31l-15 -17h-115l69 79c-23 41 -34 99 -34 178c0 208 81 267 242 267c62 0 112 -9 149 -31zM293 423c-83 0 -112 -20 -114 -144c0 -34 2 -62 7 -86l182 214
c-18 12 -42 16 -75 16zM293 87c92 0 114 41 114 154c0 27 -1 50 -5 73l-181 -212c16 -12 40 -15 72 -15z" />
    <glyph glyph-name="ugrave" unicode="&#xf9;" horiz-adv-x="583" 
d="M390 110v399h124v-480c-63 -24 -160 -44 -241 -44c-143 0 -207 57 -207 240v284h124v-271c0 -113 21 -141 108 -141c33 0 62 4 92 13zM390 568h-110l-144 129h132z" />
    <glyph glyph-name="uacute" unicode="&#xfa;" horiz-adv-x="583" 
d="M390 110v399h124v-480c-63 -24 -160 -44 -241 -44c-143 0 -207 57 -207 240v284h124v-271c0 -113 21 -141 108 -141c33 0 62 4 92 13zM309 568h-109l121 129h133z" />
    <glyph glyph-name="ucircumflex" unicode="&#xfb;" horiz-adv-x="583" 
d="M390 110v399h124v-480c-63 -24 -160 -44 -241 -44c-143 0 -207 57 -207 240v284h124v-271c0 -113 21 -141 108 -141c33 0 62 4 92 13zM482 568h-117l-71 76l-69 -76h-113l122 129h122z" />
    <glyph glyph-name="udieresis" unicode="&#xfc;" horiz-adv-x="583" 
d="M390 110v399h124v-480c-63 -24 -160 -44 -241 -44c-143 0 -207 57 -207 240v284h124v-271c0 -113 21 -141 108 -141c33 0 62 4 92 13zM187 681c45 0 60 -7 60 -55c0 -53 -15 -62 -60 -62s-59 9 -59 62c0 48 14 55 59 55zM401 681c44 0 59 -7 59 -55
c0 -53 -15 -62 -59 -62c-46 0 -60 9 -60 62c0 48 14 55 60 55z" />
    <glyph glyph-name="yacute" unicode="&#xfd;" horiz-adv-x="511" 
d="M180 -25c-50 181 -117 382 -180 534h129c45 -112 91 -255 126 -386c48 127 94 260 126 386h126c-51 -174 -119 -356 -193 -530c-24 -57 -53 -121 -79 -171h-138c27 48 58 112 83 167zM288 568h-109l121 129h133z" />
    <glyph glyph-name="thorn" unicode="&#xfe;" 
d="M69 -192v901h124v-195c33 6 69 10 99 10c168 0 244 -61 244 -269c0 -207 -85 -269 -221 -269c-58 0 -94 15 -122 29v-207h-124zM193 402v-262c0 -30 45 -49 100 -49c87 0 116 35 116 161c0 140 -29 165 -117 165c-34 0 -73 -5 -99 -15z" />
    <glyph glyph-name="ydieresis" unicode="&#xff;" horiz-adv-x="511" 
d="M180 -25c-50 181 -117 382 -180 534h129c45 -112 91 -255 126 -386c48 127 94 260 126 386h126c-51 -174 -119 -356 -193 -530c-24 -57 -53 -121 -79 -171h-138c27 48 58 112 83 167zM152 681c45 0 60 -7 60 -55c0 -53 -15 -62 -60 -62s-59 9 -59 62c0 48 14 55 59 55z
M366 681c44 0 59 -7 59 -55c0 -53 -15 -62 -59 -62c-46 0 -60 9 -60 62c0 48 14 55 60 55z" />
    <glyph glyph-name="Amacron" unicode="&#x100;" horiz-adv-x="682" 
d="M555 0c-20 50 -44 110 -67 174h-305l-54 -174h-138c65 208 167 489 252 697h207c71 -224 173 -511 251 -697h-146zM353 585h-27c-35 -90 -72 -193 -108 -298h232c-36 103 -70 208 -97 298zM202 753v92h278v-92h-278z" />
    <glyph glyph-name="amacron" unicode="&#x101;" horiz-adv-x="560" 
d="M494 326v-300c-64 -25 -159 -40 -230 -40c-161 0 -215 37 -215 170c0 144 81 167 200 167c43 0 83 -5 126 -14c0 89 -21 111 -127 111c-56 0 -112 -10 -154 -25l-23 102c53 14 130 27 203 27c151 0 220 -46 220 -198zM375 98v127c-28 6 -64 9 -101 9
c-70 0 -95 -8 -95 -73c0 -69 19 -80 94 -80c36 0 73 7 102 17zM138 576v90h278v-90h-278z" />
    <glyph glyph-name="Abreve" unicode="&#x102;" horiz-adv-x="682" 
d="M555 0c-20 50 -44 110 -67 174h-305l-54 -174h-138c65 208 167 489 252 697h207c71 -224 173 -511 251 -697h-146zM353 585h-27c-35 -90 -72 -193 -108 -298h232c-36 103 -70 208 -97 298zM190 871h85c0 -47 22 -58 66 -58c43 0 67 11 67 58h80c0 -95 -53 -137 -150 -137
c-94 0 -148 42 -148 137z" />
    <glyph glyph-name="abreve" unicode="&#x103;" horiz-adv-x="560" 
d="M494 326v-300c-64 -25 -159 -40 -230 -40c-161 0 -215 37 -215 170c0 144 81 167 200 167c43 0 83 -5 126 -14c0 89 -21 111 -127 111c-56 0 -112 -10 -154 -25l-23 102c53 14 130 27 203 27c151 0 220 -46 220 -198zM375 98v127c-28 6 -64 9 -101 9
c-70 0 -95 -8 -95 -73c0 -69 19 -80 94 -80c36 0 73 7 102 17zM128 697h85c0 -47 22 -58 66 -58c43 0 67 11 67 58h80c0 -95 -53 -137 -150 -137c-94 0 -148 42 -148 137z" />
    <glyph glyph-name="Aogonek" unicode="&#x104;" horiz-adv-x="682" 
d="M555 0c-20 50 -44 110 -67 174h-305l-54 -174h-138c65 208 167 489 252 697h207c71 -224 173 -511 251 -697h-52c-53 -35 -64 -58 -64 -92c0 -28 11 -40 60 -40c32 0 64 11 83 27l35 -63c-32 -24 -87 -35 -131 -35c-102 0 -132 30 -132 89c0 46 30 88 94 114h-39z
M353 585h-27c-35 -90 -72 -193 -108 -298h232c-36 103 -70 208 -97 298z" />
    <glyph glyph-name="aogonek" unicode="&#x105;" horiz-adv-x="560" 
d="M494 326v-300c-13 -5 -27 -10 -42 -14h1c-70 -42 -84 -66 -84 -104c0 -28 11 -40 60 -40c32 0 64 11 83 27l35 -63c-32 -24 -87 -35 -131 -35c-102 0 -132 30 -132 89c0 42 25 81 79 108c-34 -5 -69 -8 -99 -8c-161 0 -215 37 -215 170c0 144 81 167 200 167
c43 0 83 -5 126 -14c0 89 -21 111 -127 111c-56 0 -112 -10 -154 -25l-23 102c53 14 130 27 203 27c151 0 220 -46 220 -198zM375 98v127c-28 6 -64 9 -101 9c-70 0 -95 -8 -95 -73c0 -69 19 -80 94 -80c36 0 73 7 102 17z" />
    <glyph glyph-name="Cacute" unicode="&#x106;" horiz-adv-x="592" 
d="M53 355c0 285 106 359 327 359c64 0 146 -11 200 -26l-29 -116c-36 13 -101 22 -148 22c-152 0 -209 -26 -209 -240s57 -247 209 -247c47 0 112 9 148 22l29 -118c-54 -15 -136 -25 -200 -25c-221 0 -327 85 -327 369zM353 747h-108l129 129h137z" />
    <glyph glyph-name="cacute" unicode="&#x107;" horiz-adv-x="470" 
d="M430 118l28 -106c-40 -16 -107 -26 -155 -26c-155 0 -252 62 -252 271c0 208 98 267 252 267c49 0 117 -10 155 -24l-28 -106c-32 12 -77 22 -118 22c-90 0 -133 -20 -133 -161c0 -135 43 -161 133 -161c43 0 86 11 118 24zM297 568h-109l121 129h133z" />
    <glyph glyph-name="Ccircumflex" unicode="&#x108;" horiz-adv-x="592" 
d="M53 355c0 285 106 359 327 359c64 0 146 -11 200 -26l-29 -116c-36 13 -101 22 -148 22c-152 0 -209 -26 -209 -240s57 -247 209 -247c47 0 112 9 148 22l29 -118c-54 -15 -136 -25 -200 -25c-221 0 -327 85 -327 369zM444 747l-72 78l-70 -78h-112l122 129h122l126 -129
h-116z" />
    <glyph glyph-name="ccircumflex" unicode="&#x109;" horiz-adv-x="470" 
d="M430 118l28 -106c-40 -16 -107 -26 -155 -26c-155 0 -252 62 -252 271c0 208 98 267 252 267c49 0 117 -10 155 -24l-28 -106c-32 12 -77 22 -118 22c-90 0 -133 -20 -133 -161c0 -135 43 -161 133 -161c43 0 86 11 118 24zM477 568h-117l-71 76l-69 -76h-113l122 129
h122z" />
    <glyph glyph-name="Cdotaccent" unicode="&#x10a;" horiz-adv-x="592" 
d="M53 355c0 285 106 359 327 359c64 0 146 -11 200 -26l-29 -116c-36 13 -101 22 -148 22c-152 0 -209 -26 -209 -240s57 -247 209 -247c47 0 112 9 148 22l29 -118c-54 -15 -136 -25 -200 -25c-221 0 -327 85 -327 369zM375 867c45 0 60 -8 60 -56c0 -52 -15 -61 -60 -61
s-59 9 -59 61c0 48 14 56 59 56z" />
    <glyph glyph-name="cdotaccent" unicode="&#x10b;" horiz-adv-x="470" 
d="M430 118l28 -106c-40 -16 -107 -26 -155 -26c-155 0 -252 62 -252 271c0 208 98 267 252 267c49 0 117 -10 155 -24l-28 -106c-32 12 -77 22 -118 22c-90 0 -133 -20 -133 -161c0 -135 43 -161 133 -161c43 0 86 11 118 24zM294 681c45 0 60 -7 60 -55
c0 -53 -15 -62 -60 -62s-59 9 -59 62c0 48 14 55 59 55z" />
    <glyph glyph-name="Ccaron" unicode="&#x10c;" horiz-adv-x="592" 
d="M53 355c0 285 106 359 327 359c64 0 146 -11 200 -26l-29 -116c-36 13 -101 22 -148 22c-152 0 -209 -26 -209 -240s57 -247 209 -247c47 0 112 9 148 22l29 -118c-54 -15 -136 -25 -200 -25c-221 0 -327 85 -327 369zM292 876l73 -78l70 78h112l-122 -129h-122l-126 129
h115z" />
    <glyph glyph-name="ccaron" unicode="&#x10d;" horiz-adv-x="470" 
d="M430 118l28 -106c-40 -16 -107 -26 -155 -26c-155 0 -252 62 -252 271c0 208 98 267 252 267c49 0 117 -10 155 -24l-28 -106c-32 12 -77 22 -118 22c-90 0 -133 -20 -133 -161c0 -135 43 -161 133 -161c43 0 86 11 118 24zM106 697h117l71 -76l69 76h113l-122 -129h-122
z" />
    <glyph glyph-name="Dcaron" unicode="&#x10e;" horiz-adv-x="736" 
d="M88 697h266c221 0 329 -75 329 -346c0 -270 -108 -351 -329 -351h-266v697zM542 350c0 205 -47 233 -201 233h-121v-469h121c154 0 201 39 201 236zM271 876l73 -78l70 78h112l-122 -129h-122l-126 129h115z" />
    <glyph glyph-name="dcaron" unicode="&#x10f;" 
d="M394 107v263c0 30 -44 49 -100 49c-87 0 -115 -35 -115 -162c0 -139 29 -165 117 -165c34 0 72 6 98 15zM518 722v-699c-55 -22 -149 -37 -222 -37c-168 0 -245 60 -245 269c0 206 85 269 221 269c58 0 95 -14 122 -29v227h124zM574 722h110l-57 -192h-73z" />
    <glyph glyph-name="Dcroat" unicode="&#x110;" horiz-adv-x="736" 
d="M36 311v92h52v294h266c221 0 329 -75 329 -346c0 -270 -108 -351 -329 -351h-266v311h-52zM542 350c0 205 -47 232 -201 232h-121v-179h159v-92h-159v-197h121c154 0 201 39 201 236z" />
    <glyph glyph-name="dcroat" unicode="&#x111;" 
d="M305 577v89h89v56h124v-56h49v-89h-49v-554c-55 -22 -149 -37 -222 -37c-168 0 -245 60 -245 269c0 206 85 269 221 269c58 0 95 -14 122 -29v82h-89zM394 107v263c0 30 -44 49 -100 49c-87 0 -115 -35 -115 -162c0 -139 29 -165 117 -165c34 0 72 6 98 15z" />
    <glyph glyph-name="Emacron" unicode="&#x112;" horiz-adv-x="620" 
d="M88 697h506v-114h-374v-161h267v-113h-267v-195h374v-114h-506v697zM203 753v92h278v-92h-278z" />
    <glyph glyph-name="emacron" unicode="&#x113;" horiz-adv-x="552" 
d="M456 112l20 -98c-51 -17 -126 -28 -178 -28c-147 0 -247 62 -247 271c0 204 89 267 237 267c161 0 231 -55 222 -302h-329c1 -109 43 -131 132 -131c36 0 103 9 143 21zM295 426c-78 0 -105 -25 -113 -109h214c-4 90 -30 109 -101 109zM156 576v90h278v-90h-278z" />
    <glyph glyph-name="Ebreve" unicode="&#x114;" horiz-adv-x="620" 
d="M88 697h506v-114h-374v-161h267v-113h-267v-195h374v-114h-506v697zM202 871h85c0 -47 22 -58 66 -58c43 0 67 11 67 58h80c0 -95 -53 -137 -150 -137c-94 0 -148 42 -148 137z" />
    <glyph glyph-name="ebreve" unicode="&#x115;" horiz-adv-x="552" 
d="M456 112l20 -98c-51 -17 -126 -28 -178 -28c-147 0 -247 62 -247 271c0 204 89 267 237 267c161 0 231 -55 222 -302h-329c1 -109 43 -131 132 -131c36 0 103 9 143 21zM295 426c-78 0 -105 -25 -113 -109h214c-4 90 -30 109 -101 109zM141 697h85c0 -47 22 -58 66 -58
c43 0 67 11 67 58h80c0 -95 -53 -137 -150 -137c-94 0 -148 42 -148 137z" />
    <glyph glyph-name="Edotaccent" unicode="&#x116;" horiz-adv-x="620" 
d="M88 697h506v-114h-374v-161h267v-113h-267v-195h374v-114h-506v697zM362 867c45 0 60 -8 60 -56c0 -52 -15 -61 -60 -61s-59 9 -59 61c0 48 14 56 59 56z" />
    <glyph glyph-name="edotaccent" unicode="&#x117;" horiz-adv-x="552" 
d="M456 112l20 -98c-51 -17 -126 -28 -178 -28c-147 0 -247 62 -247 271c0 204 89 267 237 267c161 0 231 -55 222 -302h-329c1 -109 43 -131 132 -131c36 0 103 9 143 21zM295 426c-78 0 -105 -25 -113 -109h214c-4 90 -30 109 -101 109zM291 681c45 0 60 -7 60 -55
c0 -53 -15 -62 -60 -62s-59 9 -59 62c0 48 14 55 59 55z" />
    <glyph glyph-name="Eogonek" unicode="&#x118;" horiz-adv-x="620" 
d="M88 697h506v-114h-374v-161h267v-113h-267v-195h374v-114h-48c-53 -35 -64 -58 -64 -92c0 -28 11 -40 60 -40c32 0 64 11 83 27l35 -63c-32 -24 -87 -35 -131 -35c-102 0 -132 30 -132 89c0 46 30 88 94 114h-403v697z" />
    <glyph glyph-name="eogonek" unicode="&#x119;" horiz-adv-x="552" 
d="M456 112l20 -98c-13 -5 -28 -9 -43 -12c-56 -36 -68 -59 -68 -94c0 -28 11 -40 60 -40c32 0 64 11 83 27l35 -63c-32 -24 -87 -35 -131 -35c-102 0 -132 30 -132 89c0 40 23 77 71 103c-19 -2 -37 -3 -53 -3c-147 0 -247 62 -247 271c0 204 89 267 237 267
c161 0 231 -55 222 -302h-329c1 -109 43 -131 132 -131c36 0 103 9 143 21zM295 426c-78 0 -105 -25 -113 -109h214c-4 90 -30 109 -101 109z" />
    <glyph glyph-name="Ecaron" unicode="&#x11a;" horiz-adv-x="620" 
d="M88 697h506v-114h-374v-161h267v-113h-267v-195h374v-114h-506v697zM280 876l73 -78l70 78h112l-122 -129h-122l-126 129h115z" />
    <glyph glyph-name="ecaron" unicode="&#x11b;" horiz-adv-x="552" 
d="M456 112l20 -98c-51 -17 -126 -28 -178 -28c-147 0 -247 62 -247 271c0 204 89 267 237 267c161 0 231 -55 222 -302h-329c1 -109 43 -131 132 -131c36 0 103 9 143 21zM295 426c-78 0 -105 -25 -113 -109h214c-4 90 -30 109 -101 109zM105 697h117l71 -76l69 76h113
l-122 -129h-122z" />
    <glyph glyph-name="Gcircumflex" unicode="&#x11c;" horiz-adv-x="700" 
d="M493 116v180h-152v111h287v-391c-57 -18 -167 -30 -248 -30c-221 0 -327 85 -327 369c0 285 119 359 346 359c63 0 156 -11 210 -26l-27 -115c-37 13 -126 21 -173 21c-158 0 -215 -26 -215 -240s57 -248 209 -248c33 0 69 5 90 10zM453 747l-72 78l-70 -78h-112l122 129
h122l126 -129h-116z" />
    <glyph glyph-name="gcircumflex" unicode="&#x11d;" 
d="M394 143v262c-29 11 -67 17 -98 17c-88 0 -117 -23 -117 -168c0 -127 27 -159 114 -159c55 0 101 17 101 48zM394 21c-28 -17 -71 -33 -129 -33c-140 0 -214 58 -214 265c0 208 77 271 245 271c73 0 167 -15 222 -38v-447c0 -199 -111 -243 -272 -243
c-58 0 -135 13 -179 30l25 100c47 -15 105 -25 153 -25c94 0 149 26 149 120zM487 568h-117l-71 76l-69 -76h-113l122 129h122z" />
    <glyph glyph-name="Gbreve" unicode="&#x11e;" horiz-adv-x="700" 
d="M493 116v180h-152v111h287v-391c-57 -18 -167 -30 -248 -30c-221 0 -327 85 -327 369c0 285 119 359 346 359c63 0 156 -11 210 -26l-27 -115c-37 13 -126 21 -173 21c-158 0 -215 -26 -215 -240s57 -248 209 -248c33 0 69 5 90 10zM231 871h85c0 -47 22 -58 66 -58
c43 0 67 11 67 58h80c0 -95 -53 -137 -150 -137c-94 0 -148 42 -148 137z" />
    <glyph glyph-name="gbreve" unicode="&#x11f;" 
d="M394 143v262c-29 11 -67 17 -98 17c-88 0 -117 -23 -117 -168c0 -127 27 -159 114 -159c55 0 101 17 101 48zM394 21c-28 -17 -71 -33 -129 -33c-140 0 -214 58 -214 265c0 208 77 271 245 271c73 0 167 -15 222 -38v-447c0 -199 -111 -243 -272 -243
c-58 0 -135 13 -179 30l25 100c47 -15 105 -25 153 -25c94 0 149 26 149 120zM151 697h85c0 -47 22 -58 66 -58c43 0 67 11 67 58h80c0 -95 -53 -137 -150 -137c-94 0 -148 42 -148 137z" />
    <glyph glyph-name="Gdotaccent" unicode="&#x120;" horiz-adv-x="700" 
d="M493 116v180h-152v111h287v-391c-57 -18 -167 -30 -248 -30c-221 0 -327 85 -327 369c0 285 119 359 346 359c63 0 156 -11 210 -26l-27 -115c-37 13 -126 21 -173 21c-158 0 -215 -26 -215 -240s57 -248 209 -248c33 0 69 5 90 10zM391 867c45 0 60 -8 60 -56
c0 -52 -15 -61 -60 -61s-59 9 -59 61c0 48 14 56 59 56z" />
    <glyph glyph-name="gdotaccent" unicode="&#x121;" 
d="M394 143v262c-29 11 -67 17 -98 17c-88 0 -117 -23 -117 -168c0 -127 27 -159 114 -159c55 0 101 17 101 48zM394 21c-28 -17 -71 -33 -129 -33c-140 0 -214 58 -214 265c0 208 77 271 245 271c73 0 167 -15 222 -38v-447c0 -199 -111 -243 -272 -243
c-58 0 -135 13 -179 30l25 100c47 -15 105 -25 153 -25c94 0 149 26 149 120zM294 681c45 0 60 -7 60 -55c0 -53 -15 -62 -60 -62s-59 9 -59 62c0 48 14 55 59 55z" />
    <glyph glyph-name="Gcommaaccent" unicode="&#x122;" horiz-adv-x="700" 
d="M493 116v180h-152v111h287v-391c-57 -18 -167 -30 -248 -30c-221 0 -327 85 -327 369c0 285 119 359 346 359c63 0 156 -11 210 -26l-27 -115c-37 13 -126 21 -173 21c-158 0 -215 -26 -215 -240s57 -248 209 -248c33 0 69 5 90 10zM473 -51l-108 -167h-97l71 167h134z
" />
    <glyph glyph-name="gcommaaccent" unicode="&#x123;" 
d="M394 143v262c-29 11 -67 17 -98 17c-88 0 -117 -23 -117 -168c0 -127 27 -159 114 -159c55 0 101 17 101 48zM394 21c-28 -17 -71 -33 -129 -33c-140 0 -214 58 -214 265c0 208 77 271 245 271c73 0 167 -15 222 -38v-447c0 -199 -111 -243 -272 -243
c-58 0 -135 13 -179 30l25 100c47 -15 105 -25 153 -25c94 0 149 26 149 120zM427 751l-108 -167h-97l71 167h134z" />
    <glyph glyph-name="Hcircumflex" unicode="&#x124;" horiz-adv-x="736" 
d="M220 309v-309h-132v697h132v-266h298v266h130v-697h-130v309h-298zM434 747l-72 78l-70 -78h-112l122 129h122l126 -129h-116z" />
    <glyph glyph-name="hcircumflex" unicode="&#x125;" horiz-adv-x="583" 
d="M333 524c119 0 184 -41 184 -231v-293h-124v283c0 84 -22 129 -102 129c-51 0 -98 -15 -98 -45v-367h-124v722h124v-233c33 17 88 35 140 35zM274 747l-72 78l-70 -78h-112l122 129h122l126 -129h-116z" />
    <glyph glyph-name="Hbar" unicode="&#x126;" horiz-adv-x="736" 
d="M29 520v105h59v72h132v-72h298v72h130v-72h60v-105h-60v-520h-130v309h-298v-309h-132v520h-59zM220 431h298v89h-298v-89z" />
    <glyph glyph-name="hbar" unicode="&#x127;" horiz-adv-x="583" 
d="M18 581v87h51v54h124v-54h103v-87h-103v-92c33 17 88 35 140 35c119 0 184 -41 184 -231v-293h-124v283c0 108 -35 129 -102 129c-51 0 -98 -15 -98 -45v-367h-124v581h-51z" />
    <glyph glyph-name="Itilde" unicode="&#x128;" horiz-adv-x="308" 
d="M88 697h132v-697h-132v697zM278 879l61 -50c-19 -52 -61 -93 -120 -93s-96 54 -143 54c-20 0 -36 -12 -51 -50l-56 55c27 47 58 79 107 79c68 0 102 -52 148 -52c23 0 38 13 54 57z" />
    <glyph glyph-name="itilde" unicode="&#x129;" horiz-adv-x="262" 
d="M193 509v-509h-124v509h124zM252 702l62 -50c-19 -54 -57 -93 -117 -93s-92 53 -141 53c-20 0 -36 -12 -52 -51l-56 55c28 49 59 81 109 81c68 0 95 -53 142 -53c24 0 37 13 53 58z" />
    <glyph glyph-name="Imacron" unicode="&#x12a;" horiz-adv-x="308" 
d="M88 697h132v-697h-132v697zM16 753v92h278v-92h-278z" />
    <glyph glyph-name="imacron" unicode="&#x12b;" horiz-adv-x="262" 
d="M193 509v-509h-124v509h124zM-7 576v90h278v-90h-278z" />
    <glyph glyph-name="Ibreve" unicode="&#x12c;" horiz-adv-x="308" 
d="M88 697h132v-697h-132v697zM7 871h85c0 -47 22 -58 66 -58c43 0 67 11 67 58h80c0 -95 -53 -137 -150 -137c-94 0 -148 42 -148 137z" />
    <glyph glyph-name="ibreve" unicode="&#x12d;" horiz-adv-x="262" 
d="M193 509v-509h-124v509h124zM-17 697h85c0 -47 22 -58 66 -58c43 0 67 11 67 58h80c0 -95 -53 -137 -150 -137c-94 0 -148 42 -148 137z" />
    <glyph glyph-name="Iogonek" unicode="&#x12e;" horiz-adv-x="308" 
d="M88 697h132v-697h-48c-53 -35 -64 -58 -64 -92c0 -28 11 -40 60 -40c32 0 64 11 83 27l35 -63c-32 -24 -87 -35 -131 -35c-102 0 -132 30 -132 89c0 46 30 88 94 114h-29v697z" />
    <glyph glyph-name="iogonek" unicode="&#x12f;" horiz-adv-x="262" 
d="M193 509v-509h-35c-53 -35 -64 -58 -64 -92c0 -28 11 -40 60 -40c32 0 64 11 83 27l35 -63c-32 -24 -87 -35 -131 -35c-102 0 -132 30 -132 89c0 46 30 88 94 114h-34v509h124zM132 721c54 0 71 -8 71 -61c0 -59 -17 -69 -71 -69c-55 0 -72 10 -72 69c0 53 17 61 72 61z
" />
    <glyph glyph-name="Idotaccent" unicode="&#x130;" horiz-adv-x="308" 
d="M88 697h132v-697h-132v697zM153 867c45 0 60 -8 60 -56c0 -52 -15 -61 -60 -61s-59 9 -59 61c0 48 14 56 59 56z" />
    <glyph glyph-name="dotlessi" unicode="&#x131;" horiz-adv-x="262" 
d="M193 509v-509h-124v509h124z" />
    <glyph glyph-name="IJ" unicode="&#x132;" horiz-adv-x="768" 
d="M88 697h132v-697h-132v697zM682 697v-505c0 -166 -106 -206 -211 -206c-57 0 -115 11 -158 27l26 118c32 -13 77 -21 119 -21c50 0 91 20 91 99v488h133z" />
    <glyph glyph-name="ij" unicode="&#x133;" horiz-adv-x="524" 
d="M193 509v-509h-124v509h124zM132 721c54 0 71 -8 71 -61c0 -59 -17 -69 -71 -69c-55 0 -72 10 -72 69c0 53 17 61 72 61zM392 721c54 0 72 -8 72 -61c0 -59 -18 -69 -72 -69s-72 10 -72 69c0 53 18 61 72 61zM244 -203v103c57 0 86 18 86 86v523h124v-520
c0 -151 -70 -192 -210 -192z" />
    <glyph glyph-name="Jcircumflex" unicode="&#x134;" horiz-adv-x="461" 
d="M375 697l1 -505c0 -166 -106 -206 -212 -206c-57 0 -114 11 -158 27l26 118c33 -13 77 -21 119 -21c50 0 91 20 91 99v488h133zM376 747l-72 78l-70 -78h-112l122 129h122l126 -129h-116z" />
    <glyph glyph-name="jcircumflex" unicode="&#x135;" horiz-adv-x="262" 
d="M316 568h-117l-71 76l-69 -76h-113l122 129h122zM193 509v-519c0 -151 -70 -193 -209 -193v103c56 0 85 19 85 87v522h124z" />
    <glyph glyph-name="Kcommaaccent" unicode="&#x136;" horiz-adv-x="662" 
d="M220 697v-697h-132v697h132zM675 0h-162c-140 231 -252 352 -292 368c43 31 150 149 272 329h160c-128 -180 -228 -291 -263 -320c34 -23 146 -146 285 -377zM418 -51l-108 -167h-97l71 167h134z" />
    <glyph glyph-name="kcommaaccent" unicode="&#x137;" horiz-adv-x="551" 
d="M552 0h-146c-115 167 -185 257 -213 269v-269h-124v722h124v-453c28 23 97 105 197 240h147c-98 -132 -168 -210 -195 -231c26 -16 102 -109 210 -278zM364 -51l-108 -167h-97l71 167h134z" />
    <glyph glyph-name="Lacute" unicode="&#x139;" horiz-adv-x="551" 
d="M88 697h132v-582h329v-115h-461v697zM207 747h-108l129 129h137z" />
    <glyph glyph-name="lacute" unicode="&#x13a;" horiz-adv-x="268" 
d="M193 722v-579c0 -49 11 -83 39 -120l-109 -47c-35 40 -54 88 -54 162v584h124zM166 747h-108l129 129h137z" />
    <glyph glyph-name="Lcommaaccent" unicode="&#x13b;" horiz-adv-x="551" 
d="M88 697h132v-582h329v-115h-461v697zM395 -51l-108 -167h-97l71 167h134z" />
    <glyph glyph-name="lcommaaccent" unicode="&#x13c;" horiz-adv-x="268" 
d="M193 722v-579c0 -49 11 -83 39 -120l-109 -47c-35 40 -54 88 -54 162v584h124zM242 -51l-108 -167h-97l71 167h134z" />
    <glyph glyph-name="Lcaron" unicode="&#x13d;" horiz-adv-x="551" 
d="M88 697h132v-582h329v-115h-461v697zM317 722h110l-57 -192h-73z" />
    <glyph glyph-name="lcaron" unicode="&#x13e;" horiz-adv-x="268" 
d="M193 722v-579c0 -49 11 -83 39 -120l-109 -47c-35 40 -54 88 -54 162v584h124zM256 722h110l-57 -192h-73z" />
    <glyph glyph-name="Ldot" unicode="&#x13f;" horiz-adv-x="551" 
d="M88 697h132v-582h329v-115h-461v697zM354 463c45 0 60 -8 60 -56c0 -52 -15 -61 -60 -61s-59 9 -59 61c0 48 14 56 59 56z" />
    <glyph glyph-name="ldot" unicode="&#x140;" horiz-adv-x="268" 
d="M193 722v-579c0 -49 11 -83 39 -120l-109 -47c-35 40 -54 88 -54 162v584h124zM282 460c45 0 60 -7 60 -55c0 -53 -15 -62 -60 -62s-59 9 -59 62c0 48 14 55 59 55z" />
    <glyph glyph-name="Lslash" unicode="&#x141;" horiz-adv-x="551" 
d="M376 557v-124l-156 -135v-183h329v-115h-461v189l-67 -58v123l67 58v385h132v-276z" />
    <glyph glyph-name="lslash" unicode="&#x142;" horiz-adv-x="288" 
d="M203 722v-228l69 75v-124l-69 -75v-227c0 -8 1 -16 2 -24c2 -39 12 -65 37 -96l-109 -46c-32 34 -49 72 -52 135c-1 19 -2 38 -2 58v67l-64 -69v123l64 69v362h124z" />
    <glyph glyph-name="Nacute" unicode="&#x143;" horiz-adv-x="774" 
d="M685 697v-697h-161c-94 174 -198 352 -307 525v-525h-129v697h173c101 -159 202 -333 293 -503v503h131zM406 747h-108l129 129h137z" />
    <glyph glyph-name="nacute" unicode="&#x144;" horiz-adv-x="583" 
d="M193 400v-400h-124v480c62 24 160 44 241 44c143 0 207 -57 207 -240v-284h-124v271c0 113 -21 141 -109 141c-32 0 -61 -4 -91 -12zM291 568h-109l121 129h133z" />
    <glyph glyph-name="Ncommaaccent" unicode="&#x145;" horiz-adv-x="774" 
d="M685 697v-697h-161c-94 174 -198 352 -307 525v-525h-129v697h173c101 -159 202 -333 293 -503v503h131zM460 -51l-108 -167h-97l71 167h134z" />
    <glyph glyph-name="ncommaaccent" unicode="&#x146;" horiz-adv-x="583" 
d="M193 400v-400h-124v480c62 24 160 44 241 44c143 0 207 -57 207 -240v-284h-124v271c0 113 -21 141 -109 141c-32 0 -61 -4 -91 -12zM364 -51l-108 -167h-97l71 167h134z" />
    <glyph glyph-name="Ncaron" unicode="&#x147;" horiz-adv-x="774" 
d="M685 697v-697h-161c-94 174 -198 352 -307 525v-525h-129v697h173c101 -159 202 -333 293 -503v503h131zM328 876l73 -78l70 78h112l-122 -129h-122l-126 129h115z" />
    <glyph glyph-name="ncaron" unicode="&#x148;" horiz-adv-x="583" 
d="M193 400v-400h-124v480c62 24 160 44 241 44c143 0 207 -57 207 -240v-284h-124v271c0 113 -21 141 -109 141c-32 0 -61 -4 -91 -12zM104 697h117l71 -76l69 76h113l-122 -129h-122z" />
    <glyph glyph-name="Omacron" unicode="&#x14c;" horiz-adv-x="770" 
d="M385 714c221 0 331 -76 331 -359c0 -288 -110 -369 -331 -369c-222 0 -332 81 -332 369c0 283 111 359 332 359zM385 105c153 0 191 38 191 248c0 211 -38 242 -191 242s-191 -31 -191 -242c0 -210 38 -248 191 -248zM246 753v92h278v-92h-278z" />
    <glyph glyph-name="omacron" unicode="&#x14d;" 
d="M293 -14c-162 0 -242 62 -242 271c0 208 81 267 242 267c163 0 244 -59 244 -267c0 -209 -80 -271 -244 -271zM293 424c-87 0 -114 -23 -114 -169c0 -141 27 -169 114 -169c89 0 116 28 116 169c0 146 -27 169 -116 169zM154 576v90h278v-90h-278z" />
    <glyph glyph-name="Obreve" unicode="&#x14e;" horiz-adv-x="770" 
d="M385 714c221 0 331 -76 331 -359c0 -288 -110 -369 -331 -369c-222 0 -332 81 -332 369c0 283 111 359 332 359zM385 105c153 0 191 38 191 248c0 211 -38 242 -191 242s-191 -31 -191 -242c0 -210 38 -248 191 -248zM236 871h85c0 -47 22 -58 66 -58c43 0 67 11 67 58
h80c0 -95 -53 -137 -150 -137c-94 0 -148 42 -148 137z" />
    <glyph glyph-name="obreve" unicode="&#x14f;" 
d="M293 -14c-162 0 -242 62 -242 271c0 208 81 267 242 267c163 0 244 -59 244 -267c0 -209 -80 -271 -244 -271zM293 424c-87 0 -114 -23 -114 -169c0 -141 27 -169 114 -169c89 0 116 28 116 169c0 146 -27 169 -116 169zM144 697h85c0 -47 22 -58 66 -58
c43 0 67 11 67 58h80c0 -95 -53 -137 -150 -137c-94 0 -148 42 -148 137z" />
    <glyph glyph-name="Ohungarumlaut" unicode="&#x150;" horiz-adv-x="770" 
d="M385 714c221 0 331 -76 331 -359c0 -288 -110 -369 -331 -369c-222 0 -332 81 -332 369c0 283 111 359 332 359zM385 105c153 0 191 38 191 248c0 211 -38 242 -191 242s-191 -31 -191 -242c0 -210 38 -248 191 -248zM310 747h-85l91 129h109zM475 747h-86l91 129h109z
" />
    <glyph glyph-name="ohungarumlaut" unicode="&#x151;" 
d="M293 -14c-162 0 -242 62 -242 271c0 208 81 267 242 267c163 0 244 -59 244 -267c0 -209 -80 -271 -244 -271zM293 424c-87 0 -114 -23 -114 -169c0 -141 27 -169 114 -169c89 0 116 28 116 169c0 146 -27 169 -116 169zM221 568h-85l91 129h109zM386 568h-86l91 129h109
z" />
    <glyph glyph-name="OE" unicode="&#x152;" horiz-adv-x="1098" 
d="M532 697h540v-114h-403c25 -37 40 -90 45 -161h206v-112h-206c-2 -91 -19 -154 -50 -196h408v-114h-554c-38 -10 -83 -14 -133 -14c-222 0 -332 81 -332 369c0 283 111 359 332 359c56 0 105 -5 147 -17zM385 105c153 0 191 38 191 248c0 211 -38 242 -191 242
s-191 -31 -191 -242c0 -210 38 -248 191 -248z" />
    <glyph glyph-name="oe" unicode="&#x153;" horiz-adv-x="907" 
d="M810 112l21 -98c-52 -17 -126 -28 -179 -28c-81 0 -140 18 -178 69c-35 -51 -93 -69 -181 -69c-162 0 -242 62 -242 271c0 208 81 267 242 267c85 0 143 -17 179 -65c35 45 90 65 170 65c161 0 232 -55 222 -302h-329c2 -109 44 -131 132 -131c37 0 104 9 143 21z
M293 424c-87 0 -114 -23 -114 -169c0 -141 27 -169 114 -169c89 0 116 28 116 169c0 146 -27 169 -116 169zM650 426c-75 0 -105 -22 -114 -109h214c-3 90 -29 109 -100 109z" />
    <glyph glyph-name="Racute" unicode="&#x154;" horiz-adv-x="706" 
d="M220 585v-210h197c51 0 81 34 81 102c0 73 -29 108 -78 108h-200zM462 303c48 -17 111 -99 233 -303h-163c-109 191 -174 266 -219 266h-93v-266h-132v697h363c147 0 194 -91 194 -203c0 -100 -44 -186 -183 -191zM343 747h-108l129 129h137z" />
    <glyph glyph-name="racute" unicode="&#x155;" horiz-adv-x="379" 
d="M69 0v509h124v-38c18 28 57 53 130 53c17 0 34 -1 52 -3v-118c-18 4 -43 7 -65 7c-62 0 -117 -20 -117 -57v-353h-124zM255 568h-109l121 129h133z" />
    <glyph glyph-name="Rcommaaccent" unicode="&#x156;" horiz-adv-x="706" 
d="M220 585v-210h197c51 0 81 34 81 102c0 73 -29 108 -78 108h-200zM462 303c48 -17 111 -99 233 -303h-163c-109 191 -174 266 -219 266h-93v-266h-132v697h363c147 0 194 -91 194 -203c0 -100 -44 -186 -183 -191zM437 -51l-108 -167h-97l71 167h134z" />
    <glyph glyph-name="rcommaaccent" unicode="&#x157;" horiz-adv-x="379" 
d="M69 0v509h124v-38c18 28 57 53 130 53c17 0 34 -1 52 -3v-118c-18 4 -43 7 -65 7c-62 0 -117 -20 -117 -57v-353h-124zM224 -51l-108 -167h-97l71 167h134z" />
    <glyph glyph-name="Rcaron" unicode="&#x158;" horiz-adv-x="706" 
d="M220 585v-210h197c51 0 81 34 81 102c0 73 -29 108 -78 108h-200zM462 303c48 -17 111 -99 233 -303h-163c-109 191 -174 266 -219 266h-93v-266h-132v697h363c147 0 194 -91 194 -203c0 -100 -44 -186 -183 -191zM275 876l73 -78l70 78h112l-122 -129h-122l-126 129h115
z" />
    <glyph glyph-name="rcaron" unicode="&#x159;" horiz-adv-x="379" 
d="M69 0v509h124v-38c18 28 57 53 130 53c17 0 34 -1 52 -3v-118c-18 4 -43 7 -65 7c-62 0 -117 -20 -117 -57v-353h-124zM45 697h117l71 -76l69 76h113l-122 -129h-122z" />
    <glyph glyph-name="Sacute" unicode="&#x15a;" horiz-adv-x="622" 
d="M559 683l-29 -114c-39 14 -114 25 -184 25c-111 0 -157 -23 -157 -91c0 -53 26 -77 153 -89c162 -17 234 -77 234 -209c0 -164 -100 -219 -301 -219c-77 0 -161 12 -217 31l29 114c44 -14 118 -25 186 -25c111 0 161 20 161 92c0 52 -25 85 -159 97
c-154 15 -226 63 -226 192c0 164 102 227 297 227c76 0 158 -13 213 -31zM321 747h-108l129 129h137z" />
    <glyph glyph-name="sacute" unicode="&#x15b;" horiz-adv-x="491" 
d="M434 496l-27 -97c-40 13 -97 24 -148 24c-61 0 -92 -6 -92 -59c0 -35 22 -47 105 -55c123 -13 177 -51 177 -153c0 -132 -88 -170 -218 -170c-54 0 -134 10 -182 27l26 98c37 -13 100 -24 151 -24c68 0 100 9 100 62c0 36 -20 53 -109 61c-112 9 -172 40 -172 145
c0 132 89 169 218 169c53 0 120 -11 171 -28zM257 568h-109l121 129h133z" />
    <glyph glyph-name="Scircumflex" unicode="&#x15c;" horiz-adv-x="622" 
d="M559 683l-29 -114c-39 14 -114 25 -184 25c-111 0 -157 -23 -157 -91c0 -53 26 -77 153 -89c162 -17 234 -77 234 -209c0 -164 -100 -219 -301 -219c-77 0 -161 12 -217 31l29 114c44 -14 118 -25 186 -25c111 0 161 20 161 92c0 52 -25 85 -159 97
c-154 15 -226 63 -226 192c0 164 102 227 297 227c76 0 158 -13 213 -31zM398 747l-72 78l-70 -78h-112l122 129h122l126 -129h-116z" />
    <glyph glyph-name="scircumflex" unicode="&#x15d;" horiz-adv-x="491" 
d="M434 496l-27 -97c-40 13 -97 24 -148 24c-61 0 -92 -6 -92 -59c0 -35 22 -47 105 -55c123 -13 177 -51 177 -153c0 -132 -88 -170 -218 -170c-54 0 -134 10 -182 27l26 98c37 -13 100 -24 151 -24c68 0 100 9 100 62c0 36 -20 53 -109 61c-112 9 -172 40 -172 145
c0 132 89 169 218 169c53 0 120 -11 171 -28zM443 568h-117l-71 76l-69 -76h-113l122 129h122z" />
    <glyph glyph-name="Scedilla" unicode="&#x15e;" horiz-adv-x="622" 
d="M559 683l-29 -114c-39 14 -114 25 -184 25c-111 0 -157 -23 -157 -91c0 -53 26 -77 153 -89c162 -17 234 -77 234 -209c0 -149 -82 -207 -247 -217v-30c78 0 110 -19 110 -78c0 -63 -37 -83 -137 -83c-47 0 -73 5 -98 16l22 54c16 -8 43 -12 71 -12c31 0 41 6 41 26
c0 25 -22 30 -94 26l30 79c-77 0 -160 12 -216 31l29 114c44 -14 118 -25 186 -25c111 0 161 20 161 92c0 52 -25 85 -159 97c-154 15 -226 63 -226 192c0 164 102 227 297 227c76 0 158 -13 213 -31z" />
    <glyph glyph-name="Scedilla" unicode="&#xf6c1;" horiz-adv-x="622" 
d="M559 683l-29 -114c-39 14 -114 25 -184 25c-111 0 -157 -23 -157 -91c0 -53 26 -77 153 -89c162 -17 234 -77 234 -209c0 -149 -82 -207 -247 -217v-30c78 0 110 -19 110 -78c0 -63 -37 -83 -137 -83c-47 0 -73 5 -98 16l22 54c16 -8 43 -12 71 -12c31 0 41 6 41 26
c0 25 -22 30 -94 26l30 79c-77 0 -160 12 -216 31l29 114c44 -14 118 -25 186 -25c111 0 161 20 161 92c0 52 -25 85 -159 97c-154 15 -226 63 -226 192c0 164 102 227 297 227c76 0 158 -13 213 -31z" />
    <glyph glyph-name="scedilla" unicode="&#x15f;" horiz-adv-x="491" 
d="M434 496l-27 -97c-40 13 -97 24 -148 24c-61 0 -92 -6 -92 -59c0 -35 22 -47 105 -55c123 -13 177 -51 177 -153c0 -122 -75 -163 -188 -169v-29c78 0 110 -19 110 -78c0 -63 -37 -83 -137 -83c-47 0 -73 5 -98 16l22 54c16 -8 43 -12 71 -12c31 0 41 6 41 26
c0 25 -22 30 -94 26l30 80c-51 2 -116 12 -157 26l26 98c37 -13 100 -24 151 -24c68 0 100 9 100 62c0 36 -20 53 -109 61c-112 9 -172 40 -172 145c0 132 89 169 218 169c53 0 120 -11 171 -28z" />
    <glyph glyph-name="scedilla" unicode="&#xf6c2;" horiz-adv-x="491" 
d="M434 496l-27 -97c-40 13 -97 24 -148 24c-61 0 -92 -6 -92 -59c0 -35 22 -47 105 -55c123 -13 177 -51 177 -153c0 -122 -75 -163 -188 -169v-29c78 0 110 -19 110 -78c0 -63 -37 -83 -137 -83c-47 0 -73 5 -98 16l22 54c16 -8 43 -12 71 -12c31 0 41 6 41 26
c0 25 -22 30 -94 26l30 80c-51 2 -116 12 -157 26l26 98c37 -13 100 -24 151 -24c68 0 100 9 100 62c0 36 -20 53 -109 61c-112 9 -172 40 -172 145c0 132 89 169 218 169c53 0 120 -11 171 -28z" />
    <glyph glyph-name="Scaron" unicode="&#x160;" horiz-adv-x="622" 
d="M559 683l-29 -114c-39 14 -114 25 -184 25c-111 0 -157 -23 -157 -91c0 -53 26 -77 153 -89c162 -17 234 -77 234 -209c0 -164 -100 -219 -301 -219c-77 0 -161 12 -217 31l29 114c44 -14 118 -25 186 -25c111 0 161 20 161 92c0 52 -25 85 -159 97
c-154 15 -226 63 -226 192c0 164 102 227 297 227c76 0 158 -13 213 -31zM250 876l73 -78l70 78h112l-122 -129h-122l-126 129h115z" />
    <glyph glyph-name="scaron" unicode="&#x161;" horiz-adv-x="491" 
d="M434 496l-27 -97c-40 13 -97 24 -148 24c-61 0 -92 -6 -92 -59c0 -35 22 -47 105 -55c123 -13 177 -51 177 -153c0 -132 -88 -170 -218 -170c-54 0 -134 10 -182 27l26 98c37 -13 100 -24 151 -24c68 0 100 9 100 62c0 36 -20 53 -109 61c-112 9 -172 40 -172 145
c0 132 89 169 218 169c53 0 120 -11 171 -28zM66 697h117l71 -76l69 76h113l-122 -129h-122z" />
    <glyph glyph-name="Tcommaaccent" unicode="&#x162;" horiz-adv-x="609" 
d="M371 0h-133v583h-235v114h603v-114h-235v-583zM397 -51l-108 -167h-97l71 167h134z" />
    <glyph glyph-name="Tcommaaccent" unicode="&#x21a;" horiz-adv-x="609" 
d="M371 0h-133v583h-235v114h603v-114h-235v-583zM397 -51l-108 -167h-97l71 167h134z" />
    <glyph glyph-name="tcommaaccent" unicode="&#x163;" horiz-adv-x="415" 
d="M388 401h-169v-219c0 -63 17 -89 77 -89c33 0 62 6 87 14l22 -98c-36 -13 -91 -23 -140 -23c-114 0 -170 34 -170 185v230h-85v108h85v86l124 51v-137h169v-108zM301 -51l-108 -167h-97l71 167h134z" />
    <glyph glyph-name="tcommaaccent" unicode="&#x21b;" horiz-adv-x="415" 
d="M388 401h-169v-219c0 -63 17 -89 77 -89c33 0 62 6 87 14l22 -98c-36 -13 -91 -23 -140 -23c-114 0 -170 34 -170 185v230h-85v108h85v86l124 51v-137h169v-108zM301 -51l-108 -167h-97l71 167h134z" />
    <glyph glyph-name="Tcaron" unicode="&#x164;" horiz-adv-x="609" 
d="M371 0h-133v583h-235v114h603v-114h-235v-583zM238 876l73 -78l70 78h112l-122 -129h-122l-126 129h115z" />
    <glyph glyph-name="tcaron" unicode="&#x165;" horiz-adv-x="415" 
d="M388 401h-169v-219c0 -63 17 -89 77 -89c33 0 62 6 87 14l22 -98c-36 -13 -91 -23 -140 -23c-114 0 -170 34 -170 185v230h-85v108h85v86l124 51v-137h169v-108zM311 770h110l-57 -192h-73z" />
    <glyph glyph-name="Tbar" unicode="&#x166;" horiz-adv-x="609" 
d="M161 235v92h77v254h-235v116h603v-116h-235v-254h69v-92h-69v-235h-133v235h-77z" />
    <glyph glyph-name="tbar" unicode="&#x167;" horiz-adv-x="415" 
d="M38 217v82h57v103h-85v107h85v86l124 51v-137h169v-107h-169v-103h97v-82h-97v-35c0 -63 19 -89 79 -89c33 0 60 6 85 14l22 -98c-36 -13 -90 -23 -139 -23c-113 0 -171 34 -171 185v46h-57z" />
    <glyph glyph-name="Utilde" unicode="&#x168;" horiz-adv-x="742" 
d="M663 697l1 -486c0 -183 -111 -225 -293 -225s-293 42 -293 225v486h133v-466c0 -93 41 -124 160 -124c113 0 161 26 161 124v466h131zM496 879l61 -50c-19 -52 -61 -93 -120 -93s-96 54 -143 54c-20 0 -36 -12 -51 -50l-56 55c27 47 58 79 107 79c68 0 102 -52 148 -52
c23 0 38 13 54 57z" />
    <glyph glyph-name="utilde" unicode="&#x169;" horiz-adv-x="583" 
d="M390 110v399h124v-480c-63 -24 -160 -44 -241 -44c-143 0 -207 57 -207 240v284h124v-271c0 -113 21 -141 108 -141c33 0 62 4 92 13zM413 702l62 -50c-19 -54 -57 -93 -117 -93s-92 53 -141 53c-20 0 -36 -12 -52 -51l-56 55c28 49 59 81 109 81c68 0 95 -53 142 -53
c24 0 37 13 53 58z" />
    <glyph glyph-name="Umacron" unicode="&#x16a;" horiz-adv-x="742" 
d="M663 697l1 -486c0 -183 -111 -225 -293 -225s-293 42 -293 225v486h133v-466c0 -93 41 -124 160 -124c113 0 161 26 161 124v466h131zM229 753v92h278v-92h-278z" />
    <glyph glyph-name="umacron" unicode="&#x16b;" horiz-adv-x="583" 
d="M390 110v399h124v-480c-63 -24 -160 -44 -241 -44c-143 0 -207 57 -207 240v284h124v-271c0 -113 21 -141 108 -141c33 0 62 4 92 13zM149 576v90h278v-90h-278z" />
    <glyph glyph-name="Ubreve" unicode="&#x16c;" horiz-adv-x="742" 
d="M663 697l1 -486c0 -183 -111 -225 -293 -225s-293 42 -293 225v486h133v-466c0 -93 41 -124 160 -124c113 0 161 26 161 124v466h131zM222 871h85c0 -47 22 -58 66 -58c43 0 67 11 67 58h80c0 -95 -53 -137 -150 -137c-94 0 -148 42 -148 137z" />
    <glyph glyph-name="ubreve" unicode="&#x16d;" horiz-adv-x="583" 
d="M390 110v399h124v-480c-63 -24 -160 -44 -241 -44c-143 0 -207 57 -207 240v284h124v-271c0 -113 21 -141 108 -141c33 0 62 4 92 13zM140 697h85c0 -47 22 -58 66 -58c43 0 67 11 67 58h80c0 -95 -53 -137 -150 -137c-94 0 -148 42 -148 137z" />
    <glyph glyph-name="Uring" unicode="&#x16e;" horiz-adv-x="742" 
d="M663 697l1 -486c0 -183 -111 -225 -293 -225s-293 42 -293 225v486h133v-466c0 -93 41 -124 160 -124c113 0 161 26 161 124v466h131zM369 890c80 0 119 -26 119 -98s-39 -98 -119 -98s-120 26 -120 98s35 98 120 98zM369 834c-41 0 -50 -14 -50 -43s9 -43 50 -43
s50 14 50 43c0 30 -9 43 -50 43z" />
    <glyph glyph-name="uring" unicode="&#x16f;" horiz-adv-x="583" 
d="M390 110v399h124v-480c-63 -24 -160 -44 -241 -44c-143 0 -207 57 -207 240v284h124v-271c0 -113 21 -141 108 -141c33 0 62 4 92 13zM293 741c80 0 119 -26 119 -98c0 -73 -39 -98 -119 -98s-120 25 -120 98c0 72 35 98 120 98zM293 684c-41 0 -50 -13 -50 -43
c0 -29 9 -43 50 -43s50 15 50 43c0 30 -9 43 -50 43z" />
    <glyph glyph-name="Uhungarumlaut" unicode="&#x170;" horiz-adv-x="742" 
d="M663 697l1 -486c0 -183 -111 -225 -293 -225s-293 42 -293 225v486h133v-466c0 -93 41 -124 160 -124c113 0 161 26 161 124v466h131zM295 747h-85l91 129h109zM460 747h-86l91 129h109z" />
    <glyph glyph-name="uhungarumlaut" unicode="&#x171;" horiz-adv-x="583" 
d="M390 110v399h124v-480c-63 -24 -160 -44 -241 -44c-143 0 -207 57 -207 240v284h124v-271c0 -113 21 -141 108 -141c33 0 62 4 92 13zM213 568h-85l91 129h109zM378 568h-86l91 129h109z" />
    <glyph glyph-name="Uogonek" unicode="&#x172;" horiz-adv-x="742" 
d="M663 697l1 -486c0 -164 -89 -214 -237 -223c-38 -28 -47 -50 -47 -80c0 -28 11 -40 60 -40c32 0 64 11 83 27l35 -63c-32 -24 -87 -35 -131 -35c-102 0 -132 30 -132 89c0 38 21 74 66 100c-176 2 -283 45 -283 225v486h133v-466c0 -93 41 -124 160 -124
c113 0 161 26 161 124v466h131z" />
    <glyph glyph-name="uogonek" unicode="&#x173;" horiz-adv-x="583" 
d="M390 110v399h124v-480c-21 -8 -45 -15 -71 -22c-63 -38 -76 -62 -76 -99c0 -28 11 -40 60 -40c32 0 64 11 83 27l35 -63c-32 -24 -87 -35 -131 -35c-102 0 -132 30 -132 89c0 41 24 79 74 105c-28 -4 -57 -6 -83 -6c-143 0 -207 57 -207 240v284h124v-271
c0 -113 21 -141 108 -141c33 0 62 4 92 13z" />
    <glyph glyph-name="Wcircumflex" unicode="&#x174;" horiz-adv-x="975" 
d="M493 478c-30 -146 -81 -325 -128 -478h-167c-55 221 -134 511 -200 697h144c51 -152 107 -351 150 -533c42 139 110 379 140 533h122c42 -150 108 -388 137 -533c57 178 106 361 145 533h136c-51 -208 -132 -489 -202 -697h-168c-30 160 -73 339 -109 478zM562 747
l-72 78l-70 -78h-112l122 129h122l126 -129h-116z" />
    <glyph glyph-name="wcircumflex" unicode="&#x175;" horiz-adv-x="830" 
d="M415 341c-24 -106 -66 -249 -98 -341h-153c-49 177 -105 353 -164 509h131c42 -112 84 -251 116 -382c35 102 89 291 110 382h121c33 -99 79 -273 103 -382c46 127 88 255 118 382h126c-46 -165 -108 -348 -174 -509h-154c-20 103 -58 261 -82 341zM602 568h-117l-71 76
l-69 -76h-113l122 129h122z" />
    <glyph glyph-name="Ycircumflex" unicode="&#x176;" horiz-adv-x="638" 
d="M134 697c59 -74 128 -169 194 -266c70 94 136 189 184 266h160c-80 -120 -181 -263 -281 -396v-301h-132v300c-100 142 -213 295 -297 397h172zM396 747l-72 78l-70 -78h-112l122 129h122l126 -129h-116z" />
    <glyph glyph-name="ycircumflex" unicode="&#x177;" horiz-adv-x="511" 
d="M180 -25c-50 181 -117 382 -180 534h129c45 -112 91 -255 126 -386c48 127 94 260 126 386h126c-51 -174 -119 -356 -193 -530c-24 -57 -53 -121 -79 -171h-138c27 48 58 112 83 167zM442 568h-117l-71 76l-69 -76h-113l122 129h122z" />
    <glyph glyph-name="Ydieresis" unicode="&#x178;" horiz-adv-x="638" 
d="M134 697c59 -74 128 -169 194 -266c70 94 136 189 184 266h160c-80 -120 -181 -263 -281 -396v-301h-132v300c-100 142 -213 295 -297 397h172zM221 864c45 0 59 -8 59 -56c0 -52 -14 -61 -59 -61s-60 9 -60 61c0 48 15 56 60 56zM434 864c45 0 59 -8 59 -56
c0 -52 -14 -61 -59 -61c-46 0 -60 9 -60 61c0 48 14 56 60 56z" />
    <glyph glyph-name="Zacute" unicode="&#x179;" horiz-adv-x="621" 
d="M17 0v32c120 163 284 402 382 551h-360v114h565v-30c-100 -161 -275 -419 -382 -553h375v-114h-580zM325 747h-108l129 129h137z" />
    <glyph glyph-name="zacute" unicode="&#x17a;" horiz-adv-x="497" 
d="M35 509h439v-25c-72 -116 -195 -291 -262 -376h255v-108h-449v25c97 123 216 294 266 376h-249v108zM285 568h-109l121 129h133z" />
    <glyph glyph-name="Zdotaccent" unicode="&#x17b;" horiz-adv-x="621" 
d="M17 0v32c120 163 284 402 382 551h-360v114h565v-30c-100 -161 -275 -419 -382 -553h375v-114h-580zM317 867c45 0 60 -8 60 -56c0 -52 -15 -61 -60 -61s-59 9 -59 61c0 48 14 56 59 56z" />
    <glyph glyph-name="zdotaccent" unicode="&#x17c;" horiz-adv-x="497" 
d="M35 509h439v-25c-72 -116 -195 -291 -262 -376h255v-108h-449v25c97 123 216 294 266 376h-249v108zM253 681c45 0 60 -7 60 -55c0 -53 -15 -62 -60 -62s-59 9 -59 62c0 48 14 55 59 55z" />
    <glyph glyph-name="Zcaron" unicode="&#x17d;" horiz-adv-x="621" 
d="M17 0v32c120 163 284 402 382 551h-360v114h565v-30c-100 -161 -275 -419 -382 -553h375v-114h-580zM256 876l73 -78l70 78h112l-122 -129h-122l-126 129h115z" />
    <glyph glyph-name="zcaron" unicode="&#x17e;" horiz-adv-x="497" 
d="M35 509h439v-25c-72 -116 -195 -291 -262 -376h255v-108h-449v25c97 123 216 294 266 376h-249v108zM67 697h117l71 -76l69 76h113l-122 -129h-122z" />
    <glyph glyph-name="florin" unicode="&#x192;" horiz-adv-x="376" 
d="M251 536v-27h170l-14 -107h-170l-32 -416c-15 -152 -118 -189 -215 -189c-54 0 -105 9 -146 24l36 96c29 -12 70 -20 103 -20c53 0 93 19 98 89l32 416h-90l14 107h90l2 34c9 150 104 181 201 181c50 0 107 -9 143 -22l-40 -98c-23 8 -66 14 -95 14
c-49 0 -83 -17 -87 -82z" />
    <glyph glyph-name="Scommaaccent" unicode="&#x218;" horiz-adv-x="622" 
d="M559 683l-29 -114c-39 14 -114 25 -184 25c-111 0 -157 -23 -157 -91c0 -53 26 -77 153 -89c162 -17 234 -77 234 -209c0 -164 -100 -219 -301 -219c-77 0 -161 12 -217 31l29 114c44 -14 118 -25 186 -25c111 0 161 20 161 92c0 52 -25 85 -159 97
c-154 15 -226 63 -226 192c0 164 102 227 297 227c76 0 158 -13 213 -31zM398 -51l-108 -167h-97l71 167h134z" />
    <glyph glyph-name="scommaaccent" unicode="&#x219;" horiz-adv-x="491" 
d="M434 496l-27 -97c-40 13 -97 24 -148 24c-61 0 -92 -6 -92 -59c0 -35 22 -47 105 -55c123 -13 177 -51 177 -153c0 -132 -88 -170 -218 -170c-54 0 -134 10 -182 27l26 98c37 -13 100 -24 151 -24c68 0 100 9 100 62c0 36 -20 53 -109 61c-112 9 -172 40 -172 145
c0 132 89 169 218 169c53 0 120 -11 171 -28zM330 -51l-108 -167h-97l71 167h134z" />
    <glyph glyph-name="circumflex" unicode="&#x2c6;" horiz-adv-x="660" 
d="M527 568h-117l-71 76l-69 -76h-113l122 129h122z" />
    <glyph glyph-name="caron" unicode="&#x2c7;" horiz-adv-x="654" 
d="M157 697h117l71 -76l69 76h113l-122 -129h-122z" />
    <glyph glyph-name="breve" unicode="&#x2d8;" horiz-adv-x="524" 
d="M94 697h85c0 -47 22 -58 66 -58c43 0 67 11 67 58h80c0 -95 -53 -137 -150 -137c-94 0 -148 42 -148 137z" />
    <glyph glyph-name="dotaccent" unicode="&#x2d9;" horiz-adv-x="462" 
d="M186 681c45 0 60 -7 60 -55c0 -53 -15 -62 -60 -62s-59 9 -59 62c0 48 14 55 59 55z" />
    <glyph glyph-name="ring" unicode="&#x2da;" horiz-adv-x="714" 
d="M360 741c80 0 119 -26 119 -98c0 -73 -39 -98 -119 -98s-120 25 -120 98c0 72 35 98 120 98zM360 684c-41 0 -50 -13 -50 -43c0 -29 9 -43 50 -43s50 15 50 43c0 30 -9 43 -50 43z" />
    <glyph glyph-name="ogonek" unicode="&#x2db;" horiz-adv-x="641" 
d="M443 12h39c-70 -42 -84 -66 -84 -104c0 -28 11 -40 60 -40c32 0 64 11 83 27l35 -63c-32 -24 -87 -35 -131 -35c-102 0 -132 30 -132 89c0 53 41 102 130 126z" />
    <glyph glyph-name="tilde" unicode="&#x2dc;" horiz-adv-x="715" 
d="M446 702l62 -50c-19 -54 -57 -93 -117 -93s-92 53 -141 53c-20 0 -36 -12 -52 -51l-56 55c28 49 59 81 109 81c68 0 95 -53 142 -53c24 0 37 13 53 58z" />
    <glyph glyph-name="hungarumlaut" unicode="&#x2dd;" horiz-adv-x="550" 
d="M248 568h-85l91 129h109zM413 568h-86l91 129h109z" />
    <glyph glyph-name="Delta" unicode="&#x394;" horiz-adv-x="648" 
d="M658 0h-676c64 208 167 489 255 697h169c68 -222 170 -511 252 -697zM313 563c-57 -138 -111 -295 -159 -449h313c-55 143 -113 309 -154 449z" />
    <glyph glyph-name="Delta" unicode="&#x2206;" horiz-adv-x="648" 
d="M658 0h-676c64 208 167 489 255 697h169c68 -222 170 -511 252 -697zM313 563c-57 -138 -111 -295 -159 -449h313c-55 143 -113 309 -154 449z" />
    <glyph glyph-name="Omega" unicode="&#x3a9;" horiz-adv-x="798" 
d="M15 0v118h158c-58 40 -96 148 -96 277c0 245 111 319 322 319s321 -74 321 -319c0 -129 -38 -237 -96 -277h159v-118h-321v112c98 28 119 127 119 281c0 166 -39 202 -182 202s-183 -36 -183 -202c0 -153 21 -252 118 -280v-113h-319z" />
    <glyph glyph-name="Omega" unicode="&#x2126;" horiz-adv-x="798" 
d="M15 0v118h158c-58 40 -96 148 -96 277c0 245 111 319 322 319s321 -74 321 -319c0 -129 -38 -237 -96 -277h159v-118h-321v112c98 28 119 127 119 281c0 166 -39 202 -182 202s-183 -36 -183 -202c0 -153 21 -252 118 -280v-113h-319z" />
    <glyph glyph-name="pi" unicode="&#x3c0;" horiz-adv-x="635" 
d="M25 391v118h585v-118h-82v-391h-124v391h-176v-269c0 -91 -33 -138 -80 -162l-79 84c20 11 35 33 35 76v271h-79z" />
    <glyph glyph-name="afii10023" unicode="&#x401;" horiz-adv-x="620" 
d="M88 697h506v-114h-374v-161h267v-113h-267v-195h374v-114h-506v697zM229 864c45 0 59 -8 59 -56c0 -52 -14 -61 -59 -61s-60 9 -60 61c0 48 15 56 60 56zM442 864c45 0 59 -8 59 -56c0 -52 -14 -61 -59 -61c-46 0 -60 9 -60 61c0 48 14 56 60 56z" />
    <glyph glyph-name="afii10051" unicode="&#x402;" horiz-adv-x="754" 
d="M606 583h-235v-134c32 17 87 35 140 35c125 0 191 -45 191 -286c0 -247 -85 -342 -159 -381l-87 85c60 33 115 81 115 292c0 156 -27 178 -103 178c-49 0 -95 -15 -97 -42v-330h-133v583h-235v114h603v-114z" />
    <glyph glyph-name="afii10052" unicode="&#x403;" horiz-adv-x="551" 
d="M220 0h-132v697h471v-114h-339v-583zM338 747h-109l129 129h137z" />
    <glyph glyph-name="afii10053" unicode="&#x404;" horiz-adv-x="616" 
d="M495 310h-298c8 -173 72 -203 211 -203c47 0 117 9 153 22l29 -118c-54 -15 -141 -25 -205 -25c-221 0 -332 85 -332 369c0 285 111 359 332 359c64 0 151 -11 205 -26l-29 -116c-36 13 -106 22 -153 22c-133 0 -197 -21 -210 -172h297v-112z" />
    <glyph glyph-name="afii10054" unicode="&#x405;" horiz-adv-x="622" 
d="M559 683l-29 -114c-39 14 -114 25 -184 25c-111 0 -157 -23 -157 -91c0 -53 26 -77 153 -89c162 -17 234 -77 234 -209c0 -164 -100 -219 -301 -219c-77 0 -161 12 -217 31l29 114c44 -14 118 -25 186 -25c111 0 161 20 161 92c0 52 -25 85 -159 97
c-154 15 -226 63 -226 192c0 164 102 227 297 227c76 0 158 -13 213 -31z" />
    <glyph glyph-name="afii10055" unicode="&#x406;" horiz-adv-x="308" 
d="M88 697h132v-697h-132v697z" />
    <glyph glyph-name="afii10056" unicode="&#x407;" horiz-adv-x="308" 
d="M88 697h132v-697h-132v697zM47 864c45 0 59 -8 59 -56c0 -52 -14 -61 -59 -61s-60 9 -60 61c0 48 15 56 60 56zM260 864c45 0 59 -8 59 -56c0 -52 -14 -61 -59 -61c-46 0 -60 9 -60 61c0 48 14 56 60 56z" />
    <glyph glyph-name="afii10057" unicode="&#x408;" horiz-adv-x="461" 
d="M375 697l1 -505c0 -166 -106 -206 -212 -206c-57 0 -114 11 -158 27l26 118c33 -13 77 -21 119 -21c50 0 91 20 91 99v488h133z" />
    <glyph glyph-name="afii10058" unicode="&#x409;" horiz-adv-x="1068" 
d="M489 578h-196c-14 -179 -56 -386 -123 -578h-139c68 207 130 443 141 697h449v-250h223c137 0 187 -97 187 -223c0 -141 -56 -224 -181 -224h-361v578zM810 340h-189v-229h192c53 0 75 39 75 113c0 76 -27 116 -78 116z" />
    <glyph glyph-name="afii10059" unicode="&#x40a;" horiz-adv-x="1076" 
d="M220 333v-333h-132v697h132v-253h278v253h131v-254h223c137 0 187 -96 187 -222c0 -141 -56 -221 -181 -221h-360v333h-278zM818 333h-189v-222h192c53 0 75 36 75 110c0 76 -27 112 -78 112z" />
    <glyph glyph-name="afii10060" unicode="&#x40b;" horiz-adv-x="760" 
d="M695 253v-253h-124v243c0 108 -35 129 -103 129c-49 0 -95 -15 -97 -42v-330h-133v583h-235v114h603v-114h-235v-134c32 17 87 35 140 35c119 0 184 -41 184 -231z" />
    <glyph glyph-name="afii10061" unicode="&#x40c;" horiz-adv-x="664" 
d="M670 0h-157c-100 266 -170 320 -293 331v-331h-132v697h132v-336c59 57 171 186 273 336h160c-128 -180 -220 -284 -255 -313c83 -28 153 -73 272 -384zM385 747h-108l129 129h137z" />
    <glyph glyph-name="afii10062" unicode="&#x40e;" horiz-adv-x="584" 
d="M232 176c-54 146 -162 379 -247 521h157c56 -101 126 -249 173 -377c62 126 127 270 164 377h149c-91 -232 -232 -513 -345 -697c-56 0 -111 0 -166 -1c36 48 83 121 115 177zM169 871h85c0 -47 22 -58 67 -58c36 0 68 11 66 58h80c0 -95 -52 -137 -149 -137
c-95 0 -149 42 -149 137z" />
    <glyph glyph-name="afii10145" unicode="&#x40f;" horiz-adv-x="736" 
d="M649 0h-213l-21 -188h-88l-21 188h-217v697h132v-578h298v578h130v-697z" />
    <glyph glyph-name="afii10017" unicode="&#x410;" horiz-adv-x="682" 
d="M555 0c-20 50 -44 110 -67 174h-305l-54 -174h-138c65 208 167 489 252 697h207c71 -224 173 -511 251 -697h-146zM353 585h-27c-35 -90 -72 -193 -108 -298h232c-36 103 -70 208 -97 298z" />
    <glyph glyph-name="afii10018" unicode="&#x411;" horiz-adv-x="711" 
d="M220 111h220c48 0 67 35 67 98c0 66 -23 103 -71 103h-216v-201zM590 697v-114h-370v-164h243c131 0 186 -76 186 -212c0 -153 -68 -207 -180 -207h-381v697h502z" />
    <glyph glyph-name="afii10019" unicode="&#x412;" horiz-adv-x="712" 
d="M220 111h220c48 0 67 35 67 98c0 66 -23 103 -71 103h-216v-201zM220 585v-166h214c44 0 60 32 60 84c0 56 -15 82 -60 82h-214zM489 369c133 -6 160 -74 160 -178c0 -137 -68 -191 -180 -191h-381v697h375c139 0 171 -65 171 -167c0 -92 -20 -150 -145 -161z" />
    <glyph glyph-name="afii10020" unicode="&#x413;" horiz-adv-x="544" 
d="M220 0h-132v697h471v-114h-339v-583z" />
    <glyph glyph-name="afii10021" unicode="&#x414;" horiz-adv-x="802" 
d="M678 697v-578h124l-21 -273h-116v154h-523v-154h-116l-22 273h110c59 166 95 357 104 578h460zM547 119v464h-208c-11 -154 -34 -316 -82 -464h290z" />
    <glyph glyph-name="afii10022" unicode="&#x415;" horiz-adv-x="620" 
d="M88 697h506v-114h-374v-161h267v-113h-267v-195h374v-114h-506v697z" />
    <glyph glyph-name="afii10024" unicode="&#x416;" horiz-adv-x="955" 
d="M146 0h-152c109 311 173 356 250 384c-33 29 -115 133 -235 313h156c92 -147 191 -273 246 -332v332h132v-332c54 59 154 185 247 332h155c-119 -180 -202 -284 -234 -313c76 -28 140 -73 250 -384h-153c-92 265 -153 321 -265 332v-332h-132v332
c-113 -12 -174 -68 -265 -332z" />
    <glyph glyph-name="afii10025" unicode="&#x417;" horiz-adv-x="642" 
d="M193 310v112h111c89 0 119 21 119 89c0 63 -30 85 -160 85c-53 0 -140 -9 -183 -22l-26 114c61 13 155 26 235 26c203 0 274 -52 274 -178c0 -92 -23 -156 -147 -167c132 -6 163 -76 163 -181c0 -151 -92 -202 -290 -202c-73 0 -176 11 -239 25l25 115
c46 -13 134 -21 188 -21c134 0 173 26 173 101c0 79 -39 104 -129 104h-114z" />
    <glyph glyph-name="afii10026" unicode="&#x418;" horiz-adv-x="774" 
d="M685 697v-697h-129v504c-92 -170 -193 -345 -295 -504h-173v697h130v-526c108 174 214 352 308 526h159z" />
    <glyph glyph-name="afii10027" unicode="&#x419;" horiz-adv-x="774" 
d="M685 697v-697h-129v504c-92 -170 -193 -345 -295 -504h-173v697h130v-526c108 174 214 352 308 526h159zM238 871h85c0 -47 22 -58 66 -58c43 0 67 11 67 58h80c0 -95 -53 -137 -150 -137c-94 0 -148 42 -148 137z" />
    <glyph glyph-name="afii10028" unicode="&#x41a;" horiz-adv-x="664" 
d="M670 0h-157c-100 266 -170 320 -293 331v-331h-132v697h132v-336c59 57 171 186 273 336h160c-128 -180 -220 -284 -255 -313c83 -28 153 -73 272 -384z" />
    <glyph glyph-name="afii10029" unicode="&#x41b;" horiz-adv-x="728" 
d="M510 583h-217c-14 -179 -56 -391 -123 -583h-139c68 207 130 443 141 697h468v-697h-130v583z" />
    <glyph glyph-name="afii10030" unicode="&#x41c;" horiz-adv-x="916" 
d="M464 251c55 146 128 312 193 446h171v-697h-129v519c-63 -139 -138 -318 -194 -455h-103c-54 137 -126 321 -187 455v-519h-127v697h180c66 -136 138 -301 196 -446z" />
    <glyph glyph-name="afii10031" unicode="&#x41d;" horiz-adv-x="736" 
d="M220 309v-309h-132v697h132v-266h298v266h130v-697h-130v309h-298z" />
    <glyph glyph-name="afii10032" unicode="&#x41e;" horiz-adv-x="770" 
d="M385 714c221 0 331 -76 331 -359c0 -288 -110 -369 -331 -369c-222 0 -332 81 -332 369c0 283 111 359 332 359zM385 105c153 0 191 38 191 248c0 211 -38 242 -191 242s-191 -31 -191 -242c0 -210 38 -248 191 -248z" />
    <glyph glyph-name="afii10033" unicode="&#x41f;" horiz-adv-x="736" 
d="M220 583v-583h-132v697h560v-697h-130v583h-298z" />
    <glyph glyph-name="afii10034" unicode="&#x420;" horiz-adv-x="673" 
d="M220 340h194c55 0 86 40 86 119c0 85 -29 126 -83 126h-197v-245zM220 0h-132v697h363c147 0 194 -103 194 -239c0 -120 -57 -228 -191 -228h-234v-230z" />
    <glyph glyph-name="afii10035" unicode="&#x421;" horiz-adv-x="592" 
d="M53 355c0 285 106 359 327 359c64 0 146 -11 200 -26l-29 -116c-36 13 -101 22 -148 22c-152 0 -209 -26 -209 -240s57 -247 209 -247c47 0 112 9 148 22l29 -118c-54 -15 -136 -25 -200 -25c-221 0 -327 85 -327 369z" />
    <glyph glyph-name="afii10036" unicode="&#x422;" horiz-adv-x="609" 
d="M371 0h-133v583h-235v114h603v-114h-235v-583z" />
    <glyph glyph-name="afii10037" unicode="&#x423;" horiz-adv-x="613" 
d="M315 320c62 126 127 270 164 377h149c-91 -232 -232 -513 -345 -697h-166c36 48 84 120 116 177c-47 130 -164 382 -248 520h157c56 -101 126 -249 173 -377z" />
    <glyph glyph-name="afii10038" unicode="&#x424;" horiz-adv-x="799" 
d="M326 697h131v-87c233 -11 299 -88 299 -260c0 -173 -66 -250 -299 -261v-89h-131v89c-229 11 -290 88 -290 261c0 172 61 249 290 260v87zM622 349c0 110 -21 149 -165 153v-305c144 4 165 45 165 152zM168 349c0 -106 22 -147 158 -152v304c-137 -5 -158 -44 -158 -152z
" />
    <glyph glyph-name="afii10039" unicode="&#x425;" horiz-adv-x="674" 
d="M169 697l175 -230l160 230h162l-241 -342l252 -355h-164l-170 241l-185 -241h-162c69 86 169 219 266 352l-262 345h169z" />
    <glyph glyph-name="afii10040" unicode="&#x426;" horiz-adv-x="773" 
d="M220 697v-578h298v578h130v-578h125l-22 -273h-115v154h-548v697h132z" />
    <glyph glyph-name="afii10041" unicode="&#x427;" horiz-adv-x="667" 
d="M447 379v318h132v-697h-132v224c-30 -17 -98 -32 -170 -32c-147 0 -252 42 -252 245v260h132v-251c0 -109 39 -131 146 -131c88 0 144 22 144 64z" />
    <glyph glyph-name="afii10042" unicode="&#x428;" horiz-adv-x="974" 
d="M886 697v-697h-798v697h132v-578h202v578h131v-578h202v578h131z" />
    <glyph glyph-name="afii10043" unicode="&#x429;" horiz-adv-x="1010" 
d="M220 697v-578h202v578h131v-578h202v578h131v-578h124l-21 -273h-116v154h-785v697h132z" />
    <glyph glyph-name="afii10044" unicode="&#x42a;" horiz-adv-x="721" 
d="M17 697h237v-248h243c137 0 187 -99 187 -225c0 -127 -50 -224 -181 -224h-381v583h-105v114zM254 111h212c53 0 75 39 75 113c0 76 -27 115 -78 115h-209v-228z" />
    <glyph glyph-name="afii10045" unicode="&#x42b;" horiz-adv-x="935" 
d="M220 111h212c53 0 75 39 75 113c0 76 -27 115 -78 115h-209v-228zM88 697h132v-248h243c137 0 187 -99 187 -225c0 -141 -56 -224 -181 -224h-381v697zM715 697h132v-697h-132v697z" />
    <glyph glyph-name="afii10046" unicode="&#x42c;" horiz-adv-x="687" 
d="M220 111h212c53 0 75 39 75 113c0 76 -27 115 -78 115h-209v-228zM88 697h132v-248h243c137 0 187 -99 187 -225c0 -141 -56 -224 -181 -224h-381v697z" />
    <glyph glyph-name="afii10047" unicode="&#x42d;" horiz-adv-x="616" 
d="M419 310h-298v112h297c-13 151 -77 172 -210 172c-47 0 -117 -9 -153 -22l-29 116c54 15 141 26 205 26c221 0 332 -74 332 -359c0 -284 -111 -369 -332 -369c-64 0 -151 10 -205 25l29 118c36 -13 106 -22 153 -22c139 0 203 30 211 203z" />
    <glyph glyph-name="afii10048" unicode="&#x42e;" horiz-adv-x="966" 
d="M643 714c174 0 270 -74 270 -356c0 -286 -96 -372 -270 -372c-162 0 -260 76 -270 323h-153v-309h-132v697h132v-266h154c15 222 113 283 269 283zM643 105c104 0 134 43 134 253c0 211 -30 239 -134 239c-101 0 -135 -28 -135 -239c0 -210 34 -253 135 -253z" />
    <glyph glyph-name="afii10049" unicode="&#x42f;" horiz-adv-x="706" 
d="M486 375v210h-200c-49 0 -78 -35 -78 -108c0 -68 30 -102 81 -102h197zM244 305c-139 5 -183 89 -183 189c0 112 47 203 194 203h363v-697h-132v266h-111c-80 0 -126 -35 -196 -266h-152c90 254 135 292 217 305z" />
    <glyph glyph-name="afii10065" unicode="&#x430;" horiz-adv-x="560" 
d="M494 326v-300c-64 -25 -159 -40 -230 -40c-161 0 -215 37 -215 170c0 144 81 167 200 167c43 0 83 -5 126 -14c0 89 -21 109 -127 109c-56 0 -112 -8 -154 -23l-23 102c53 14 130 27 203 27c151 0 220 -46 220 -198zM375 98v127c-28 6 -64 9 -101 9c-70 0 -95 -8 -95 -73
c0 -69 19 -80 94 -80c36 0 73 7 102 17z" />
    <glyph glyph-name="afii10066" unicode="&#x431;" horiz-adv-x="575" 
d="M180 245c0 -123 33 -157 102 -157c85 0 114 18 114 157c0 122 -27 150 -107 150c-89 0 -109 -33 -109 -150zM179 442c28 38 74 60 138 60c131 0 206 -53 206 -255c0 -203 -76 -261 -244 -261c-143 0 -225 57 -225 308c0 333 69 386 250 400c73 6 136 16 191 39v-110
c-44 -20 -106 -28 -185 -35c-102 -9 -119 -53 -131 -146z" />
    <glyph glyph-name="afii10067" unicode="&#x432;" horiz-adv-x="580" 
d="M193 96h152c39 0 55 16 55 58c0 46 -19 66 -58 66h-149v-124zM193 413v-102h147c36 0 49 17 49 52c0 39 -13 50 -49 50h-147zM402 270c102 -3 128 -55 128 -131c0 -100 -57 -139 -150 -139h-311v509h307c115 0 142 -47 142 -122c0 -67 -19 -110 -116 -117z" />
    <glyph glyph-name="afii10068" unicode="&#x433;" horiz-adv-x="424" 
d="M193 401v-401h-124v509h354v-108h-230z" />
    <glyph glyph-name="afii10069" unicode="&#x434;" horiz-adv-x="649" 
d="M166 509h380v-401h98l-29 -249h-99v141h-384v-141h-100l-28 249h91c36 126 63 264 71 401zM422 401h-143c-7 -87 -28 -195 -54 -293h197v293z" />
    <glyph glyph-name="afii10070" unicode="&#x435;" horiz-adv-x="552" 
d="M456 112l20 -98c-51 -17 -126 -28 -178 -28c-147 0 -247 62 -247 271c0 204 89 267 237 267c161 0 231 -55 222 -302h-329c1 -109 43 -131 132 -131c36 0 103 9 143 21zM295 426c-78 0 -105 -25 -113 -109h214c-4 90 -30 109 -101 109z" />
    <glyph glyph-name="afii10072" unicode="&#x436;" horiz-adv-x="799" 
d="M144 0h-142c98 224 149 255 197 275c-25 21 -96 102 -185 234h143c73 -106 142 -197 180 -242v242h124v-242c38 45 107 136 181 242h143c-90 -132 -160 -213 -185 -234c48 -20 98 -51 196 -275h-141c-79 175 -139 221 -194 236v-236h-124v236c-55 -15 -115 -61 -193 -236
z" />
    <glyph glyph-name="afii10073" unicode="&#x437;" horiz-adv-x="516" 
d="M148 222v93h78c73 0 99 11 99 51c0 38 -22 52 -108 52c-63 0 -115 -9 -156 -22l-26 108c52 12 112 20 184 20c179 0 236 -35 236 -131c0 -70 -24 -116 -122 -124c103 -5 135 -57 135 -134c0 -116 -72 -149 -249 -149c-72 0 -135 7 -188 19l26 111c40 -14 101 -24 160 -24
c96 0 119 17 119 67c0 48 -33 63 -110 63h-78z" />
    <glyph glyph-name="afii10074" unicode="&#x438;" horiz-adv-x="593" 
d="M400 0v311c-61 -110 -136 -219 -207 -311h-124v509h124v-324c69 87 146 215 207 324h124v-509h-124z" />
    <glyph glyph-name="afii10075" unicode="&#x439;" horiz-adv-x="593" 
d="M400 0v311c-61 -110 -136 -219 -207 -311h-124v509h124v-324c69 87 146 215 207 324h124v-509h-124zM147 697h85c0 -47 22 -58 67 -58c36 0 68 11 66 58h80c0 -95 -52 -137 -149 -137c-95 0 -149 42 -149 137z" />
    <glyph glyph-name="afii10076" unicode="&#x43a;" horiz-adv-x="551" 
d="M549 0h-145c-86 181 -146 222 -211 236v-236h-124v509h124v-245c40 44 115 136 197 245h147c-98 -132 -166 -212 -193 -233c51 -20 98 -52 205 -276z" />
    <glyph glyph-name="afii10077" unicode="&#x43b;" horiz-adv-x="572" 
d="M378 401h-138c-11 -134 -41 -286 -77 -401h-130c45 145 79 329 89 509h380v-509h-124v401z" />
    <glyph glyph-name="afii10078" unicode="&#x43c;" horiz-adv-x="753" 
d="M382 206c41 108 83 206 129 303h173v-509h-123v371c-47 -101 -103 -241 -140 -341h-93c-37 100 -91 243 -136 341v-371h-123v509h181c47 -98 89 -197 132 -303z" />
    <glyph glyph-name="afii10079" unicode="&#x43d;" horiz-adv-x="587" 
d="M393 216h-200v-216h-124v509h124v-187h200v187h124v-509h-124v216z" />
    <glyph glyph-name="afii10080" unicode="&#x43e;" 
d="M293 -14c-162 0 -242 62 -242 271c0 208 81 267 242 267c163 0 244 -59 244 -267c0 -209 -80 -271 -244 -271zM293 423c-87 0 -114 -22 -114 -168c0 -141 27 -168 114 -168c89 0 116 27 116 168c0 146 -27 168 -116 168z" />
    <glyph glyph-name="afii10081" unicode="&#x43f;" horiz-adv-x="587" 
d="M193 401v-401h-124v509h448v-509h-124v401h-200z" />
    <glyph glyph-name="afii10082" unicode="&#x440;" 
d="M193 402v-262c0 -30 45 -49 100 -49c87 0 116 35 116 161c0 140 -29 165 -117 165c-34 0 -73 -5 -99 -15zM69 -192v678c55 23 149 38 223 38c168 0 244 -61 244 -269c0 -207 -85 -269 -221 -269c-58 0 -94 15 -122 29v-207h-124z" />
    <glyph glyph-name="afii10083" unicode="&#x441;" horiz-adv-x="470" 
d="M430 118l28 -106c-40 -16 -107 -26 -155 -26c-155 0 -252 62 -252 271c0 208 98 267 252 267c49 0 117 -10 155 -24l-28 -106c-32 12 -77 22 -118 22c-90 0 -133 -20 -133 -161c0 -135 43 -161 133 -161c43 0 86 11 118 24z" />
    <glyph glyph-name="afii10084" unicode="&#x442;" horiz-adv-x="485" 
d="M304 401v-401h-124v401h-175v108h475v-108h-176z" />
    <glyph glyph-name="afii10085" unicode="&#x443;" horiz-adv-x="511" 
d="M180 -25c-50 181 -117 382 -180 534h129c45 -112 91 -255 126 -386c48 127 94 260 126 386h126c-51 -174 -119 -356 -193 -530c-24 -57 -53 -121 -79 -171h-138c27 48 58 112 83 167z" />
    <glyph glyph-name="afii10086" unicode="&#x444;" horiz-adv-x="840" 
d="M358 514v195h124v-195c28 6 52 10 82 10c158 0 224 -61 224 -269c0 -207 -75 -269 -201 -269c-48 0 -82 14 -105 29v-207h-124v207c-24 -15 -58 -29 -105 -29c-127 0 -201 62 -201 269c0 208 66 269 224 269c29 0 53 -4 82 -10zM275 91c49 0 83 18 83 48v265
c-26 9 -48 13 -82 13c-73 0 -102 -25 -102 -165c0 -126 30 -161 101 -161zM565 91c70 0 101 35 101 161c0 140 -29 165 -102 165c-34 0 -57 -4 -82 -13v-267c1 -29 34 -46 83 -46z" />
    <glyph glyph-name="afii10087" unicode="&#x445;" horiz-adv-x="521" 
d="M516 0h-140c-28 47 -66 103 -107 161c-45 -61 -88 -116 -125 -161h-138c54 63 128 159 198 254c-69 96 -142 191 -197 255h148c34 -42 76 -98 117 -156c43 59 78 114 105 156h138l-175 -251c64 -90 128 -184 176 -258z" />
    <glyph glyph-name="afii10088" unicode="&#x446;" horiz-adv-x="636" 
d="M517 108h114l-29 -249h-100v141h-433v509h124v-401h200v401h124v-401z" />
    <glyph glyph-name="afii10089" unicode="&#x447;" horiz-adv-x="556" 
d="M38 385v124h124v-114c0 -108 35 -129 103 -129c50 0 97 15 97 45v198h124v-509h-124v189c-32 -17 -87 -35 -140 -35c-119 0 -184 41 -184 231z" />
    <glyph glyph-name="afii10090" unicode="&#x448;" horiz-adv-x="858" 
d="M788 509v-509h-719v509h124v-401h174v401h124v-401h173v401h124z" />
    <glyph glyph-name="afii10091" unicode="&#x449;" horiz-adv-x="907" 
d="M773 -141v141h-704v509h124v-401h174v401h124v-401h173v401h124v-401h114l-29 -249h-100z" />
    <glyph glyph-name="afii10092" unicode="&#x44a;" horiz-adv-x="611" 
d="M227 325h179c104 0 158 -55 158 -161c0 -120 -54 -164 -158 -164h-303v401h-98v108h222v-184zM227 92h150c38 0 57 21 57 70s-20 67 -59 67h-148v-137z" />
    <glyph glyph-name="afii10093" unicode="&#x44b;" horiz-adv-x="776" 
d="M343 92c38 0 57 20 57 70c0 49 -20 67 -59 67h-148v-137h150zM193 325h179c104 0 158 -55 158 -161c0 -120 -54 -164 -158 -164h-303v509h124v-184zM707 509v-509h-124v509h124z" />
    <glyph glyph-name="afii10094" unicode="&#x44c;" horiz-adv-x="577" 
d="M343 92c38 0 57 21 57 70s-20 67 -59 67h-148v-137h150zM193 325h179c104 0 158 -55 158 -161c0 -120 -54 -164 -158 -164h-303v509h124v-184z" />
    <glyph glyph-name="afii10095" unicode="&#x44d;" horiz-adv-x="481" 
d="M24 12l27 99c32 -13 77 -21 120 -21c78 0 123 25 129 132h-203v95h201c-11 86 -56 102 -127 102c-41 0 -88 -6 -120 -19l-27 100c38 14 106 24 155 24c149 0 251 -59 251 -267c0 -209 -101 -271 -251 -271c-48 0 -115 10 -155 26z" />
    <glyph glyph-name="afii10096" unicode="&#x44e;" horiz-adv-x="848" 
d="M558 -14c-146 0 -224 54 -235 230h-130v-216h-124v509h124v-187h131c17 156 96 202 234 202c158 0 239 -59 239 -267c0 -209 -80 -271 -239 -271zM558 424c-82 0 -110 -23 -110 -169c0 -141 28 -169 110 -169c84 0 112 28 112 169c0 146 -28 169 -112 169z" />
    <glyph glyph-name="afii10097" unicode="&#x44f;" horiz-adv-x="593" 
d="M400 279v130h-145c-39 0 -60 -16 -60 -64c0 -46 22 -66 63 -66h142zM206 220c-109 4 -145 68 -145 140c0 82 39 149 161 149h302v-509h-124v181h-77c-66 0 -99 -27 -156 -181h-142c72 176 110 210 181 220z" />
    <glyph glyph-name="afii10071" unicode="&#x451;" horiz-adv-x="552" 
d="M456 112l20 -98c-51 -17 -126 -28 -178 -28c-147 0 -247 62 -247 271c0 204 89 267 237 267c161 0 231 -55 222 -302h-329c1 -109 43 -131 132 -131c36 0 103 9 143 21zM295 426c-78 0 -105 -25 -113 -109h214c-4 90 -30 109 -101 109zM182 681c45 0 60 -7 60 -55
c0 -53 -15 -62 -60 -62s-59 9 -59 62c0 48 14 55 59 55zM396 681c44 0 59 -7 59 -55c0 -53 -15 -62 -59 -62c-46 0 -60 9 -60 62c0 48 14 55 60 55z" />
    <glyph glyph-name="afii10099" unicode="&#x452;" horiz-adv-x="576" 
d="M193 581v-104c33 19 88 35 140 35c126 0 192 -49 192 -291c0 -246 -85 -365 -159 -404l-88 85c61 33 115 104 115 315c0 157 -27 179 -102 179c-49 0 -95 -15 -98 -43v-353h-124v581h-51v87h51v54h124v-54h103v-87h-103z" />
    <glyph glyph-name="afii10100" unicode="&#x453;" horiz-adv-x="424" 
d="M193 402v-402h-124v509h354v-107h-230zM270 568h-109l121 129h133z" />
    <glyph glyph-name="afii10101" unicode="&#x454;" horiz-adv-x="481" 
d="M430 111l27 -99c-40 -16 -106 -26 -154 -26c-150 0 -252 62 -252 271c0 208 102 267 251 267c49 0 117 -10 155 -24l-27 -100c-32 13 -79 19 -120 19c-71 0 -116 -16 -127 -102h201v-95h-203c6 -107 51 -132 129 -132c43 0 88 8 120 21z" />
    <glyph glyph-name="afii10102" unicode="&#x455;" horiz-adv-x="491" 
d="M434 496l-27 -97c-40 13 -97 24 -148 24c-61 0 -92 -6 -92 -59c0 -35 22 -47 105 -55c123 -13 177 -51 177 -153c0 -132 -88 -170 -218 -170c-54 0 -134 10 -182 27l26 98c37 -13 100 -24 151 -24c68 0 100 9 100 62c0 36 -20 53 -109 61c-112 9 -172 40 -172 145
c0 132 89 169 218 169c53 0 120 -11 171 -28z" />
    <glyph glyph-name="afii10103" unicode="&#x456;" horiz-adv-x="262" 
d="M193 509v-509h-124v509h124zM132 721c54 0 71 -8 71 -61c0 -59 -17 -69 -71 -69c-55 0 -72 10 -72 69c0 53 17 61 72 61z" />
    <glyph glyph-name="afii10104" unicode="&#x457;" horiz-adv-x="262" 
d="M193 509v-509h-124v509h124zM24 681c45 0 60 -7 60 -55c0 -53 -15 -62 -60 -62s-59 9 -59 62c0 48 14 55 59 55zM238 681c44 0 59 -7 59 -55c0 -53 -15 -62 -59 -62c-46 0 -60 9 -60 62c0 48 14 55 60 55z" />
    <glyph glyph-name="afii10105" unicode="&#x458;" horiz-adv-x="262" 
d="M132 721c54 0 71 -8 71 -61c0 -59 -17 -69 -71 -69c-55 0 -72 10 -72 69c0 53 17 61 72 61zM-16 -203v103c56 0 85 18 85 86v523h124v-520c0 -151 -70 -192 -209 -192z" />
    <glyph glyph-name="afii10106" unicode="&#x459;" horiz-adv-x="886" 
d="M378 401h-138c-11 -134 -41 -286 -77 -401h-130c45 145 79 329 89 509h380v-184h179c104 0 158 -55 158 -161c0 -120 -54 -164 -158 -164h-303v401zM502 92h150c38 0 57 21 57 70s-20 67 -59 67h-148v-137z" />
    <glyph glyph-name="afii10107" unicode="&#x45a;" horiz-adv-x="901" 
d="M517 325h179c104 0 158 -55 158 -161c0 -120 -54 -164 -158 -164h-303v229h-200v-229h-124v509h124v-184h200v184h124v-184zM517 92h150c38 0 57 21 57 71c0 49 -20 66 -59 66h-148v-137z" />
    <glyph glyph-name="afii10108" unicode="&#x45b;" horiz-adv-x="583" 
d="M18 581v87h51v54h124v-54h103v-87h-103v-92c33 17 88 35 140 35c119 0 184 -41 184 -231v-293h-124v283c0 108 -35 129 -102 129c-51 0 -98 -15 -98 -45v-367h-124v581h-51z" />
    <glyph glyph-name="afii10109" unicode="&#x45c;" horiz-adv-x="551" 
d="M549 0h-145c-86 181 -146 222 -211 236v-236h-124v509h124v-245c40 44 115 136 197 245h147c-98 -132 -166 -212 -193 -233c51 -20 98 -52 205 -276zM323 568h-109l121 129h133z" />
    <glyph glyph-name="afii10110" unicode="&#x45e;" horiz-adv-x="511" 
d="M180 -25c-50 181 -117 382 -180 534h129c45 -112 91 -255 126 -386c48 127 94 260 126 386h126c-51 -174 -119 -356 -193 -530c-24 -57 -53 -121 -79 -171h-138c27 48 58 112 83 167zM107 699h85c0 -47 22 -58 66 -58c43 0 67 11 67 58h80c0 -95 -53 -137 -150 -137
c-94 0 -148 42 -148 137z" />
    <glyph glyph-name="afii10193" unicode="&#x45f;" horiz-adv-x="587" 
d="M193 509v-401h200v401h124v-509h-156l-21 -178h-88l-21 178h-162v509h124z" />
    <glyph glyph-name="afii10050" unicode="&#x490;" horiz-adv-x="544" 
d="M88 0v697h350l33 178h88v-292h-339v-583h-132z" />
    <glyph glyph-name="afii10098" unicode="&#x491;" horiz-adv-x="424" 
d="M423 401h-230v-401h-124v509h246l30 164h78v-272z" />
    <glyph glyph-name="endash" unicode="&#x2013;" horiz-adv-x="578" 
d="M49 222v118h480v-118h-480z" />
    <glyph glyph-name="emdash" unicode="&#x2014;" horiz-adv-x="865" 
d="M49 222v118h767v-118h-767z" />
    <glyph glyph-name="quoteleft" unicode="&#x2018;" horiz-adv-x="255" 
d="M24 505l109 262h100l-78 -262h-131z" />
    <glyph glyph-name="quoteright" unicode="&#x2019;" horiz-adv-x="255" 
d="M232 762l-109 -262h-100l78 262h131z" />
    <glyph glyph-name="quotesinglbase" unicode="&#x201a;" horiz-adv-x="245" 
d="M227 103l-109 -262h-100l78 262h131z" />
    <glyph glyph-name="quotedblleft" unicode="&#x201c;" horiz-adv-x="450" 
d="M24 505l109 262h100l-78 -262h-131zM218 505l109 262h100l-78 -262h-131z" />
    <glyph glyph-name="quotedblright" unicode="&#x201d;" horiz-adv-x="450" 
d="M426 763l-109 -262h-100l78 262h131zM232 763l-109 -262h-100l78 262h131z" />
    <glyph glyph-name="quotedblbase" unicode="&#x201e;" horiz-adv-x="450" 
d="M426 98l-109 -262h-100l78 262h131zM232 98l-109 -262h-100l78 262h131z" />
    <glyph glyph-name="dagger" unicode="&#x2020;" horiz-adv-x="446" 
d="M30 479v100h141v143h103v-143h142v-100h-142v-228h-103v228h-141z" />
    <glyph glyph-name="daggerdbl" unicode="&#x2021;" horiz-adv-x="446" 
d="M30 479v100h141v143h103v-143h142v-100h-142v-96h142v-101h-142v-143h-103v143h-141v101h141v96h-141z" />
    <glyph glyph-name="bullet" unicode="&#x2022;" 
d="M293 56c-162 0 -242 62 -242 271c0 208 81 267 242 267c163 0 244 -59 244 -267c0 -209 -80 -271 -244 -271z" />
    <glyph glyph-name="ellipsis" unicode="&#x2026;" horiz-adv-x="1141" 
d="M218 143c61 0 80 -9 80 -70c0 -66 -19 -78 -80 -78c-58 0 -77 12 -77 78c0 61 19 70 77 70zM569 143c60 0 79 -9 79 -70c0 -66 -19 -78 -79 -78c-58 0 -78 12 -78 78c0 61 20 70 78 70zM920 143c61 0 80 -9 80 -70c0 -66 -19 -78 -80 -78c-57 0 -77 12 -77 78
c0 61 20 70 77 70z" />
    <glyph glyph-name="perthousand" unicode="&#x2030;" horiz-adv-x="1354" 
d="M633 697h117l-429 -697h-116zM217 714c129 0 182 -46 182 -223c0 -178 -53 -231 -182 -231s-182 53 -182 231c0 177 53 223 182 223zM217 349c56 0 72 25 72 141c0 117 -16 136 -72 136c-55 0 -73 -19 -73 -136c0 -116 18 -141 73 -141zM742 439c129 0 182 -46 182 -222
c0 -179 -53 -231 -182 -231s-182 52 -182 231c0 176 53 222 182 222zM742 74c56 0 72 25 72 142s-16 135 -72 135c-55 0 -73 -18 -73 -135s18 -142 73 -142zM1137 439c129 0 182 -46 182 -222c0 -179 -53 -231 -182 -231s-182 52 -182 231c0 176 53 222 182 222zM1137 74
c56 0 72 25 72 142s-16 135 -72 135c-55 0 -73 -18 -73 -135s18 -142 73 -142z" />
    <glyph glyph-name="guilsinglleft" unicode="&#x2039;" horiz-adv-x="395" 
d="M368 518l-176 -204l176 -208l-70 -75l-271 281l270 279z" />
    <glyph glyph-name="guilsinglright" unicode="&#x203a;" horiz-adv-x="395" 
d="M27 105l177 204l-177 209l70 74l272 -280l-270 -280z" />
    <glyph glyph-name="fraction" unicode="&#x2044;" horiz-adv-x="593" 
d="M460 697h117l-439 -697h-116z" />
    <glyph glyph-name="fraction" unicode="&#x2215;" horiz-adv-x="593" 
d="M460 697h117l-439 -697h-116z" />
    <glyph glyph-name="franc" unicode="&#x20a3;" horiz-adv-x="570" 
d="M48 117v88h40v492h496v-114h-364v-197h222v-112h-222v-69h90v-88h-90v-117h-132v117h-40z" />
    <glyph glyph-name="Euro" unicode="&#x20ac;" horiz-adv-x="592" 
d="M53 355c0 285 106 359 327 359c64 0 146 -11 200 -26l-29 -116c-36 13 -101 22 -148 22c-111 0 -170 -16 -194 -110h239v-85h-253c-1 -11 -1 -34 -1 -45c0 -12 0 -35 1 -45h253v-85h-239c23 -98 82 -117 194 -117c47 0 112 9 148 22l29 -118c-54 -15 -136 -25 -200 -25
c-221 0 -327 85 -327 369z" />
    <glyph glyph-name="afii61352" unicode="&#x2116;" horiz-adv-x="1174" 
d="M685 697v-697h-161c-94 174 -198 352 -307 525v-525h-129v697h173c101 -159 202 -333 293 -503v503h131zM776 123v98h326v-98h-326zM937 714c134 0 186 -44 186 -208c0 -165 -52 -214 -186 -214c-133 0 -185 49 -185 214c0 164 52 208 185 208zM937 381
c62 0 77 19 77 125c0 105 -15 120 -77 120s-76 -15 -76 -120c0 -106 14 -125 76 -125z" />
    <glyph glyph-name="trademark" unicode="&#x2122;" horiz-adv-x="824" 
d="M210 338h-89v281h-114v78h316v-78h-113v-281zM478 697l91 -243l88 243h112v-359h-84v250l-87 -236h-69l-84 236v-250h-84v359h117z" />
    <glyph glyph-name="estimated" unicode="&#x212e;" horiz-adv-x="711" 
d="M669 303h-474c5 -164 58 -197 197 -197c47 0 134 10 171 23l28 -118c-54 -15 -136 -25 -200 -25c-221 0 -338 86 -338 369s116 359 312 359c204 0 304 -103 304 -379v-32zM365 595c-109 0 -161 -25 -169 -174h333c-6 146 -56 174 -164 174z" />
    <glyph glyph-name="arrowleft" unicode="&#x2190;" horiz-adv-x="757" 
d="M390 26l-375 341l374 341l88 -89l-217 -194h482v-117h-482l217 -193z" />
    <glyph glyph-name="arrowup" unicode="&#x2191;" horiz-adv-x="759" 
d="M38 355l342 375l340 -375l-88 -88l-194 218v-482h-117v482l-193 -218z" />
    <glyph glyph-name="arrowright" unicode="&#x2192;" horiz-adv-x="757" 
d="M367 707l375 -340l-375 -342l-88 90l218 193h-482v117h482l-218 194z" />
    <glyph glyph-name="arrowdown" unicode="&#x2193;" horiz-adv-x="759" 
d="M720 378l-341 -375l-341 374l89 88l194 -217v482h117v-482l193 217z" />
    <glyph glyph-name="partialdiff" unicode="&#x2202;" horiz-adv-x="626" 
d="M309 428c24 0 56 -2 87 -5c-46 91 -132 185 -225 274h164c131 -127 244 -274 244 -473c0 -188 -56 -241 -266 -241c-192 0 -262 59 -262 235c0 156 62 210 258 210zM440 238c0 25 -3 49 -9 72c-33 5 -72 7 -108 7c-112 0 -134 -19 -134 -105c0 -78 21 -111 124 -111
c96 0 127 15 127 137z" />
    <glyph glyph-name="product" unicode="&#x220f;" horiz-adv-x="736" 
d="M220 578v-578h-132v697h560v-697h-130v578h-298z" />
    <glyph glyph-name="summation" unicode="&#x2211;" horiz-adv-x="622" 
d="M394 345c-59 -88 -117 -169 -167 -232h371v-113h-594c66 89 156 225 236 346l-221 351h576v-114h-357z" />
    <glyph glyph-name="minus" unicode="&#x2212;" horiz-adv-x="582" 
d="M48 303v118h486v-118h-486z" />
    <glyph glyph-name="radical" unicode="&#x221a;" horiz-adv-x="578" 
d="M0 509h165c46 -114 91 -253 126 -384c48 127 155 444 188 572h126c-49 -165 -176 -532 -244 -697h-153c-38 131 -81 268 -126 387h-82v122z" />
    <glyph glyph-name="infinity" unicode="&#x221e;" horiz-adv-x="773" 
d="M337 351c0 70 -28 99 -102 99c-72 0 -94 -26 -94 -99c0 -74 22 -100 94 -100c74 0 102 30 102 100zM387 264c-11 -110 -79 -130 -174 -130c-127 0 -186 47 -186 217c0 169 59 216 186 216c95 0 163 -20 174 -129c10 110 78 129 173 129c127 0 186 -46 186 -216
s-59 -217 -186 -217c-95 0 -163 21 -173 130zM436 351c0 -70 28 -99 102 -99c72 0 94 26 94 99s-22 99 -94 99c-74 0 -102 -29 -102 -99z" />
    <glyph glyph-name="integral" unicode="&#x222b;" horiz-adv-x="339" 
d="M406 702l-28 -98c-24 8 -67 14 -97 14c-48 0 -82 -12 -82 -82v-550c0 -152 -100 -189 -198 -189c-49 0 -105 8 -148 24l25 96c31 -12 72 -20 111 -20c50 0 86 26 86 89v557c0 135 82 181 185 181c48 0 107 -9 146 -22z" />
    <glyph glyph-name="approxequal" unicode="&#x2248;" horiz-adv-x="582" 
d="M466 320l80 -63c-24 -64 -78 -114 -153 -114c-76 0 -158 85 -219 85c-24 0 -44 -14 -64 -60l-72 69c34 58 74 98 137 98c86 0 165 -83 223 -83c30 0 49 15 68 68zM466 533l80 -63c-24 -64 -78 -114 -153 -114c-76 0 -158 85 -219 85c-24 0 -44 -14 -64 -60l-72 69
c34 58 74 98 137 98c86 0 165 -83 223 -83c30 0 49 15 68 68z" />
    <glyph glyph-name="notequal" unicode="&#x2260;" horiz-adv-x="582" 
d="M380 648h124l-52 -95h82v-118h-143l-79 -149h222v-118h-282l-52 -96h-123l51 96h-80v118h141l79 149h-220v118h280z" />
    <glyph glyph-name="lessequal" unicode="&#x2264;" horiz-adv-x="582" 
d="M48 19v118h486v-118h-486zM499 629l-261 -193l261 -195l-63 -82l-360 250v52l359 249z" />
    <glyph glyph-name="greaterequal" unicode="&#x2265;" horiz-adv-x="582" 
d="M535 137v-118h-486v118h486zM344 436l-260 193l64 81l359 -249v-52l-361 -250l-62 82z" />
    <glyph glyph-name="lozenge" unicode="&#x25ca;" horiz-adv-x="600" 
d="M582 265c-63 -146 -121 -289 -171 -433h-207c-63 138 -126 281 -185 433c59 153 122 297 185 434h207c50 -144 108 -287 171 -434zM443 266c-36 94 -102 255 -129 339h-27c-35 -84 -102 -243 -138 -339c36 -96 103 -256 138 -339h27c27 83 93 245 129 339z" />
    <glyph glyph-name="caron.alt" unicode="&#xe01e;" horiz-adv-x="327" 
d="M282 722h110l-57 -192h-73z" />
    <glyph glyph-name="commaaccent" unicode="&#xf6c3;" horiz-adv-x="267" 
d="M266 -51l-108 -167h-97l71 167h134z" />
    <glyph glyph-name="Acute" unicode="&#xf6c9;" horiz-adv-x="408" 
d="M207 747h-108l129 129h137z" />
    <glyph glyph-name="Caron" unicode="&#xf6ca;" horiz-adv-x="654" 
d="M280 876l73 -78l70 78h112l-122 -129h-122l-126 129h115z" />
    <glyph glyph-name="Dieresis" unicode="&#xf6cb;" horiz-adv-x="431" 
d="M146 864c45 0 59 -8 59 -56c0 -52 -14 -61 -59 -61s-60 9 -60 61c0 48 15 56 60 56zM359 864c45 0 59 -8 59 -56c0 -52 -14 -61 -59 -61c-46 0 -60 9 -60 61c0 48 14 56 60 56z" />
    <glyph glyph-name="Grave" unicode="&#xf6ce;" horiz-adv-x="408" 
d="M409 747h-114l-158 129h137z" />
    <glyph glyph-name="Hungarumlaut" unicode="&#xf6cf;" horiz-adv-x="618" 
d="M248 747h-85l91 129h109zM413 747h-86l91 129h109z" />
    <glyph glyph-name="Macron" unicode="&#xf6d0;" horiz-adv-x="326" 
d="M123 753v92h278v-92h-278z" />
    <glyph glyph-name="Lslashsmall" unicode="&#xf6f9;" horiz-adv-x="432" 
d="M193 232v-121h240v-111h-364v128l-42 -37v107l42 37v274h124v-170l94 83v-108z" />
    <glyph glyph-name="OEsmall" unicode="&#xf6fa;" horiz-adv-x="825" 
d="M787 509v-101h-278c14 -24 23 -54 26 -95h188v-95h-188c-1 -53 -11 -90 -27 -117h279v-101h-384c-31 -10 -67 -14 -110 -14c-162 0 -242 62 -242 271c0 208 81 267 242 267c44 0 81 -5 113 -15h381zM293 424c-87 0 -114 -23 -114 -169c0 -141 27 -169 114 -169
c89 0 116 28 116 169c0 146 -27 169 -116 169z" />
    <glyph glyph-name="Scaronsmall" unicode="&#xf6fd;" horiz-adv-x="491" 
d="M434 496l-27 -97c-40 13 -97 24 -148 24c-61 0 -92 -6 -92 -59c0 -35 22 -47 105 -55c123 -13 177 -51 177 -153c0 -132 -88 -170 -218 -170c-54 0 -134 10 -182 27l26 98c37 -13 100 -24 151 -24c68 0 100 9 100 62c0 36 -20 53 -109 61c-112 9 -172 40 -172 145
c0 132 89 169 218 169c53 0 120 -11 171 -28zM66 697h117l71 -76l69 76h113l-122 -129h-122z" />
    <glyph glyph-name="Zcaronsmall" unicode="&#xf6ff;" horiz-adv-x="497" 
d="M35 509h439v-25c-72 -116 -195 -291 -262 -376h255v-108h-449v25c97 123 216 294 266 376h-249v108zM67 697h117l71 -76l69 76h113l-122 -129h-122z" />
    <glyph glyph-name="exclamsmall" unicode="&#xf721;" horiz-adv-x="327" 
d="M91 509h143l-27 -302h-90zM163 141c60 0 79 -10 79 -71c0 -66 -19 -77 -79 -77c-58 0 -78 11 -78 77c0 61 20 71 78 71z" />
    <glyph glyph-name="ampersandsmall" unicode="&#xf726;" horiz-adv-x="698" 
d="M684 0h-137c-16 24 -31 45 -45 64c-71 -47 -157 -78 -245 -78c-165 0 -225 33 -225 149c0 77 40 131 143 136c-98 7 -112 52 -112 122c0 96 42 131 221 131c178 0 219 -35 219 -131c0 -70 -29 -116 -127 -124c36 -4 81 -24 131 -69c26 32 42 67 49 99h134
c-11 -60 -48 -120 -100 -172c31 -35 62 -77 94 -127zM261 82c68 0 134 25 176 61c-50 53 -101 78 -164 78c-58 0 -110 -6 -110 -69c0 -54 26 -70 98 -70zM282 317c68 0 100 12 100 57c0 41 -19 56 -96 56c-78 0 -98 -15 -98 -56c0 -45 25 -57 94 -57z" />
    <glyph glyph-name="zerooldstyle" unicode="&#xf730;" horiz-adv-x="626" 
d="M315 -14c-148 0 -232 62 -232 271c0 208 86 267 232 267c148 0 228 -59 228 -267c0 -209 -79 -271 -228 -271zM315 424c-78 0 -105 -23 -105 -169c0 -141 27 -169 105 -169c80 0 100 28 100 169c0 146 -22 169 -100 169z" />
    <glyph glyph-name="oneoldstyle" unicode="&#xf731;" horiz-adv-x="626" 
d="M441 0h-125v362l-156 -71l-36 104l317 129v-524z" />
    <glyph glyph-name="twooldstyle" unicode="&#xf732;" horiz-adv-x="626" 
d="M122 386l-29 115c51 12 144 23 209 23c177 0 230 -47 230 -160c0 -94 -60 -174 -262 -263h273v-101h-455v91c270 150 309 190 309 249c0 51 -23 71 -116 71c-44 0 -127 -11 -159 -25z" />
    <glyph glyph-name="threeoldstyle" unicode="&#xf733;" horiz-adv-x="626" 
d="M192 121v112h97c84 0 116 20 116 88c0 63 -27 85 -150 85c-53 0 -132 -9 -175 -22l-26 114c61 13 147 26 227 26c200 0 264 -52 264 -178c0 -92 -25 -155 -150 -165c132 -6 164 -75 164 -180c0 -151 -83 -202 -281 -202c-72 0 -166 11 -229 25l26 114
c45 -13 124 -20 178 -20c133 0 163 26 163 101c0 79 -34 102 -125 102h-99z" />
    <glyph glyph-name="fouroldstyle" unicode="&#xf734;" horiz-adv-x="626" 
d="M369 0h-346v40c73 128 201 341 297 469h175v-406h93v-103h-93v-192h-126v192zM369 103v296c-67 -86 -148 -228 -186 -296h186z" />
    <glyph glyph-name="fiveoldstyle" unicode="&#xf735;" horiz-adv-x="626" 
d="M96 509h432v-114h-308v-153c27 2 55 4 84 4c195 0 255 -62 255 -217c0 -177 -75 -232 -273 -232c-68 0 -165 11 -222 25l26 114c43 -13 116 -20 170 -20c129 0 156 25 156 106c0 86 -22 112 -149 112c-55 0 -125 -5 -171 -14v389z" />
    <glyph glyph-name="sixoldstyle" unicode="&#xf736;" horiz-adv-x="626" 
d="M563 687l-29 -116c-37 14 -101 23 -164 23c-111 0 -170 -26 -174 -173c40 7 93 11 132 11c196 0 258 -61 258 -217c0 -177 -71 -229 -262 -229c-198 0 -269 83 -269 368s89 360 315 360c62 0 139 -11 193 -27zM324 105c102 0 124 27 124 103c0 79 -21 112 -114 112
c-54 0 -105 -4 -140 -10c3 -174 43 -205 130 -205z" />
    <glyph glyph-name="sevenoldstyle" unicode="&#xf737;" horiz-adv-x="626" 
d="M597 509v-39c-92 -147 -243 -467 -308 -662h-149c73 200 196 466 282 587h-360v114h535z" />
    <glyph glyph-name="eightoldstyle" unicode="&#xf738;" horiz-adv-x="626" 
d="M313 94c96 0 125 27 125 107c0 81 -32 113 -125 113s-124 -32 -124 -113c0 -80 28 -107 124 -107zM313 417c80 0 113 27 113 98c0 69 -30 89 -113 89c-84 0 -114 -20 -114 -89c0 -71 34 -98 114 -98zM313 -14c-190 0 -262 53 -262 202c0 105 30 175 163 181
c-125 11 -148 75 -148 167c0 122 53 178 247 178s247 -56 247 -178c0 -92 -23 -156 -148 -167c133 -6 163 -76 163 -181c0 -149 -71 -202 -262 -202z" />
    <glyph glyph-name="nineoldstyle" unicode="&#xf739;" horiz-adv-x="626" 
d="M169 -192c93 88 181 184 227 275c-24 -3 -69 -5 -87 -5c-196 0 -258 54 -258 210c0 177 70 236 262 236c210 0 266 -53 266 -241c0 -199 -115 -348 -246 -475h-164zM323 190c36 0 75 2 108 7c6 23 9 47 9 72c0 121 -31 137 -127 137c-103 0 -124 -34 -124 -112
c0 -86 22 -104 134 -104z" />
    <glyph glyph-name="questionsmall" unicode="&#xf73f;" horiz-adv-x="482" 
d="M225 143c61 0 80 -9 80 -70c0 -66 -19 -77 -80 -77c-58 0 -77 11 -77 77c0 61 19 70 77 70zM283 202h-123c85 65 130 107 130 171c0 36 -20 51 -88 51c-45 0 -101 -7 -139 -18l-19 103c44 9 115 19 168 19c159 0 218 -39 218 -133c0 -79 -41 -129 -147 -193z" />
    <glyph glyph-name="Asmall" unicode="&#xf761;" horiz-adv-x="563" 
d="M427 0c-15 34 -31 77 -47 123h-213c-14 -44 -26 -86 -36 -123h-128c44 152 121 357 183 509h193c48 -163 118 -373 178 -509h-130zM288 409h-21c-24 -59 -48 -126 -71 -195h153c-24 71 -44 136 -61 195z" />
    <glyph glyph-name="Bsmall" unicode="&#xf762;" horiz-adv-x="580" 
d="M193 96h152c39 0 55 16 55 58c0 46 -19 66 -58 66h-149v-124zM193 413v-102h147c36 0 49 17 49 52c0 39 -13 50 -49 50h-147zM402 270c102 -3 128 -55 128 -131c0 -100 -57 -139 -150 -139h-311v509h307c115 0 142 -47 142 -122c0 -67 -19 -110 -116 -117z" />
    <glyph glyph-name="Csmall" unicode="&#xf763;" horiz-adv-x="470" 
d="M430 118l28 -106c-40 -16 -107 -26 -155 -26c-155 0 -252 62 -252 271c0 208 98 267 252 267c49 0 117 -10 155 -24l-28 -106c-32 12 -77 22 -118 22c-90 0 -133 -20 -133 -161c0 -135 43 -161 133 -161c43 0 86 11 118 24z" />
    <glyph glyph-name="Dsmall" unicode="&#xf764;" horiz-adv-x="584" 
d="M69 509h216c163 0 247 -54 247 -252c0 -199 -83 -257 -247 -257h-216v509zM276 413h-83v-317h83c88 0 128 25 128 159c0 138 -40 158 -128 158z" />
    <glyph glyph-name="Esmall" unicode="&#xf765;" horiz-adv-x="505" 
d="M467 509v-101h-274v-95h210v-95h-210v-117h274v-101h-398v509h398z" />
    <glyph glyph-name="Fsmall" unicode="&#xf766;" horiz-adv-x="474" 
d="M69 0v509h398v-101h-274v-120h210v-97h-210v-191h-124z" />
    <glyph glyph-name="Gsmall" unicode="&#xf767;" horiz-adv-x="569" 
d="M505 297v-276c-53 -19 -134 -35 -202 -35c-153 0 -252 62 -252 271c0 208 108 267 262 267c49 0 129 -10 170 -24l-32 -102c-34 12 -83 22 -134 22c-90 0 -138 -24 -138 -165c0 -135 47 -165 133 -165c27 0 61 5 82 14v96h-108v97h219z" />
    <glyph glyph-name="Hsmall" unicode="&#xf768;" horiz-adv-x="587" 
d="M393 216h-200v-216h-124v509h124v-187h200v187h124v-509h-124v216z" />
    <glyph glyph-name="Ismall" unicode="&#xf769;" horiz-adv-x="262" 
d="M193 509v-509h-124v509h124z" />
    <glyph glyph-name="Jsmall" unicode="&#xf76a;" horiz-adv-x="414" 
d="M346 509v-333c0 -153 -99 -190 -198 -190c-54 0 -106 8 -148 23l24 106c31 -12 72 -20 112 -20c47 0 86 19 86 90v324h124z" />
    <glyph glyph-name="Ksmall" unicode="&#xf76b;" horiz-adv-x="551" 
d="M552 0h-146c-115 167 -185 257 -213 269v-269h-124v509h124v-240c28 23 97 105 197 240h147c-98 -132 -168 -210 -195 -231c26 -16 102 -109 210 -278z" />
    <glyph glyph-name="Lsmall" unicode="&#xf76c;" horiz-adv-x="432" 
d="M193 509v-398h240v-111h-364v509h124z" />
    <glyph glyph-name="Msmall" unicode="&#xf76d;" horiz-adv-x="753" 
d="M382 206c41 108 83 206 129 303h173v-509h-123v371c-47 -101 -103 -241 -140 -341h-93c-37 100 -91 243 -136 341v-371h-123v509h181c47 -98 89 -197 132 -303z" />
    <glyph glyph-name="Nsmall" unicode="&#xf76e;" horiz-adv-x="593" 
d="M400 198v311h124v-509h-124c-61 109 -138 235 -207 321v-321h-124v509h122c71 -92 148 -201 209 -311z" />
    <glyph glyph-name="Osmall" unicode="&#xf76f;" 
d="M293 -14c-162 0 -242 62 -242 271c0 208 81 267 242 267c163 0 244 -59 244 -267c0 -209 -80 -271 -244 -271zM293 423c-87 0 -114 -22 -114 -168c0 -141 27 -168 114 -168c89 0 116 27 116 168c0 146 -27 168 -116 168z" />
    <glyph glyph-name="Psmall" unicode="&#xf770;" horiz-adv-x="563" 
d="M340 413h-147v-137h147c36 0 55 20 55 67c0 49 -18 70 -55 70zM375 185h-182v-185h-124v509h296c114 0 160 -55 160 -164c0 -97 -42 -160 -150 -160z" />
    <glyph glyph-name="Qsmall" unicode="&#xf771;" 
d="M283 -14c-147 0 -232 62 -232 271c0 208 81 267 242 267c163 0 244 -59 244 -267c0 -146 -40 -218 -120 -249c45 -11 97 -63 185 -190h-139c-71 109 -134 168 -180 168zM293 424c-87 0 -114 -23 -114 -169c0 -141 27 -169 114 -169c89 0 116 28 116 169
c0 146 -27 169 -116 169z" />
    <glyph glyph-name="Rsmall" unicode="&#xf772;" horiz-adv-x="574" 
d="M369 509c122 0 157 -67 157 -149c0 -72 -31 -136 -140 -140c52 -13 82 -41 183 -220h-144c-81 153 -117 181 -161 181h-71v-181h-124v509h300zM193 279h141c40 0 63 22 63 66s-20 64 -61 64h-143v-130z" />
    <glyph glyph-name="Ssmall" unicode="&#xf773;" horiz-adv-x="491" 
d="M434 496l-27 -97c-40 13 -97 24 -148 24c-61 0 -92 -6 -92 -59c0 -35 22 -47 105 -55c123 -13 177 -51 177 -153c0 -132 -88 -170 -218 -170c-54 0 -134 10 -182 27l26 98c37 -13 100 -24 151 -24c68 0 100 9 100 62c0 36 -20 53 -109 61c-112 9 -172 40 -172 145
c0 132 89 169 218 169c53 0 120 -11 171 -28z" />
    <glyph glyph-name="Tsmall" unicode="&#xf774;" horiz-adv-x="485" 
d="M304 401v-401h-124v401h-175v108h475v-108h-176z" />
    <glyph glyph-name="Usmall" unicode="&#xf775;" horiz-adv-x="578" 
d="M289 97c80 0 99 30 99 102v310h123v-303c0 -166 -59 -220 -222 -220s-223 54 -223 220v303h124v-310c0 -72 19 -102 99 -102z" />
    <glyph glyph-name="Vsmall" unicode="&#xf776;" horiz-adv-x="522" 
d="M264 125c48 127 93 257 126 384h126c-49 -165 -115 -344 -183 -509h-153c-50 177 -108 356 -171 509h129c45 -114 90 -253 126 -384z" />
    <glyph glyph-name="Wsmall" unicode="&#xf777;" horiz-adv-x="830" 
d="M415 341c-24 -106 -66 -249 -98 -341h-153c-49 177 -105 353 -164 509h131c42 -112 84 -251 116 -382c35 102 89 291 110 382h121c33 -99 79 -273 103 -382c46 127 88 255 118 382h126c-46 -165 -108 -348 -174 -509h-154c-20 103 -58 261 -82 341z" />
    <glyph glyph-name="Xsmall" unicode="&#xf778;" horiz-adv-x="521" 
d="M516 0h-140c-28 47 -66 103 -107 161c-45 -61 -88 -116 -125 -161h-138c54 63 128 159 198 254c-69 96 -142 191 -197 255h148c34 -42 76 -98 117 -156c43 59 78 114 105 156h138l-175 -251c64 -90 128 -184 176 -258z" />
    <glyph glyph-name="Ysmall" unicode="&#xf779;" horiz-adv-x="487" 
d="M250 332c42 51 93 125 126 177h136c-62 -95 -135 -196 -202 -278v-231h-124v231c-67 94 -151 207 -211 278h144c41 -49 90 -117 131 -177z" />
    <glyph glyph-name="Zsmall" unicode="&#xf77a;" horiz-adv-x="497" 
d="M35 509h439v-25c-72 -116 -195 -291 -262 -376h255v-108h-449v25c97 123 216 294 266 376h-249v108z" />
    <glyph glyph-name="exclamdownsmall" unicode="&#xf7a1;" horiz-adv-x="327" 
d="M235 0h-143l27 302h91zM164 369c-60 0 -80 9 -80 70c0 66 20 78 80 78c58 0 78 -12 78 -78c0 -61 -20 -70 -78 -70z" />
    <glyph glyph-name="questiondownsmall" unicode="&#xf7bf;" horiz-adv-x="482" 
d="M250 376c-60 0 -79 9 -79 70c0 66 19 78 79 78c58 0 78 -12 78 -78c0 -61 -20 -70 -78 -70zM193 317h123c-86 -66 -131 -107 -131 -173c0 -35 22 -49 88 -49c45 0 101 7 139 18l20 -103c-44 -9 -108 -17 -168 -17c-155 0 -219 36 -219 128c0 81 40 131 148 196z" />
    <glyph glyph-name="Agravesmall" unicode="&#xf7e0;" horiz-adv-x="563" 
d="M427 0c-15 34 -31 77 -47 123h-213c-14 -44 -26 -86 -36 -123h-128c44 152 121 357 183 509h193c48 -163 118 -373 178 -509h-130zM288 409h-21c-24 -59 -48 -126 -71 -195h153c-24 71 -44 136 -61 195zM385 568h-110l-144 129h132z" />
    <glyph glyph-name="Aacutesmall" unicode="&#xf7e1;" horiz-adv-x="563" 
d="M427 0c-15 34 -31 77 -47 123h-213c-14 -44 -26 -86 -36 -123h-128c44 152 121 357 183 509h193c48 -163 118 -373 178 -509h-130zM288 409h-21c-24 -59 -48 -126 -71 -195h153c-24 71 -44 136 -61 195zM291 568h-109l121 129h133z" />
    <glyph glyph-name="Acircumflexsmall" unicode="&#xf7e2;" horiz-adv-x="563" 
d="M427 0c-15 34 -31 77 -47 123h-213c-14 -44 -26 -86 -36 -123h-128c44 152 121 357 183 509h193c48 -163 118 -373 178 -509h-130zM288 409h-21c-24 -59 -48 -126 -71 -195h153c-24 71 -44 136 -61 195zM466 568h-117l-71 76l-69 -76h-113l122 129h122z" />
    <glyph glyph-name="Atildesmall" unicode="&#xf7e3;" horiz-adv-x="563" 
d="M427 0c-15 34 -31 77 -47 123h-213c-14 -44 -26 -86 -36 -123h-128c44 152 121 357 183 509h193c48 -163 118 -373 178 -509h-130zM288 409h-21c-24 -59 -48 -126 -71 -195h153c-24 71 -44 136 -61 195zM400 702l62 -50c-19 -54 -57 -93 -117 -93s-92 53 -141 53
c-20 0 -36 -12 -52 -51l-56 55c28 49 59 81 109 81c68 0 95 -53 142 -53c24 0 37 13 53 58z" />
    <glyph glyph-name="Adieresissmall" unicode="&#xf7e4;" horiz-adv-x="563" 
d="M427 0c-15 34 -31 77 -47 123h-213c-14 -44 -26 -86 -36 -123h-128c44 152 121 357 183 509h193c48 -163 118 -373 178 -509h-130zM288 409h-21c-24 -59 -48 -126 -71 -195h153c-24 71 -44 136 -61 195zM172 681c45 0 60 -7 60 -55c0 -53 -15 -62 -60 -62s-59 9 -59 62
c0 48 14 55 59 55zM386 681c44 0 59 -7 59 -55c0 -53 -15 -62 -59 -62c-46 0 -60 9 -60 62c0 48 14 55 60 55z" />
    <glyph glyph-name="Aringsmall" unicode="&#xf7e5;" horiz-adv-x="563" 
d="M427 0c-15 34 -31 77 -47 123h-213c-14 -44 -26 -86 -36 -123h-128c44 152 121 357 183 509h193c48 -163 118 -373 178 -509h-130zM288 409h-21c-24 -59 -48 -126 -71 -195h153c-24 71 -44 136 -61 195zM277 741c80 0 119 -26 119 -98c0 -73 -39 -98 -119 -98
s-120 25 -120 98c0 72 35 98 120 98zM277 684c-41 0 -50 -13 -50 -43c0 -29 9 -43 50 -43s50 15 50 43c0 30 -9 43 -50 43z" />
    <glyph glyph-name="AEsmall" unicode="&#xf7e6;" horiz-adv-x="808" 
d="M706 313v-95h-210v-117h274v-101h-398v125h-224l-80 -125h-135c96 152 242 357 357 509h480v-101h-274v-95h210zM349 417l-141 -200h164v200h-23z" />
    <glyph glyph-name="Ccedillasmall" unicode="&#xf7e7;" horiz-adv-x="470" 
d="M430 118l28 -106c-39 -15 -102 -25 -149 -26v-28c78 0 110 -19 110 -78c0 -63 -37 -83 -137 -83c-47 0 -73 5 -98 16l22 54c16 -8 43 -12 71 -12c31 0 41 6 41 26c0 25 -22 30 -94 26l31 82c-127 12 -204 81 -204 268c0 208 98 267 252 267c49 0 117 -10 155 -24
l-28 -106c-32 12 -77 22 -118 22c-90 0 -133 -20 -133 -161c0 -135 43 -161 133 -161c43 0 86 11 118 24z" />
    <glyph glyph-name="Egravesmall" unicode="&#xf7e8;" horiz-adv-x="505" 
d="M467 509v-101h-274v-95h210v-95h-210v-117h274v-101h-398v509h398zM385 568h-110l-144 129h132z" />
    <glyph glyph-name="Eacutesmall" unicode="&#xf7e9;" horiz-adv-x="505" 
d="M467 509v-101h-274v-95h210v-95h-210v-117h274v-101h-398v509h398zM287 568h-109l121 129h133z" />
    <glyph glyph-name="Ecircumflexsmall" unicode="&#xf7ea;" horiz-adv-x="505" 
d="M467 509v-101h-274v-95h210v-95h-210v-117h274v-101h-398v509h398zM467 568h-117l-71 76l-69 -76h-113l122 129h122z" />
    <glyph glyph-name="Edieresissmall" unicode="&#xf7eb;" horiz-adv-x="505" 
d="M467 509v-101h-274v-95h210v-95h-210v-117h274v-101h-398v509h398zM174 681c45 0 60 -7 60 -55c0 -53 -15 -62 -60 -62s-59 9 -59 62c0 48 14 55 59 55zM388 681c44 0 59 -7 59 -55c0 -53 -15 -62 -59 -62c-46 0 -60 9 -60 62c0 48 14 55 60 55z" />
    <glyph glyph-name="Igravesmall" unicode="&#xf7ec;" horiz-adv-x="262" 
d="M193 509v-509h-124v509h124zM214 568h-110l-144 129h132z" />
    <glyph glyph-name="Iacutesmall" unicode="&#xf7ed;" horiz-adv-x="262" 
d="M193 509v-509h-124v509h124zM153 568h-109l121 129h133z" />
    <glyph glyph-name="Icircumflexsmall" unicode="&#xf7ee;" horiz-adv-x="262" 
d="M193 509v-509h-124v509h124zM317 568h-117l-71 76l-69 -76h-113l122 129h122z" />
    <glyph glyph-name="Idieresissmall" unicode="&#xf7ef;" horiz-adv-x="262" 
d="M193 509v-509h-124v509h124zM25 681c45 0 60 -7 60 -55c0 -53 -15 -62 -60 -62s-59 9 -59 62c0 48 14 55 59 55zM239 681c44 0 59 -7 59 -55c0 -53 -15 -62 -59 -62c-46 0 -60 9 -60 62c0 48 14 55 60 55z" />
    <glyph glyph-name="Ethsmall" unicode="&#xf7f0;" horiz-adv-x="584" 
d="M22 220v90h47v199h216c163 0 247 -54 247 -252c0 -199 -83 -257 -247 -257h-216v220h-47zM276 413h-83v-103h89v-90h-89v-124h83c88 0 128 25 128 159c0 138 -40 158 -128 158z" />
    <glyph glyph-name="Ntildesmall" unicode="&#xf7f1;" horiz-adv-x="593" 
d="M400 198v311h124v-509h-124c-61 109 -138 235 -207 321v-321h-124v509h122c71 -92 148 -201 209 -311zM424 702l62 -50c-19 -54 -57 -93 -117 -93s-92 53 -141 53c-20 0 -36 -12 -52 -51l-56 55c28 49 59 81 109 81c68 0 95 -53 142 -53c24 0 37 13 53 58z" />
    <glyph glyph-name="Ogravesmall" unicode="&#xf7f2;" 
d="M293 -14c-162 0 -242 62 -242 271c0 208 81 267 242 267c163 0 244 -59 244 -267c0 -209 -80 -271 -244 -271zM293 424c-87 0 -114 -23 -114 -169c0 -141 27 -169 114 -169c89 0 116 28 116 169c0 146 -27 169 -116 169zM397 568h-110l-144 129h132z" />
    <glyph glyph-name="Oacutesmall" unicode="&#xf7f3;" 
d="M293 -14c-162 0 -242 62 -242 271c0 208 81 267 242 267c163 0 244 -59 244 -267c0 -209 -80 -271 -244 -271zM293 424c-87 0 -114 -23 -114 -169c0 -141 27 -169 114 -169c89 0 116 28 116 169c0 146 -27 169 -116 169zM307 568h-109l121 129h133z" />
    <glyph glyph-name="Ocircumflexsmall" unicode="&#xf7f4;" 
d="M293 -14c-162 0 -242 62 -242 271c0 208 81 267 242 267c163 0 244 -59 244 -267c0 -209 -80 -271 -244 -271zM293 424c-87 0 -114 -23 -114 -169c0 -141 27 -169 114 -169c89 0 116 28 116 169c0 146 -27 169 -116 169zM477 568h-117l-71 76l-69 -76h-113l122 129h122z
" />
    <glyph glyph-name="Otildesmall" unicode="&#xf7f5;" 
d="M293 -14c-162 0 -242 62 -242 271c0 208 81 267 242 267c163 0 244 -59 244 -267c0 -209 -80 -271 -244 -271zM293 424c-87 0 -114 -23 -114 -169c0 -141 27 -169 114 -169c89 0 116 28 116 169c0 146 -27 169 -116 169zM413 702l62 -50c-19 -54 -57 -93 -117 -93
s-92 53 -141 53c-20 0 -36 -12 -52 -51l-56 55c28 49 59 81 109 81c68 0 95 -53 142 -53c24 0 37 13 53 58z" />
    <glyph glyph-name="Odieresissmall" unicode="&#xf7f6;" 
d="M293 -14c-162 0 -242 62 -242 271c0 208 81 267 242 267c163 0 244 -59 244 -267c0 -209 -80 -271 -244 -271zM293 424c-87 0 -114 -23 -114 -169c0 -141 27 -169 114 -169c89 0 116 28 116 169c0 146 -27 169 -116 169zM186 681c45 0 60 -7 60 -55
c0 -53 -15 -62 -60 -62s-59 9 -59 62c0 48 14 55 59 55zM400 681c44 0 59 -7 59 -55c0 -53 -15 -62 -59 -62c-46 0 -60 9 -60 62c0 48 14 55 60 55z" />
    <glyph glyph-name="Oslashsmall" unicode="&#xf7f8;" 
d="M462 509h107l-67 -76c23 -41 35 -98 35 -176c0 -209 -80 -271 -244 -271c-63 0 -113 10 -151 33l-17 -19h-105l66 76c-23 42 -35 101 -35 181c0 208 81 267 242 267c64 0 115 -9 153 -33zM293 423c-83 0 -116 -22 -116 -148c0 -34 3 -67 7 -89l187 220
c-18 13 -43 17 -78 17zM293 87c94 0 116 40 116 166c0 25 -1 46 -6 68l-186 -217c17 -13 42 -17 76 -17z" />
    <glyph glyph-name="Ugravesmall" unicode="&#xf7f9;" horiz-adv-x="578" 
d="M289 97c80 0 99 30 99 102v310h123v-303c0 -166 -59 -220 -222 -220s-223 54 -223 220v303h124v-310c0 -72 19 -102 99 -102zM390 568h-110l-144 129h132z" />
    <glyph glyph-name="Uacutesmall" unicode="&#xf7fa;" horiz-adv-x="578" 
d="M289 97c80 0 99 30 99 102v310h123v-303c0 -166 -59 -220 -222 -220s-223 54 -223 220v303h124v-310c0 -72 19 -102 99 -102zM294 568h-109l121 129h133z" />
    <glyph glyph-name="Ucircumflexsmall" unicode="&#xf7fb;" horiz-adv-x="578" 
d="M289 97c80 0 99 30 99 102v310h123v-303c0 -166 -59 -220 -222 -220s-223 54 -223 220v303h124v-310c0 -72 19 -102 99 -102zM473 568h-117l-71 76l-69 -76h-113l122 129h122z" />
    <glyph glyph-name="Udieresissmall" unicode="&#xf7fc;" horiz-adv-x="578" 
d="M289 97c80 0 99 30 99 102v310h123v-303c0 -166 -59 -220 -222 -220s-223 54 -223 220v303h124v-310c0 -72 19 -102 99 -102zM183 681c45 0 60 -7 60 -55c0 -53 -15 -62 -60 -62s-59 9 -59 62c0 48 14 55 59 55zM397 681c44 0 59 -7 59 -55c0 -53 -15 -62 -59 -62
c-46 0 -60 9 -60 62c0 48 14 55 60 55z" />
    <glyph glyph-name="Yacutesmall" unicode="&#xf7fd;" horiz-adv-x="487" 
d="M250 332c42 51 93 125 126 177h136c-62 -95 -135 -196 -202 -278v-231h-124v231c-67 94 -151 207 -211 278h144c41 -49 90 -117 131 -177zM265 568h-109l121 129h133z" />
    <glyph glyph-name="Thornsmall" unicode="&#xf7fe;" horiz-adv-x="563" 
d="M193 97v-97h-124v509h124v-88h172c114 0 160 -55 160 -164c0 -97 -42 -160 -150 -160h-182zM340 325h-147v-137h147c36 0 55 20 55 67c0 49 -18 70 -55 70z" />
    <glyph glyph-name="Ydieresissmall" unicode="&#xf7ff;" horiz-adv-x="487" 
d="M250 332c42 51 93 125 126 177h136c-62 -95 -135 -196 -202 -278v-231h-124v231c-67 94 -151 207 -211 278h144c41 -49 90 -117 131 -177zM145 681c45 0 60 -7 60 -55c0 -53 -15 -62 -60 -62s-59 9 -59 62c0 48 14 55 59 55zM359 681c44 0 59 -7 59 -55
c0 -53 -15 -62 -59 -62c-46 0 -60 9 -60 62c0 48 14 55 60 55z" />
    <glyph glyph-name="Gcedilla" horiz-adv-x="700" 
d="M493 116v180h-152v111h287v-391c-51 -16 -144 -27 -221 -29v-29c78 0 110 -19 110 -78c0 -63 -37 -83 -137 -83c-47 0 -73 5 -98 16l22 54c16 -8 43 -12 71 -12c31 0 41 6 41 26c0 25 -22 30 -94 26l30 80c-202 7 -299 96 -299 368c0 285 119 359 346 359
c63 0 156 -11 210 -26l-27 -115c-37 13 -126 21 -173 21c-158 0 -215 -26 -215 -240s57 -248 209 -248c33 0 69 5 90 10z" />
    <glyph glyph-name="Idot" horiz-adv-x="308" 
d="M88 697h132v-697h-132v697zM154 867c45 0 60 -8 60 -56c0 -52 -15 -61 -60 -61s-59 9 -59 61c0 48 14 56 59 56z" />
    <glyph glyph-name="Breve" horiz-adv-x="323" 
d="M117 871h85c0 -47 22 -58 66 -58c43 0 67 11 67 58h80c0 -95 -53 -137 -150 -137c-94 0 -148 42 -148 137z" />
    <glyph glyph-name="Circumflex" horiz-adv-x="660" 
d="M419 747l-72 78l-70 -78h-112l122 129h122l126 -129h-116z" />
    <glyph glyph-name="Dotaccent" horiz-adv-x="302" 
d="M153 867c45 0 60 -8 60 -56c0 -52 -15 -61 -60 -61s-59 9 -59 61c0 48 14 56 59 56z" />
    <glyph glyph-name="gacute" 
d="M394 143v262c-29 11 -67 17 -98 17c-88 0 -117 -23 -117 -168c0 -127 27 -159 114 -159c55 0 101 17 101 48zM394 21c-28 -17 -71 -33 -129 -33c-140 0 -214 58 -214 265c0 208 77 271 245 271c73 0 167 -15 222 -38v-447c0 -199 -111 -243 -272 -243
c-58 0 -135 13 -179 30l25 100c47 -15 105 -25 153 -25c94 0 149 26 149 120zM309 568h-109l121 129h133z" />
    <glyph glyph-name="ldotaccent" horiz-adv-x="268" 
d="M193 722v-579c0 -49 11 -83 39 -120l-109 -47c-35 40 -54 88 -54 162v584h124zM289 450c45 0 60 -7 60 -55c0 -53 -15 -62 -60 -62s-59 9 -59 62c0 48 14 55 59 55z" />
    <glyph glyph-name="Ring" horiz-adv-x="714" 
d="M360 890c80 0 119 -26 119 -98s-39 -98 -119 -98s-120 26 -120 98s35 98 120 98zM360 834c-41 0 -50 -14 -50 -43s9 -43 50 -43s50 14 50 43c0 30 -9 43 -50 43z" />
    <glyph glyph-name="Tilde" horiz-adv-x="708" 
d="M525 879l61 -50c-19 -52 -61 -93 -120 -93s-96 54 -143 54c-20 0 -36 -12 -51 -50l-56 55c27 47 58 79 107 79c68 0 102 -52 148 -52c23 0 38 13 54 57z" />
    <glyph glyph-name="Dmacron" horiz-adv-x="736" 
d="M88 697h266c221 0 329 -75 329 -346c0 -270 -108 -351 -329 -351h-266v697zM542 350c0 205 -47 233 -201 233h-121v-469h121c154 0 201 39 201 236zM212 753v92h278v-92h-278z" />
    <glyph glyph-name="zerop" horiz-adv-x="632" 
d="M316 714c173 0 262 -74 262 -356c0 -286 -88 -372 -262 -372c-173 0 -262 86 -262 372c0 282 89 356 262 356zM316 105c103 0 131 43 131 253c0 211 -28 239 -131 239c-102 0 -130 -28 -130 -239c0 -210 28 -253 130 -253z" />
    <glyph glyph-name="onep" horiz-adv-x="397" 
d="M309 0h-130v556l-156 -67l-36 108l322 129v-726z" />
    <glyph glyph-name="twop" horiz-adv-x="609" 
d="M97 568l-29 114c59 18 142 32 223 32c173 0 257 -44 257 -205c0 -142 -44 -199 -327 -395h327v-114h-506v106c346 264 367 289 367 392c0 76 -35 97 -130 97c-62 0 -142 -12 -182 -27z" />
    <glyph glyph-name="threep" horiz-adv-x="599" 
d="M182 310v112h96c85 0 117 21 117 89c0 63 -27 85 -150 85c-54 0 -133 -9 -175 -22l-26 114c60 13 146 26 226 26c200 0 264 -52 264 -178c0 -92 -25 -156 -149 -167c132 -6 163 -76 163 -181c0 -151 -82 -202 -280 -202c-73 0 -166 11 -229 25l25 114
c46 -13 124 -20 178 -20c134 0 163 26 163 101c0 79 -34 104 -124 104h-99z" />
    <glyph glyph-name="fourp" horiz-adv-x="606" 
d="M364 179h-348v41c73 131 202 346 298 477h176v-409h93v-109h-93v-179h-126v179zM364 288v295c-67 -88 -150 -226 -188 -295h188z" />
    <glyph glyph-name="fivep" horiz-adv-x="608" 
d="M92 697h432v-114h-308v-155c27 2 55 4 84 4c195 0 255 -61 255 -217c0 -177 -75 -229 -273 -229c-68 0 -165 11 -222 25l26 114c43 -13 116 -20 170 -20c129 0 156 22 156 103c0 87 -22 112 -149 112c-55 0 -125 -5 -171 -14v391z" />
    <glyph glyph-name="sixp" horiz-adv-x="629" 
d="M562 687l-29 -116c-37 14 -101 23 -164 23c-107 0 -170 -26 -174 -173c40 7 93 11 132 11c196 0 258 -61 258 -217c0 -177 -71 -229 -262 -229c-198 0 -269 83 -269 368s89 360 315 360c62 0 139 -11 193 -27zM323 105c102 0 124 27 124 103c0 79 -21 112 -114 112
c-74 0 -114 -6 -140 -10c3 -174 43 -205 130 -205z" />
    <glyph glyph-name="sevenp" horiz-adv-x="528" 
d="M547 697v-40c-92 -147 -237 -462 -302 -657h-149c73 200 190 461 276 583h-360v114h535z" />
    <glyph glyph-name="eightp" horiz-adv-x="631" 
d="M316 94c96 0 124 27 124 107c0 81 -32 113 -124 113c-93 0 -125 -32 -125 -113c0 -80 28 -107 125 -107zM316 417c79 0 113 27 113 98c0 69 -30 89 -113 89c-84 0 -114 -20 -114 -89c0 -71 34 -98 114 -98zM316 -14h-1c-190 0 -262 53 -262 202c0 105 30 175 163 181
c-125 11 -148 75 -148 167c0 122 53 178 247 178s248 -56 248 -178c0 -92 -23 -156 -148 -167c132 -6 162 -76 162 -181c0 -149 -71 -202 -261 -202z" />
    <glyph glyph-name="ninep" horiz-adv-x="626" 
d="M168 0c93 88 180 182 225 273c-24 -3 -69 -5 -86 -5c-196 0 -258 54 -258 210c0 177 70 236 262 236c209 0 265 -53 265 -241c0 -199 -112 -346 -243 -473h-165zM321 380c35 0 74 2 108 7c6 23 8 47 8 72c0 121 -31 137 -126 137c-103 0 -125 -34 -125 -112
c0 -86 23 -104 135 -104z" />
    <glyph glyph-name="g.2" 
d="M526 492v-122c0 -131 -94 -196 -240 -196c-31 0 -58 4 -80 10c-3 -8 -5 -21 -5 -29c0 -33 31 -45 140 -49c145 -4 206 -45 206 -137c0 -131 -103 -173 -273 -173c-86 0 -162 12 -210 27l25 109c42 -16 109 -29 181 -29c108 0 148 17 148 56c0 36 -17 43 -132 47
c-163 5 -203 35 -203 115c0 34 12 64 29 88c-39 26 -58 69 -58 137c0 113 68 178 245 178c73 0 172 -13 227 -32zM402 361v49c-29 8 -70 12 -108 12c-83 0 -112 -16 -112 -75c0 -57 30 -72 108 -72c72 0 112 28 112 86z" />
    <glyph glyph-name="ct" horiz-adv-x="855" 
d="M534 171v230c-93 0 -191 16 -228 16c-89 0 -127 -21 -127 -162c0 -135 38 -162 127 -162c39 0 81 8 112 21l28 -102c-40 -16 -98 -26 -148 -26c-150 0 -247 62 -247 271c0 208 99 267 247 267c52 0 145 -15 236 -15v86l124 51v-137h169v-108h-169v-219
c0 -63 19 -89 79 -89c33 0 60 6 85 14l22 -98c-35 -13 -89 -23 -138 -23c-114 0 -172 34 -172 185z" />
    <glyph glyph-name="arrowupleft" horiz-adv-x="695" 
d="M109 119l-24 507l506 -24v-125l-291 16l341 -341l-83 -83l-341 341l17 -290z" />
    <glyph glyph-name="arrowupright" horiz-adv-x="695" 
d="M115 601l505 25l-23 -507l-125 1l16 290l-340 -341l-83 83l341 341l-291 -17v125z" />
    <glyph glyph-name="arrowdownleft" horiz-adv-x="695" 
d="M85 69l24 506l125 -1l-17 -290l341 341l83 -83l-341 -340l291 16v-125z" />
    <glyph glyph-name="arrowdownright" horiz-adv-x="695" 
d="M620 68l-505 24v125l291 -16l-341 340l83 84l340 -341l-16 290l125 1z" />
    <glyph glyph-name="dmacron" 
d="M305 577v89h89v56h124v-56h49v-89h-49v-554c-55 -22 -149 -37 -222 -37c-168 0 -245 60 -245 269c0 206 85 269 221 269c58 0 95 -14 122 -29v82h-89zM394 107v263c0 30 -44 49 -100 49c-87 0 -115 -35 -115 -162c0 -139 29 -165 117 -165c34 0 72 6 98 15z" />
    <glyph glyph-name="Ldotaccent" horiz-adv-x="551" 
d="M88 697h132v-582h329v-115h-461v697zM354 463c45 0 60 -8 60 -56c0 -52 -15 -61 -60 -61s-59 9 -59 61c0 48 14 56 59 56z" />
    <glyph glyph-name="st" horiz-adv-x="894" 
d="M573 171v230c-132 1 -263 22 -314 22c-61 0 -92 -6 -92 -59c0 -35 22 -47 105 -55c123 -13 177 -51 177 -153c0 -132 -88 -170 -218 -170c-54 0 -134 10 -182 27l26 98c37 -13 100 -24 151 -24c68 0 100 9 100 62c0 36 -20 53 -109 61c-112 9 -172 40 -172 145
c0 132 89 169 218 169c53 0 198 -15 310 -15v86l124 51v-137h169v-108h-169v-219c0 -63 19 -89 79 -89c33 0 60 6 85 14l22 -98c-35 -13 -89 -23 -138 -23c-114 0 -172 34 -172 185z" />
    <glyph glyph-name="orn1" horiz-adv-x="603" 
d="M303 -97c-55 114 -257 28 -257 308c0 143 51 214 141 214c34 0 72 -10 116 -30c43 19 83 29 117 29c91 0 141 -69 141 -211c0 -280 -212 -195 -258 -310zM303 294c-29 18 -54 29 -74 29c-35 0 -56 -32 -56 -112c0 -162 91 -107 130 -177c35 70 130 13 130 178
c0 79 -16 110 -50 110c-21 0 -47 -11 -80 -28zM303 408c6 18 8 36 8 53c0 60 -36 102 -100 102h-211v101h603v-101h-245c10 -12 15 -29 15 -46c0 -38 -22 -85 -70 -109z" />
    <glyph glyph-name="orn2" horiz-adv-x="603" 
d="M300 -97c-47 115 -259 30 -259 310c0 142 51 211 142 211c34 0 73 -10 117 -29c43 20 81 30 115 30c90 0 142 -71 142 -214c0 -280 -203 -194 -257 -308zM300 408c-49 24 -71 71 -71 109c0 17 6 34 16 46h-245v101h603v-101h-211c-64 0 -101 -42 -101 -102
c0 -17 3 -35 9 -53z" />
    <glyph glyph-name="orn3" horiz-adv-x="603" 
d="M303 664c46 -114 258 -30 258 -309c0 -143 -50 -212 -141 -212c-34 0 -74 10 -117 29c-44 -19 -82 -29 -116 -29c-90 0 -141 70 -141 214c0 280 202 194 257 307zM303 273c33 -17 59 -27 80 -27c34 0 50 30 50 110c0 164 -95 108 -130 178c-39 -70 -130 -15 -130 -177
c0 -81 21 -112 56 -112c20 0 45 11 74 28zM303 160c48 -25 70 -71 70 -109c0 -18 -5 -35 -15 -46h245v-101h-603v101h211c64 0 100 42 100 102c0 17 -2 34 -8 53z" />
    <glyph glyph-name="orn4" horiz-adv-x="603" 
d="M300 664c54 -113 257 -27 257 -307c0 -144 -52 -214 -142 -214c-34 0 -72 10 -115 29c-44 -19 -83 -29 -117 -29c-91 0 -142 69 -142 212c0 279 212 195 259 309zM300 160c-6 -19 -9 -36 -9 -53c0 -60 37 -102 101 -102h211v-101h-603v101h245c-10 11 -16 28 -16 46
c0 38 22 84 71 109z" />
    <glyph glyph-name="orn5" horiz-adv-x="843" 
d="M15 282c113 55 27 257 307 257c144 0 214 -51 214 -141c0 -34 -10 -72 -29 -116c19 -43 29 -83 29 -117c0 -91 -69 -141 -212 -141c-279 0 -195 212 -309 258zM406 282c17 29 28 54 28 74c0 35 -31 56 -112 56c-162 0 -107 -91 -177 -130c70 -35 14 -130 178 -130
c80 0 110 16 110 50c0 21 -10 47 -27 80zM519 282c19 -6 36 -8 53 -8c60 0 102 36 102 100v211h101v-603h-101v245c-11 -10 -28 -15 -46 -15c-38 0 -84 22 -109 70z" />
    <glyph glyph-name="orn6" horiz-adv-x="843" 
d="M15 285c114 47 30 259 309 259c143 0 212 -51 212 -142c0 -34 -10 -73 -29 -117c19 -43 29 -81 29 -115c0 -90 -70 -142 -214 -142c-280 0 -194 203 -307 257zM519 285c25 49 71 71 109 71c18 0 35 -6 46 -16v245h101v-603h-101v211c0 64 -42 101 -102 101
c-17 0 -34 -3 -53 -9z" />
    <glyph glyph-name="orn7" horiz-adv-x="843" 
d="M828 283c-115 -47 -30 -259 -310 -259c-142 0 -211 51 -211 142c0 34 10 73 29 117c-20 43 -30 81 -30 115c0 90 71 142 214 142c280 0 194 -203 308 -257zM437 283c-17 -33 -28 -60 -28 -80c0 -35 31 -51 110 -51c165 0 108 95 178 131c-70 39 -15 129 -177 129
c-80 0 -112 -21 -112 -55c0 -20 11 -45 29 -74zM323 283c-24 -49 -71 -71 -109 -71c-17 0 -34 6 -46 16v-245h-101v603h101v-211c0 -64 42 -101 102 -101c17 0 35 3 53 9z" />
    <glyph glyph-name="orn8" horiz-adv-x="843" 
d="M828 286c-114 -55 -28 -257 -308 -257c-143 0 -214 51 -214 141c0 34 10 72 30 116c-19 43 -29 83 -29 117c0 91 69 141 211 141c280 0 195 -212 310 -258zM323 286c-18 6 -36 8 -53 8c-60 0 -102 -36 -102 -100v-211h-101v603h101v-245c12 10 29 15 46 15
c38 0 85 -22 109 -70z" />
    <glyph glyph-name="publish" horiz-adv-x="837" 
d="M777 355c0 -288 -122 -369 -359 -369s-358 81 -358 369c0 283 122 359 358 359c237 0 359 -76 359 -359zM505 411c0 39 -11 60 -44 60h-95v-117h93c35 0 46 20 46 57zM611 410c0 -89 -38 -146 -118 -146h-127v-122h-105v417h231c87 0 119 -60 119 -149zM418 622
c-184 0 -248 -36 -248 -268c0 -233 64 -276 248 -276c185 0 249 43 249 276c0 232 -64 268 -249 268z" />
    <glyph glyph-name="zerob" horiz-adv-x="770" 
d="M384 614c-125 0 -189 -54 -189 -258c0 -208 64 -270 189 -270c126 0 190 62 190 270c0 204 -64 258 -190 258zM384 171c-74 0 -95 32 -95 185c0 154 21 175 95 175c76 0 97 -21 97 -175c0 -153 -21 -185 -97 -185zM385 714c221 0 331 -76 331 -359
c0 -288 -110 -369 -331 -369c-222 0 -332 81 -332 369c0 283 111 359 332 359z" />
    <glyph glyph-name="oneb" horiz-adv-x="770" 
d="M354 100h92v526l-232 -93l26 -77l114 49v-405zM385 714c221 0 331 -76 331 -359c0 -288 -110 -369 -331 -369c-222 0 -332 81 -332 369c0 283 111 359 332 359z" />
    <glyph glyph-name="twob" horiz-adv-x="770" 
d="M385 714c221 0 331 -76 331 -359c0 -288 -110 -369 -331 -369c-222 0 -332 81 -332 369c0 283 111 359 332 359zM211 592l20 -80c30 10 88 19 133 19c69 0 95 -16 95 -72c0 -74 -16 -93 -267 -286v-75h366v81h-239c207 144 239 186 239 288c0 116 -61 149 -187 149
c-57 0 -118 -10 -160 -24z" />
    <glyph glyph-name="threeb" horiz-adv-x="770" 
d="M305 402v-81h71c68 0 93 -18 93 -76c0 -55 -22 -74 -120 -74c-39 0 -96 5 -129 15l-18 -81c45 -11 113 -19 165 -19c144 0 203 37 203 147c0 75 -22 127 -118 131c90 8 106 55 106 121c0 91 -46 129 -191 129c-58 0 -118 -9 -162 -19l18 -81c31 9 87 15 126 15
c90 0 110 -16 110 -61c0 -50 -22 -66 -84 -66h-70zM385 714c221 0 331 -76 331 -359c0 -288 -110 -369 -331 -369c-222 0 -332 81 -332 369c0 283 111 359 332 359z" />
    <glyph glyph-name="fourb" horiz-adv-x="770" 
d="M162 226h252v-130h91v130h67v78h-67v297h-127c-70 -95 -164 -251 -216 -346v-29zM414 520v-216h-138c28 51 89 152 138 216zM385 714c221 0 331 -76 331 -359c0 -288 -110 -369 -331 -369c-222 0 -332 81 -332 369c0 283 111 359 332 359z" />
    <glyph glyph-name="fiveb" horiz-adv-x="770" 
d="M539 599h-312v-282c34 6 84 10 124 10c93 0 110 -19 110 -82c0 -60 -20 -76 -115 -76c-39 0 -92 5 -124 15l-18 -82c41 -10 111 -18 160 -18c144 0 198 38 198 165c0 113 -43 158 -185 158c-21 0 -42 -1 -61 -3v112h223v83zM385 714c221 0 331 -76 331 -359
c0 -288 -110 -369 -331 -369c-222 0 -332 81 -332 369c0 283 111 359 332 359z" />
    <glyph glyph-name="sixb" horiz-adv-x="770" 
d="M538 511l21 83c-39 12 -95 20 -140 20c-163 0 -228 -55 -228 -261c0 -207 51 -267 195 -267c138 0 189 38 189 166c0 113 -45 157 -187 157c-28 0 -67 -2 -97 -8c6 111 43 127 128 127c46 0 92 -7 119 -17zM477 247c0 -56 -17 -76 -91 -76c-65 0 -94 23 -96 151
c25 4 57 7 88 7c82 0 99 -20 99 -82zM385 714c221 0 331 -76 331 -359c0 -288 -110 -369 -331 -369c-222 0 -332 81 -332 369c0 283 111 359 332 359z" />
    <glyph glyph-name="sevenb" horiz-adv-x="770" 
d="M274 96h101c55 152 139 348 221 505h-392v-83h254c-57 -110 -136 -286 -184 -422zM385 714c221 0 331 -76 331 -359c0 -288 -110 -369 -331 -369c-222 0 -332 81 -332 369c0 283 111 359 332 359z" />
    <glyph glyph-name="eightb" horiz-adv-x="770" 
d="M385 163c-71 0 -92 20 -92 79s23 82 92 82c68 0 91 -23 91 -82s-21 -79 -91 -79zM385 398c-59 0 -84 20 -84 72c0 50 22 65 84 65c61 0 82 -15 82 -65c0 -52 -24 -72 -82 -72zM384 86h1c137 0 189 38 189 147c0 75 -22 127 -118 131c91 8 108 55 108 121
c0 88 -40 129 -180 129s-179 -41 -179 -129c0 -66 17 -113 108 -121c-97 -4 -118 -56 -118 -131c0 -109 52 -147 189 -147zM385 714c221 0 331 -76 331 -359c0 -288 -110 -369 -331 -369c-222 0 -332 81 -332 369c0 283 111 359 332 359z" />
    <glyph glyph-name="nineb" horiz-adv-x="770" 
d="M382 293c18 0 42 2 65 4c-34 -67 -97 -135 -165 -199h118c95 91 178 198 178 343c0 137 -41 175 -193 175c-138 0 -189 -43 -189 -171c0 -113 44 -152 186 -152zM479 431c0 -18 -2 -36 -7 -53c-25 -4 -53 -6 -80 -6c-82 0 -98 14 -98 78c0 57 15 82 91 82
c70 0 94 -12 94 -101zM385 -14c-222 0 -332 81 -332 369c0 283 111 359 332 359s331 -76 331 -359c0 -288 -110 -369 -331 -369z" />
    <glyph glyph-name="apple" horiz-adv-x="912" 
d="M273 -14c-137 0 -221 62 -221 269c0 333 301 211 404 406c103 -195 404 -73 404 -406c0 -207 -85 -269 -221 -269c-58 0 -94 15 -122 29v-207h-123v207c-27 -14 -64 -29 -121 -29zM517 474v-334c0 -30 45 -49 100 -49c87 0 116 35 116 161c0 186 -122 142 -216 222z
M394 140v334c-93 -80 -215 -36 -215 -222c0 -126 28 -161 116 -161c55 0 99 19 99 49z" />
    <glyph glyph-name="sp" horiz-adv-x="1076" 
d="M557 -192v570c-103 27 -215 45 -298 45c-61 0 -92 -6 -92 -59c0 -35 22 -47 105 -55c123 -13 177 -51 177 -153c0 -132 -88 -170 -218 -170c-54 0 -134 10 -182 27l26 98c37 -13 100 -24 151 -24c68 0 100 9 100 62c0 36 -20 53 -109 61c-112 9 -172 40 -172 145
c0 132 89 169 218 169c90 0 206 -15 294 -38c55 23 149 38 223 38c168 0 244 -61 244 -269c0 -207 -85 -269 -221 -269c-58 0 -94 15 -122 29v-207h-124zM681 402v-262c0 -30 45 -49 100 -49c87 0 116 35 116 161c0 140 -29 165 -117 165c-34 0 -73 -5 -99 -15z" />
    <glyph glyph-name="at.2" horiz-adv-x="943" 
d="M682 438v-303c-62 -25 -156 -40 -225 -40c-154 0 -206 35 -206 169c0 145 78 166 188 166c43 0 84 -5 125 -14c0 89 -17 112 -128 112c-207 0 -261 -37 -261 -260s61 -271 298 -271c244 0 303 60 303 271c0 65 -7 130 -20 167h109c13 -45 20 -106 20 -169
c0 -298 -115 -373 -411 -373c-292 0 -416 79 -416 373c0 292 132 365 388 365c169 0 236 -44 236 -193zM564 207v126c-29 6 -55 9 -94 9c-62 0 -96 -8 -96 -73c0 -60 20 -79 92 -79c35 0 70 7 98 17z" />
    <glyph glyph-name="ampersand.2" horiz-adv-x="757" 
d="M622 311v-277c-74 -30 -193 -48 -286 -48c-170 0 -274 51 -274 202c0 105 32 175 164 181c-120 11 -143 73 -143 166c0 126 82 179 242 179c57 0 113 -10 164 -24l-36 -114c-35 13 -69 20 -110 20c-92 0 -120 -22 -120 -85c0 -66 29 -90 108 -90h165v85l126 50v-135h134
v-110h-134zM496 121v190h-173c-84 0 -118 -26 -118 -105c0 -75 34 -101 147 -101c46 0 107 6 144 16z" />
    <glyph glyph-name="Abrevesmall" horiz-adv-x="563" 
d="M427 0c-15 34 -31 77 -47 123h-213c-14 -44 -26 -86 -36 -123h-128c44 152 121 357 183 509h193c48 -163 118 -373 178 -509h-130zM288 409h-21c-24 -59 -48 -126 -71 -195h153c-24 71 -44 136 -61 195zM130 697h85c0 -47 22 -58 66 -58c43 0 67 11 67 58h80
c0 -95 -53 -137 -150 -137c-94 0 -148 42 -148 137z" />
    <glyph glyph-name="Amacronsmall" horiz-adv-x="563" 
d="M427 0c-15 34 -31 77 -47 123h-213c-14 -44 -26 -86 -36 -123h-128c44 152 121 357 183 509h193c48 -163 118 -373 178 -509h-130zM288 409h-21c-24 -59 -48 -126 -71 -195h153c-24 71 -44 136 -61 195zM138 576v90h278v-90h-278z" />
    <glyph glyph-name="Aogoneksmall" horiz-adv-x="563" 
d="M427 0c-15 34 -31 77 -47 123h-213c-14 -44 -26 -86 -36 -123h-128c44 152 121 357 183 509h193c48 -163 118 -373 178 -509h-56c-53 -35 -64 -58 -64 -92c0 -28 11 -40 60 -40c32 0 64 11 83 27l35 -63c-32 -24 -87 -35 -131 -35c-102 0 -132 30 -132 89
c0 46 30 88 94 114h-19zM288 409h-21c-24 -59 -48 -126 -71 -195h153c-24 71 -44 136 -61 195z" />
    <glyph glyph-name="bracketleftsmall" horiz-adv-x="378" 
d="M90 657h270v-108h-141v-593h141v-107h-270v808z" />
    <glyph glyph-name="braceleftsmall" horiz-adv-x="356" 
d="M37 201v98c55 0 102 25 102 152c0 137 74 193 154 213l51 -90c-60 -18 -93 -45 -93 -165c0 -126 -57 -152 -93 -159c36 -7 93 -35 93 -161c0 -118 31 -145 93 -164l-51 -89c-80 20 -154 77 -154 213c0 127 -47 152 -102 152z" />
    <glyph glyph-name="Dcaronsmall" horiz-adv-x="584" 
d="M69 509h216c163 0 247 -54 247 -252c0 -199 -83 -257 -247 -257h-216v509zM276 413h-83v-317h83c88 0 128 25 128 159c0 138 -40 158 -128 158zM94 697h117l71 -76l69 76h113l-122 -129h-122z" />
    <glyph glyph-name="Dcroatsmall" horiz-adv-x="584" 
d="M22 220v90h47v199h216c163 0 247 -54 247 -252c0 -199 -83 -257 -247 -257h-216v220h-47zM276 413h-83v-103h89v-90h-89v-124h83c88 0 128 25 128 159c0 138 -40 158 -128 158z" />
    <glyph glyph-name="Dmacronsmall" horiz-adv-x="584" 
d="M69 509h216c163 0 247 -54 247 -252c0 -199 -83 -257 -247 -257h-216v509zM276 413h-83v-317h83c88 0 128 25 128 159c0 138 -40 158 -128 158zM137 576v90h278v-90h-278z" />
    <glyph glyph-name="Emacronsmall" horiz-adv-x="505" 
d="M467 509v-101h-274v-95h210v-95h-210v-117h274v-101h-398v509h398zM134 576v90h278v-90h-278z" />
    <glyph glyph-name="Eurosmall" horiz-adv-x="469" 
d="M421 104l27 -92c-40 -16 -102 -26 -150 -26c-150 0 -247 62 -247 271c0 208 98 267 247 267c49 0 112 -10 150 -24l-27 -92c-32 12 -73 19 -114 19c-59 0 -96 -14 -114 -67h187v-69h-200c-1 -10 -1 -26 -1 -36c0 -12 0 -22 1 -32h200v-68h-188c17 -55 56 -72 115 -72
c43 0 82 8 114 21z" />
    <glyph glyph-name="Eogoneksmall" horiz-adv-x="505" 
d="M467 509v-101h-274v-95h210v-95h-210v-117h274v-101h-61c-53 -35 -64 -58 -64 -92c0 -28 11 -40 60 -40c32 0 64 11 83 27l35 -63c-32 -24 -87 -35 -131 -35c-102 0 -132 30 -132 89c0 46 30 88 94 114h-282v509h398z" />
    <glyph glyph-name="Ecaronsmall" horiz-adv-x="505" 
d="M467 509v-101h-274v-95h210v-95h-210v-117h274v-101h-398v509h398zM103 697h117l71 -76l69 76h113l-122 -129h-122z" />
    <glyph glyph-name="Edotaccentsmall" horiz-adv-x="505" 
d="M467 509v-101h-274v-95h210v-95h-210v-117h274v-101h-398v509h398zM281 681c45 0 60 -7 60 -55c0 -53 -15 -62 -60 -62s-59 9 -59 62c0 48 14 55 59 55z" />
    <glyph glyph-name="Ebrevesmall" horiz-adv-x="505" 
d="M467 509v-101h-274v-95h210v-95h-210v-117h274v-101h-398v509h398zM131 697h85c0 -47 22 -58 66 -58c43 0 67 11 67 58h80c0 -95 -53 -137 -150 -137c-94 0 -148 42 -148 137z" />
    <glyph glyph-name="Gacutesmall" horiz-adv-x="569" 
d="M505 297v-276c-53 -19 -134 -35 -202 -35c-153 0 -252 62 -252 271c0 208 108 267 262 267c49 0 129 -10 170 -24l-32 -102c-34 12 -83 22 -134 22c-90 0 -138 -24 -138 -165c0 -135 47 -165 133 -165c27 0 61 5 82 14v96h-108v97h219zM308 568h-109l121 129h133z" />
    <glyph glyph-name="Gbrevesmall" horiz-adv-x="569" 
d="M505 297v-276c-53 -19 -134 -35 -202 -35c-153 0 -252 62 -252 271c0 208 108 267 262 267c49 0 129 -10 170 -24l-32 -102c-34 12 -83 22 -134 22c-90 0 -138 -24 -138 -165c0 -135 47 -165 133 -165c27 0 61 5 82 14v96h-108v97h219zM161 697h85c0 -47 22 -58 66 -58
c43 0 67 11 67 58h80c0 -95 -53 -137 -150 -137c-94 0 -148 42 -148 137z" />
    <glyph glyph-name="Gcircumflexsmall" horiz-adv-x="569" 
d="M505 297v-276c-53 -19 -134 -35 -202 -35c-153 0 -252 62 -252 271c0 208 108 267 262 267c49 0 129 -10 170 -24l-32 -102c-34 12 -83 22 -134 22c-90 0 -138 -24 -138 -165c0 -135 47 -165 133 -165c27 0 61 5 82 14v96h-108v97h219zM494 568h-117l-71 76l-69 -76h-113
l122 129h122z" />
    <glyph glyph-name="Gcommaaccentsmall" horiz-adv-x="569" 
d="M505 297v-276c-53 -19 -134 -35 -202 -35c-153 0 -252 62 -252 271c0 208 108 267 262 267c49 0 129 -10 170 -24l-32 -102c-34 12 -83 22 -134 22c-90 0 -138 -24 -138 -165c0 -135 47 -165 133 -165c27 0 61 5 82 14v96h-108v97h219zM381 -51l-108 -167h-97l71 167h134
z" />
    <glyph glyph-name="Gdotaccentsmall" horiz-adv-x="569" 
d="M505 297v-276c-53 -19 -134 -35 -202 -35c-153 0 -252 62 -252 271c0 208 108 267 262 267c49 0 129 -10 170 -24l-32 -102c-34 12 -83 22 -134 22c-90 0 -138 -24 -138 -165c0 -135 47 -165 133 -165c27 0 61 5 82 14v96h-108v97h219zM306 681c45 0 60 -7 60 -55
c0 -53 -15 -62 -60 -62s-59 9 -59 62c0 48 14 55 59 55z" />
    <glyph glyph-name="Germandblssmall" horiz-adv-x="981" 
d="M924 496l-27 -97c-40 13 -97 24 -148 24c-61 0 -92 -6 -92 -59c0 -35 22 -47 105 -55c123 -13 177 -51 177 -153c0 -132 -88 -170 -218 -170c-54 0 -134 10 -182 27l26 98c37 -13 100 -24 151 -24c68 0 100 9 100 62c0 36 -20 53 -109 61c-112 9 -172 40 -172 145
c0 132 89 169 218 169c53 0 120 -11 171 -28zM434 496l-27 -97c-40 13 -97 24 -148 24c-61 0 -92 -6 -92 -59c0 -35 22 -47 105 -55c123 -13 177 -51 177 -153c0 -132 -88 -170 -218 -170c-54 0 -134 10 -182 27l26 98c37 -13 100 -24 151 -24c68 0 100 9 100 62
c0 36 -20 53 -109 61c-112 9 -172 40 -172 145c0 132 89 169 218 169c53 0 120 -11 171 -28z" />
    <glyph glyph-name="Hbarsmall" horiz-adv-x="587" 
d="M13 381v79h56v49h124v-49h200v49h124v-49h57v-79h-57v-381h-124v216h-200v-216h-124v381h-56zM193 322h200v59h-200v-59z" />
    <glyph glyph-name="Hcircumflexsmall" horiz-adv-x="587" 
d="M393 216h-200v-216h-124v509h124v-187h200v187h124v-509h-124v216zM480 568h-117l-71 76l-69 -76h-113l122 129h122z" />
    <glyph glyph-name="IJsmall" horiz-adv-x="675" 
d="M193 509v-509h-124v509h124zM607 509v-333c0 -153 -99 -190 -198 -190c-54 0 -106 8 -148 23l24 106c31 -12 72 -20 112 -20c47 0 86 19 86 90v324h124z" />
    <glyph glyph-name="Imacronsmall" horiz-adv-x="262" 
d="M193 509v-509h-124v509h124zM-7 576v90h278v-90h-278z" />
    <glyph glyph-name="Iogoneksmall" horiz-adv-x="262" 
d="M193 509v-509h-42c-53 -35 -64 -58 -64 -92c0 -28 11 -40 60 -40c32 0 64 11 83 27l35 -63c-32 -24 -87 -35 -131 -35c-102 0 -132 30 -132 89c0 46 30 88 94 114h-27v509h124z" />
    <glyph glyph-name="Itildesmall" horiz-adv-x="262" 
d="M193 509v-509h-124v509h124zM255 702l62 -50c-19 -54 -57 -93 -117 -93s-92 53 -141 53c-20 0 -36 -12 -52 -51l-56 55c28 49 59 81 109 81c68 0 95 -53 142 -53c24 0 37 13 53 58z" />
    <glyph glyph-name="Jcircumflexsmall" horiz-adv-x="414" 
d="M346 509v-333c0 -153 -99 -190 -198 -190c-54 0 -106 8 -148 23l24 106c31 -12 72 -20 112 -20c47 0 86 19 86 90v324h124zM466 568h-117l-71 76l-69 -76h-113l122 129h122z" />
    <glyph glyph-name="Kcommaaccentsmall" horiz-adv-x="551" 
d="M552 0h-146c-115 167 -185 257 -213 269v-269h-124v509h124v-240c28 23 97 105 197 240h147c-98 -132 -168 -210 -195 -231c26 -16 102 -109 210 -278zM377 -51l-108 -167h-97l71 167h134z" />
    <glyph glyph-name="Lacutesmall" horiz-adv-x="432" 
d="M193 509v-398h240v-111h-364v509h124zM200 568h-109l121 129h133z" />
    <glyph glyph-name="Lcaronsmall" horiz-adv-x="432" 
d="M193 509v-398h240v-111h-364v509h124zM271 540h110l-57 -192h-73z" />
    <glyph glyph-name="Lcommaaccentsmall" horiz-adv-x="432" 
d="M193 509v-398h240v-111h-364v509h124zM319 -51l-108 -167h-97l71 167h134z" />
    <glyph glyph-name="Ldotsmall" horiz-adv-x="432" 
d="M193 509v-398h240v-111h-364v509h124zM309 382c45 0 60 -7 60 -55c0 -53 -15 -62 -60 -62s-59 9 -59 62c0 48 14 55 59 55z" />
    <glyph glyph-name="Nacutesmall" horiz-adv-x="593" 
d="M400 198v311h124v-509h-124c-61 109 -138 235 -207 321v-321h-124v509h122c71 -92 148 -201 209 -311zM320 568h-109l121 129h133z" />
    <glyph glyph-name="Ncaronsmall" horiz-adv-x="593" 
d="M400 198v311h124v-509h-124c-61 109 -138 235 -207 321v-321h-124v509h122c71 -92 148 -201 209 -311zM114 697h117l71 -76l69 76h113l-122 -129h-122z" />
    <glyph glyph-name="Ncommaaccentsmall" horiz-adv-x="593" 
d="M400 198v311h124v-509h-124c-61 109 -138 235 -207 321v-321h-124v509h122c71 -92 148 -201 209 -311zM373 -51l-108 -167h-97l71 167h134z" />
    <glyph glyph-name="Obrevesmall" 
d="M293 -14c-162 0 -242 62 -242 271c0 208 81 267 242 267c163 0 244 -59 244 -267c0 -209 -80 -271 -244 -271zM293 423c-87 0 -114 -22 -114 -168c0 -141 27 -168 114 -168c89 0 116 27 116 168c0 146 -27 168 -116 168zM144 697h85c0 -47 22 -58 67 -58
c43 0 66 11 66 58h80c0 -95 -52 -137 -149 -137c-95 0 -149 42 -149 137z" />
    <glyph glyph-name="Ohungarumlautsmall" 
d="M293 -14c-162 0 -242 62 -242 271c0 208 81 267 242 267c163 0 244 -59 244 -267c0 -209 -80 -271 -244 -271zM293 423c-87 0 -114 -22 -114 -168c0 -141 27 -168 114 -168c89 0 116 27 116 168c0 146 -27 168 -116 168zM226 568h-85l91 129h109zM391 568h-86l91 129h109
z" />
    <glyph glyph-name="Omacronsmall" 
d="M293 -14c-162 0 -242 62 -242 271c0 208 81 267 242 267c163 0 244 -59 244 -267c0 -209 -80 -271 -244 -271zM293 423c-87 0 -114 -22 -114 -168c0 -141 27 -168 114 -168c89 0 116 27 116 168c0 146 -27 168 -116 168zM156 576v90h278v-90h-278z" />
    <glyph glyph-name="parenleftsmall" horiz-adv-x="345" 
d="M68 250c0 248 95 366 215 409l57 -92c-79 -30 -142 -96 -142 -317c0 -220 63 -287 142 -317l-57 -92c-120 43 -215 161 -215 409z" />
    <glyph glyph-name="Racutesmall" horiz-adv-x="574" 
d="M369 509c122 0 157 -67 157 -149c0 -72 -31 -136 -140 -140c52 -13 82 -41 183 -220h-144c-81 153 -117 181 -161 181h-71v-181h-124v509h300zM193 279h141c40 0 63 22 63 66s-20 64 -61 64h-143v-130zM282 568h-109l121 129h133z" />
    <glyph glyph-name="Rcaronsmall" horiz-adv-x="574" 
d="M369 509c122 0 157 -67 157 -149c0 -72 -31 -136 -140 -140c52 -13 82 -41 183 -220h-144c-81 153 -117 181 -161 181h-71v-181h-124v509h300zM193 279h141c40 0 63 22 63 66s-20 64 -61 64h-143v-130zM106 697h117l71 -76l69 76h113l-122 -129h-122z" />
    <glyph glyph-name="Rcommaaccentsmall" horiz-adv-x="574" 
d="M369 509c122 0 157 -67 157 -149c0 -72 -31 -136 -140 -140c52 -13 82 -41 183 -220h-144c-81 153 -117 181 -161 181h-71v-181h-124v509h300zM193 279h141c40 0 63 22 63 66s-20 64 -61 64h-143v-130zM371 -51l-108 -167h-97l71 167h134z" />
    <glyph glyph-name="sterlingsmall" horiz-adv-x="513" 
d="M32 203v90h50v50c0 117 70 181 234 181c58 0 123 -10 170 -24l-26 -101c-34 11 -95 19 -144 19c-89 0 -114 -29 -114 -82v-43h154v-90h-154v-99h266v-104h-386v203h-50z" />
    <glyph glyph-name="summationsmall" horiz-adv-x="497" 
d="M473 401h-248c21 -34 58 -89 96 -143c-44 -63 -79 -113 -109 -150h255v-108h-449v25c56 72 113 155 166 232c-52 75 -111 164 -150 227v25h439v-108z" />
    <glyph glyph-name="Tbarsmall" horiz-adv-x="485" 
d="M104 178v90h76v133h-175v108h475v-108h-176v-133h78v-90h-78v-178h-124v178h-76z" />
    <glyph glyph-name="Tcommaaccentsmall" horiz-adv-x="485" 
d="M304 401v-401h-124v401h-175v108h475v-108h-176zM323 -51l-108 -167h-97l71 167h134z" />
    <glyph glyph-name="Tcaronsmall" horiz-adv-x="485" 
d="M304 401v-401h-124v401h-175v108h475v-108h-176zM59 697h117l71 -76l69 76h113l-122 -129h-122z" />
    <glyph glyph-name="Utildesmall" horiz-adv-x="578" 
d="M289 97c80 0 99 30 99 102v310h123v-303c0 -166 -59 -220 -222 -220s-223 54 -223 220v303h124v-310c0 -72 19 -102 99 -102zM410 702l62 -50c-19 -54 -57 -93 -117 -93s-92 53 -141 53c-20 0 -36 -12 -52 -51l-56 55c28 49 59 81 109 81c68 0 95 -53 142 -53
c24 0 37 13 53 58z" />
    <glyph glyph-name="Uringsmall" horiz-adv-x="578" 
d="M289 97c80 0 99 30 99 102v310h123v-303c0 -166 -59 -220 -222 -220s-223 54 -223 220v303h124v-310c0 -72 19 -102 99 -102zM290 741c80 0 119 -26 119 -98c0 -73 -39 -98 -119 -98s-120 25 -120 98c0 72 35 98 120 98zM290 684c-41 0 -50 -13 -50 -43
c0 -29 9 -43 50 -43s50 15 50 43c0 30 -9 43 -50 43z" />
    <glyph glyph-name="Uogoneksmall" horiz-adv-x="578" 
d="M289 97c80 0 99 30 99 102v310h123v-303c0 -143 -44 -203 -159 -216c-40 -29 -49 -51 -49 -82c0 -28 11 -40 60 -40c32 0 64 11 83 27l35 -63c-32 -24 -87 -35 -131 -35c-102 0 -132 30 -132 89c0 38 21 74 66 100c-159 1 -218 55 -218 220v303h124v-310
c0 -72 19 -102 99 -102z" />
    <glyph glyph-name="Umacronsmall" horiz-adv-x="578" 
d="M289 97c80 0 99 30 99 102v310h123v-303c0 -166 -59 -220 -222 -220s-223 54 -223 220v303h124v-310c0 -72 19 -102 99 -102zM153 576v90h278v-90h-278z" />
    <glyph glyph-name="Ubrevesmall" horiz-adv-x="578" 
d="M289 97c80 0 99 30 99 102v310h123v-303c0 -166 -59 -220 -222 -220s-223 54 -223 220v303h124v-310c0 -72 19 -102 99 -102zM143 697h85c0 -47 22 -58 66 -58c43 0 67 11 67 58h80c0 -95 -53 -137 -150 -137c-94 0 -148 42 -148 137z" />
    <glyph glyph-name="Uhungarumlautsmall" horiz-adv-x="578" 
d="M289 97c80 0 99 30 99 102v310h123v-303c0 -166 -59 -220 -222 -220s-223 54 -223 220v303h124v-310c0 -72 19 -102 99 -102zM222 568h-85l91 129h109zM387 568h-86l91 129h109z" />
    <glyph glyph-name="yensmall" horiz-adv-x="487" 
d="M50 220v61h101c-59 82 -124 168 -175 228h142c42 -49 91 -117 132 -177c42 51 93 125 126 177h135c-51 -77 -108 -156 -164 -228h90v-61h-127v-62h127v-62h-127v-96h-124v96h-136v62h136v62h-136z" />
    <glyph glyph-name="Ycircumflexsmall" horiz-adv-x="487" 
d="M250 332c42 51 93 125 126 177h136c-62 -95 -135 -196 -202 -278v-231h-124v231c-67 94 -151 207 -211 278h144c41 -49 90 -117 131 -177zM436 568h-117l-71 76l-69 -76h-113l122 129h122z" />
    <glyph glyph-name="zerosmall" horiz-adv-x="561" 
d="M280 -14c-143 0 -222 62 -222 271c0 208 81 267 222 267c143 0 223 -59 223 -267c0 -209 -79 -271 -223 -271zM280 424c-68 0 -95 -23 -95 -169c0 -141 27 -169 95 -169c70 0 95 28 95 169c0 146 -27 169 -95 169z" />
    <glyph glyph-name="onesmall" horiz-adv-x="561" 
d="M394 0h-124v362l-156 -71l-37 104l317 129v-524z" />
    <glyph glyph-name="twosmall" horiz-adv-x="561" 
d="M92 386l-30 115c51 12 137 23 202 23c167 0 223 -47 223 -160c0 -94 -45 -159 -247 -263h256v-101h-438v91c270 165 293 191 293 250c0 51 -25 70 -108 70c-44 0 -119 -11 -151 -25z" />
    <glyph glyph-name="foursmall" horiz-adv-x="561" 
d="M323 121h-295v47c60 94 168 241 250 341h164v-290h90v-98h-90v-121h-119v121zM323 219v196c-51 -64 -114 -149 -145 -196h145z" />
    <glyph glyph-name="fivesmall" horiz-adv-x="561" 
d="M92 509h387v-103h-263v-92c20 1 47 3 73 3c153 0 208 -43 208 -160c0 -132 -79 -171 -248 -171c-55 0 -141 6 -188 19l24 102c35 -11 112 -18 155 -18c96 0 132 15 132 65c0 55 -31 72 -124 72c-43 0 -117 -5 -156 -10v293z" />
    <glyph glyph-name="sixsmall" horiz-adv-x="561" 
d="M522 151c0 -129 -74 -165 -228 -165c-151 0 -234 44 -234 269c0 207 99 269 269 269c65 0 122 -9 179 -25l-28 -102c-41 12 -93 23 -148 23c-109 0 -148 -24 -151 -117c41 7 95 12 132 12c145 0 209 -37 209 -164zM395 153c0 60 -23 75 -104 75c-39 0 -80 -4 -110 -9
c1 -120 45 -138 109 -138c82 0 105 18 105 72z" />
    <glyph glyph-name="sevensmall" horiz-adv-x="561" 
d="M50 509h484v-24c-98 -144 -190 -326 -255 -485h-144c66 145 152 298 222 401h-307v108z" />
    <glyph glyph-name="eightsmall" horiz-adv-x="561" 
d="M280 83c88 0 110 18 110 69c0 53 -32 69 -110 69c-77 0 -109 -16 -109 -69c0 -51 22 -69 109 -69zM280 -14c-176 0 -236 33 -236 149c0 77 32 129 135 134c-98 8 -122 54 -122 124c0 96 45 131 223 131c179 0 223 -35 223 -131c0 -70 -23 -116 -121 -124
c103 -5 134 -57 134 -134c0 -116 -59 -149 -236 -149zM280 317c73 0 101 13 101 57c0 43 -22 56 -101 56c-78 0 -100 -13 -100 -56c0 -44 28 -57 100 -57z" />
    <glyph glyph-name="ninesmall" horiz-adv-x="561" 
d="M243 183c-137 0 -199 40 -199 167c0 128 74 174 231 174c173 0 242 -46 242 -207c0 -132 -95 -223 -209 -317h-165c105 80 194 160 210 193c-39 -5 -71 -10 -110 -10zM387 324c0 84 -30 105 -107 105c-87 0 -107 -24 -107 -79c0 -59 18 -70 102 -70c34 0 72 3 100 7
c7 12 12 24 12 37z" />
    <glyph glyph-name="threesmall" horiz-adv-x="561" 
d="M177 222v93h78c72 0 100 11 100 51c0 38 -21 52 -107 52c-64 0 -118 -9 -159 -22l-25 108c51 12 114 20 186 20c178 0 235 -35 235 -131c0 -70 -25 -116 -123 -124c103 -5 134 -57 134 -134c0 -116 -72 -149 -248 -149c-73 0 -135 7 -188 19l26 111
c39 -14 100 -24 159 -24c96 0 119 17 119 67c0 48 -32 63 -109 63h-78z" />
    <glyph glyph-name="atsmall" horiz-adv-x="728" 
d="M333 444c-140 0 -184 -26 -184 -184s47 -192 214 -192s216 44 216 216c0 61 -6 107 -18 142h98c11 -34 18 -91 18 -145c0 -231 -99 -298 -314 -298c-217 0 -312 57 -312 276c0 217 104 270 280 270c138 0 191 -29 191 -207c0 -165 -39 -192 -167 -192
c-118 0 -155 24 -155 126c0 103 40 126 142 126c29 0 62 -2 84 -5c-3 51 -25 67 -93 67zM364 309c-48 0 -63 -6 -63 -49c0 -41 13 -51 63 -51c46 0 62 13 62 66v30c-18 2 -46 4 -62 4z" />
    <glyph glyph-name="backslashsmall" horiz-adv-x="427" 
d="M-8 509h136l308 -509h-135z" />
    <glyph glyph-name="slashsmall" horiz-adv-x="427" 
d="M300 509h136l-309 -509h-135z" />
    <glyph glyph-name="barsmall" horiz-adv-x="371" 
d="M120 659h131v-813h-131v813z" />
    <glyph glyph-name="bracketrightsmall" horiz-adv-x="378" 
d="M18 657h270v-808h-270v107h141v593h-141v108z" />
    <glyph glyph-name="bracerightsmall" horiz-adv-x="356" 
d="M319 299v-99c-56 0 -103 -24 -103 -152c0 -136 -74 -193 -154 -213l-51 90c61 18 94 46 94 166c0 125 56 152 92 159c-36 6 -92 34 -92 160c0 119 -31 146 -94 165l51 89c80 -20 154 -77 154 -213c0 -128 47 -152 103 -152z" />
    <glyph glyph-name="Cdotaccentsmall" horiz-adv-x="470" 
d="M430 118l28 -106c-40 -16 -107 -26 -155 -26c-155 0 -252 62 -252 271c0 208 98 267 252 267c49 0 117 -10 155 -24l-28 -106c-32 12 -77 22 -118 22c-90 0 -133 -20 -133 -161c0 -135 43 -161 133 -161c43 0 86 11 118 24zM294 681c45 0 60 -7 60 -55
c0 -53 -15 -62 -60 -62s-59 9 -59 62c0 48 14 55 59 55z" />
    <glyph glyph-name="Cacutesmall" horiz-adv-x="470" 
d="M430 118l28 -106c-40 -16 -107 -26 -155 -26c-155 0 -252 62 -252 271c0 208 98 267 252 267c49 0 117 -10 155 -24l-28 -106c-32 12 -77 22 -118 22c-90 0 -133 -20 -133 -161c0 -135 43 -161 133 -161c43 0 86 11 118 24zM305 568h-109l121 129h133z" />
    <glyph glyph-name="Ccaronsmall" horiz-adv-x="470" 
d="M430 118l28 -106c-40 -16 -107 -26 -155 -26c-155 0 -252 62 -252 271c0 208 98 267 252 267c49 0 117 -10 155 -24l-28 -106c-32 12 -77 22 -118 22c-90 0 -133 -20 -133 -161c0 -135 43 -161 133 -161c43 0 86 11 118 24zM106 697h117l71 -76l69 76h113l-122 -129h-122
z" />
    <glyph glyph-name="centsmall" horiz-adv-x="423" 
d="M204 524h67v-76c27 -2 65 -8 87 -15l-23 -74c-19 8 -44 11 -64 12v-224c19 2 46 7 64 14l23 -73c-23 -10 -60 -16 -87 -19v-83h-67v85c-93 11 -153 61 -153 190c0 127 60 176 153 186v77zM149 259c0 -63 21 -98 55 -103v207c-34 -5 -55 -38 -55 -104z" />
    <glyph glyph-name="daggersmall" horiz-adv-x="446" 
d="M30 409v100h141v143h103v-143h142v-100h-142v-228h-103v228h-141z" />
    <glyph glyph-name="degreesmall" horiz-adv-x="345" 
d="M172 524c102 0 146 -33 146 -158c0 -127 -44 -164 -146 -164c-101 0 -146 37 -146 164c0 125 45 158 146 158zM172 270c45 0 54 20 54 95c0 76 -9 92 -54 92c-43 0 -55 -16 -55 -92c0 -75 12 -95 55 -95z" />
    <glyph glyph-name="dollarsmall" horiz-adv-x="520" 
d="M225 620h69v-102c48 -1 111 -10 153 -24l-26 -94c-27 9 -83 16 -127 18v-114c110 -15 167 -56 167 -151c0 -103 -69 -149 -167 -161v-110h-69v108c-51 1 -118 9 -162 23l27 97c33 -10 92 -18 135 -20v122c-106 11 -167 45 -167 144c0 104 68 149 167 160v104zM169 362
c0 -28 13 -41 56 -48v104c-35 -5 -56 -21 -56 -56zM351 149c0 28 -12 44 -57 53v-110c34 5 57 22 57 57z" />
    <glyph glyph-name="numbersignsmall" horiz-adv-x="597" 
d="M41 314l6 85h102l7 110h105l-7 -110h99l7 110h105l-7 -110h109l-6 -85h-109l-7 -108h111l-6 -85h-110l-9 -121h-105l9 121h-100l-8 -121h-105l8 121h-100l6 85h100l7 108h-102zM248 314l-7 -108h99l7 108h-99z" />
    <glyph glyph-name="parenrightsmall" horiz-adv-x="345" 
d="M277 250c0 -248 -95 -367 -215 -410l-57 93c79 30 142 96 142 317c0 219 -63 286 -142 316l57 93c120 -43 215 -162 215 -409z" />
    <glyph glyph-name="percentsmall" horiz-adv-x="763" 
d="M514 509h106l-375 -509h-104zM172 524c102 0 146 -33 146 -158c0 -127 -44 -164 -146 -164c-101 0 -146 37 -146 164c0 125 45 158 146 158zM172 270c45 0 54 20 54 95c0 76 -9 92 -54 92c-43 0 -55 -16 -55 -92c0 -75 12 -95 55 -95zM590 307c102 0 146 -32 146 -157
c0 -128 -44 -164 -146 -164c-101 0 -146 36 -146 164c0 125 45 157 146 157zM590 54c45 0 54 19 54 95s-9 91 -54 91c-43 0 -55 -15 -55 -91s12 -95 55 -95z" />
    <glyph glyph-name="sectionsmall" horiz-adv-x="474" 
d="M413 504l-24 -78c-29 9 -81 18 -128 18c-58 0 -99 -8 -99 -41c0 -26 17 -34 97 -40c111 -9 173 -38 173 -114c0 -26 -13 -53 -31 -73c16 -16 23 -38 23 -63c0 -93 -78 -127 -212 -127c-52 0 -112 8 -151 19l24 79c29 -11 81 -19 128 -19c39 0 99 9 99 42
c0 25 -17 34 -97 40c-111 9 -173 38 -173 114c0 27 11 54 29 74c-14 16 -21 37 -21 62c0 93 78 127 212 127c50 0 110 -8 151 -20zM158 298c-6 -8 -10 -17 -10 -28c0 -26 30 -37 91 -43c28 -3 55 -8 79 -14c5 7 9 19 9 29c0 24 -27 34 -95 42c-28 3 -52 7 -74 14z" />
    <glyph glyph-name="Sacutesmall" horiz-adv-x="491" 
d="M434 496l-27 -97c-40 13 -97 24 -148 24c-61 0 -92 -6 -92 -59c0 -35 22 -47 105 -55c123 -13 177 -51 177 -153c0 -132 -88 -170 -218 -170c-54 0 -134 10 -182 27l26 98c37 -13 100 -24 151 -24c68 0 100 9 100 62c0 36 -20 53 -109 61c-112 9 -172 40 -172 145
c0 132 89 169 218 169c53 0 120 -11 171 -28zM257 568h-109l121 129h133z" />
    <glyph glyph-name="Scedillasmall" horiz-adv-x="491" 
d="M434 496l-27 -97c-40 13 -97 24 -148 24c-61 0 -92 -6 -92 -59c0 -35 22 -47 105 -55c123 -13 177 -51 177 -153c0 -122 -75 -163 -188 -169v-29c78 0 110 -19 110 -78c0 -63 -37 -83 -137 -83c-47 0 -73 5 -98 16l22 54c16 -8 43 -12 71 -12c31 0 41 6 41 26
c0 25 -22 30 -94 26l30 80c-51 2 -116 12 -157 26l26 98c37 -13 100 -24 151 -24c68 0 100 9 100 62c0 36 -20 53 -109 61c-112 9 -172 40 -172 145c0 132 89 169 218 169c53 0 120 -11 171 -28z" />
    <glyph glyph-name="Scircumflexsmall" horiz-adv-x="491" 
d="M434 496l-27 -97c-40 13 -97 24 -148 24c-61 0 -92 -6 -92 -59c0 -35 22 -47 105 -55c123 -13 177 -51 177 -153c0 -132 -88 -170 -218 -170c-54 0 -134 10 -182 27l26 98c37 -13 100 -24 151 -24c68 0 100 9 100 62c0 36 -20 53 -109 61c-112 9 -172 40 -172 145
c0 132 89 169 218 169c53 0 120 -11 171 -28zM443 568h-117l-71 76l-69 -76h-113l122 129h122z" />
    <glyph glyph-name="Scommaaccentsmall" horiz-adv-x="491" 
d="M434 496l-27 -97c-40 13 -97 24 -148 24c-61 0 -92 -6 -92 -59c0 -35 22 -47 105 -55c123 -13 177 -51 177 -153c0 -132 -88 -170 -218 -170c-54 0 -134 10 -182 27l26 98c37 -13 100 -24 151 -24c68 0 100 9 100 62c0 36 -20 53 -109 61c-112 9 -172 40 -172 145
c0 132 89 169 218 169c53 0 120 -11 171 -28zM330 -51l-108 -167h-97l71 167h134z" />
    <glyph glyph-name="Wcircumflexsmall" horiz-adv-x="830" 
d="M415 341c-24 -106 -66 -249 -98 -341h-153c-49 177 -105 353 -164 509h131c42 -112 84 -251 116 -382c35 102 89 291 110 382h121c33 -99 79 -273 103 -382c46 127 88 255 118 382h126c-46 -165 -108 -348 -174 -509h-154c-20 103 -58 261 -82 341zM602 568h-117l-71 76
l-69 -76h-113l122 129h122z" />
    <glyph glyph-name="Zacutesmall" horiz-adv-x="497" 
d="M35 509h439v-25c-72 -116 -195 -291 -262 -376h255v-108h-449v25c97 123 216 294 266 376h-249v108zM285 568h-109l121 129h133z" />
    <glyph glyph-name="Zdotaccentsmall" horiz-adv-x="497" 
d="M35 509h439v-25c-72 -116 -195 -291 -262 -376h255v-108h-449v25c97 123 216 294 266 376h-249v108zM253 681c45 0 60 -7 60 -55c0 -53 -15 -62 -60 -62s-59 9 -59 62c0 48 14 55 59 55z" />
    <glyph glyph-name="zeroop" horiz-adv-x="563" 
d="M283 -14c-147 0 -232 62 -232 271c0 208 86 267 232 267c148 0 229 -59 229 -267c0 -209 -80 -271 -229 -271zM283 424c-77 0 -104 -23 -104 -169c0 -141 27 -169 104 -169c80 0 101 28 101 169c0 146 -22 169 -101 169z" />
    <glyph glyph-name="oneop" horiz-adv-x="380" 
d="M311 0h-125v362l-156 -71l-36 104l317 129v-524z" />
    <glyph glyph-name="twoop" horiz-adv-x="565" 
d="M91 386l-29 115c51 12 144 23 209 23c177 0 230 -47 230 -160c0 -94 -60 -174 -262 -263h273v-101h-455v91c270 150 309 190 309 249c0 51 -23 71 -116 71c-44 0 -127 -11 -159 -25z" />
    <glyph glyph-name="threeop" horiz-adv-x="582" 
d="M164 121v112h96c85 0 117 20 117 88c0 63 -27 85 -150 85c-54 0 -133 -9 -175 -22l-26 114c60 13 146 26 226 26c200 0 264 -52 264 -178c0 -92 -25 -155 -149 -165c132 -6 163 -75 163 -180c0 -151 -82 -202 -280 -202c-73 0 -166 11 -229 25l25 114
c46 -13 124 -20 178 -20c134 0 163 26 163 101c0 79 -34 102 -124 102h-99z" />
    <glyph glyph-name="fourop" horiz-adv-x="590" 
d="M358 0h-346v40c73 128 201 341 297 469h175v-406h93v-103h-93v-192h-126v192zM358 103v296c-67 -86 -148 -228 -186 -296h186z" />
    <glyph glyph-name="fiveop" horiz-adv-x="598" 
d="M83 509h432v-114h-307v-153c26 2 55 4 83 4c196 0 256 -62 256 -217c0 -177 -75 -232 -274 -232c-67 0 -164 11 -222 25l26 114c43 -13 117 -20 171 -20c129 0 156 25 156 106c0 86 -22 112 -150 112c-55 0 -124 -5 -171 -14v389z" />
    <glyph glyph-name="sixop" horiz-adv-x="634" 
d="M560 687l-29 -116c-37 14 -101 23 -164 23c-107 0 -170 -26 -174 -173c40 7 93 11 132 11c196 0 258 -61 258 -217c0 -177 -71 -229 -262 -229c-198 0 -269 83 -269 368s89 360 315 360c62 0 139 -11 193 -27zM321 105c102 0 124 27 124 103c0 79 -21 112 -125 112
c-51 0 -96 -5 -129 -10c3 -174 43 -205 130 -205z" />
    <glyph glyph-name="sevenop" horiz-adv-x="524" 
d="M530 509v-39c-92 -147 -243 -467 -308 -662h-149c73 200 196 466 282 587h-360v114h535z" />
    <glyph glyph-name="eightop" horiz-adv-x="627" 
d="M314 94c96 0 124 27 124 107c0 81 -32 113 -124 113c-93 0 -125 -32 -125 -113c0 -80 28 -107 125 -107zM314 417c79 0 113 27 113 98c0 69 -30 89 -113 89c-84 0 -114 -20 -114 -89c0 -71 34 -98 114 -98zM314 -14h-1c-190 0 -262 53 -262 202c0 105 30 175 163 181
c-125 11 -148 75 -148 167c0 122 53 178 247 178s248 -56 248 -178c0 -92 -23 -156 -148 -167c132 -6 162 -76 162 -181c0 -149 -71 -202 -261 -202z" />
    <glyph glyph-name="nineop" horiz-adv-x="630" 
d="M169 -192c93 88 181 184 227 275c-24 -3 -69 -5 -87 -5c-196 0 -258 54 -258 210c0 177 70 236 262 236c210 0 266 -53 266 -241c0 -199 -115 -348 -246 -475h-164zM323 190c36 0 75 2 108 7c6 23 9 47 9 72c0 121 -31 137 -127 137c-103 0 -124 -34 -124 -112
c0 -86 22 -104 134 -104z" />
    <glyph glyph-name="two.alt" horiz-adv-x="609" 
d="M93 568l-29 114c59 18 146 32 226 32c173 0 258 -43 258 -203c0 -99 -41 -165 -161 -221c-106 -49 -160 -87 -174 -176h332v-114h-503c17 221 117 290 243 360c73 39 123 69 123 139c0 79 -35 96 -129 96c-62 0 -146 -12 -186 -27z" />
    <glyph glyph-name="Ccircumflexsmall" horiz-adv-x="470" 
d="M430 118l28 -106c-40 -16 -107 -26 -155 -26c-155 0 -252 62 -252 271c0 208 98 267 252 267c49 0 117 -10 155 -24l-28 -106c-32 12 -77 22 -118 22c-90 0 -133 -20 -133 -161c0 -135 43 -161 133 -161c43 0 86 11 118 24zM477 568h-117l-71 76l-69 -76h-113l122 129
h122z" />
    <glyph glyph-name="ccaront" horiz-adv-x="855" 
d="M534 171v230c-93 0 -191 16 -228 16c-89 0 -127 -21 -127 -162c0 -135 38 -162 127 -162c39 0 81 8 112 21l28 -102c-40 -16 -98 -26 -148 -26c-150 0 -247 62 -247 271c0 208 99 267 247 267c52 0 145 -15 236 -15v86l124 51v-137h169v-108h-169v-219
c0 -63 19 -89 79 -89c33 0 60 6 85 14l22 -98c-35 -13 -89 -23 -138 -23c-114 0 -172 34 -172 185zM111 697h117l71 -76l69 76h113l-122 -129h-122z" />
    <glyph glyph-name="scaront" horiz-adv-x="894" 
d="M573 171v230c-132 1 -263 22 -314 22c-61 0 -92 -6 -92 -59c0 -35 22 -47 105 -55c123 -13 177 -51 177 -153c0 -132 -88 -170 -218 -170c-54 0 -134 10 -182 27l26 98c37 -13 100 -24 151 -24c68 0 100 9 100 62c0 36 -20 53 -109 61c-112 9 -172 40 -172 145
c0 132 89 169 218 169c53 0 198 -15 310 -15v86l124 51v-137h169v-108h-169v-219c0 -63 19 -89 79 -89c33 0 60 6 85 14l22 -98c-35 -13 -89 -23 -138 -23c-114 0 -172 34 -172 185zM74 697h117l71 -76l69 76h113l-122 -129h-122z" />
    <glyph glyph-name="ampersandsmall.2" horiz-adv-x="671" 
d="M659 223h-123v-206c-104 -24 -166 -31 -239 -31c-176 0 -248 33 -248 149c0 77 31 130 134 135c-98 8 -124 48 -124 118c0 97 58 136 236 136c72 0 135 -8 186 -20l-25 -108c-41 13 -95 22 -159 22c-86 0 -107 -13 -107 -51c0 -40 28 -51 100 -51h369v-93zM181 160
c0 -50 23 -68 119 -68c42 0 85 4 122 13v118h-135c-76 0 -106 -17 -106 -63z" />
    <glyph glyph-name="man" horiz-adv-x="524" 
d="M345 419v-611h-76v372h-13v-372h-76v611c-30 -1 -36 -11 -36 -48v-191h-94v194c0 112 40 135 212 135s212 -24 212 -135v-194h-94v191c0 37 -5 47 -35 48zM262 721c78 0 103 -12 103 -89c0 -86 -25 -101 -103 -101c-81 0 -106 15 -106 101c0 77 25 89 106 89z" />
    <glyph glyph-name="woman" horiz-adv-x="524" 
d="M324 419v-239c47 -109 115 -260 180 -372h-484c51 111 135 292 180 372v239c-50 -1 -56 -11 -56 -48v-191h-74v194c0 112 40 135 192 135s192 -24 192 -135v-194h-74v191c0 37 -6 47 -56 48zM262 721c78 0 103 -12 103 -89c0 -86 -25 -101 -103 -101
c-81 0 -106 15 -106 101c0 77 25 89 106 89z" />
    <glyph glyph-name="escaperight" horiz-adv-x="1267" 
d="M446 509c15 -68 98 -176 210 -176l-14 -80c-97 0 -185 52 -222 136l-49 -229c133 -3 216 -81 166 -292h-84c39 160 12 221 -152 221c-49 -171 -130 -237 -279 -237l18 77c82 0 146 37 178 190l65 308c-45 0 -103 -42 -127 -174h-82c37 151 89 256 225 256h147zM1245 293
l-273 -256l-54 57l163 159h-388l13 80h375l-163 159l54 57zM530 531h-74c-81 0 -106 15 -106 101c0 77 25 89 106 89c78 0 112 -14 96 -89z" />
    <glyph glyph-name="noentry" horiz-adv-x="853" 
d="M838 0h-124l-215 215v-407h-66v372h-13v-372h-66v407l-215 -215h-124l199 202v172c0 47 7 78 28 99l-223 224h133l187 -191c25 2 53 3 87 3c33 0 62 -1 86 -4l189 192h133l-224 -225c21 -20 28 -51 28 -98v-171zM426 721c78 0 103 -12 103 -89c0 -86 -25 -101 -103 -101
c-81 0 -106 15 -106 101c0 77 25 89 106 89zM308 371v-73l46 47v16l-42 41c-4 -7 -4 -17 -4 -31zM544 371c0 14 -1 24 -4 31l-41 -41v-16l45 -46v72z" />
    <glyph glyph-name="escapeleft" horiz-adv-x="1267" 
d="M821 509c-15 -68 -98 -176 -210 -176l14 -80c97 0 185 52 222 136l49 -229c-133 -3 -216 -81 -166 -292h84c-39 160 -12 221 152 221c49 -171 130 -237 279 -237l-18 77c-82 0 -146 37 -178 190l-65 308c45 0 103 -42 127 -174h82c-37 151 -89 256 -225 256h-147zM22 293
l273 -256l54 57l-163 159h388l-13 80h-375l163 159l-54 57zM737 531h74c81 0 106 15 106 101c0 77 -25 89 -106 89c-78 0 -112 -14 -96 -89z" />
    <glyph glyph-name="manneg" horiz-adv-x="684" 
d="M426 -192v611c30 -1 35 -11 35 -48v-191h94v194c0 111 -40 135 -212 135s-212 -23 -212 -135v-194h94v191c0 37 6 47 36 48v-611h76v372h13v-372h76zM343 721c-81 0 -106 -12 -106 -89c0 -86 25 -101 106 -101c78 0 103 15 103 101c0 77 -25 89 -103 89zM551 -232h-418
c-78 0 -103 15 -103 101v803c0 77 25 89 103 89h418c78 0 103 -12 103 -89v-803c0 -86 -25 -101 -103 -101z" />
    <glyph glyph-name="womanneg" horiz-adv-x="684" 
d="M405 180v239c50 -1 56 -11 56 -48v-191h74v194c0 111 -40 135 -192 135s-192 -23 -192 -135v-194h74v191c0 37 6 47 56 48v-239c-45 -80 -129 -261 -180 -372h484c-65 112 -133 263 -180 372zM343 721c-81 0 -106 -12 -106 -89c0 -86 25 -101 106 -101
c78 0 103 15 103 101c0 77 -25 89 -103 89zM551 -232h-418c-78 0 -103 15 -103 101v803c0 77 25 89 103 89h418c78 0 103 -12 103 -89v-803c0 -86 -25 -101 -103 -101z" />
    <glyph glyph-name="escaperightneg" horiz-adv-x="1373" 
d="M1240 -232h-1107c-78 0 -103 15 -103 101v803c0 77 25 89 103 89h1107c78 0 103 -12 103 -89v-803c0 -86 -25 -101 -103 -101zM505 509h-147c-136 0 -188 -105 -225 -256h82c24 132 82 174 127 174l-65 -308c-32 -153 -96 -190 -178 -190l-18 -77c149 0 230 66 279 237
c164 0 191 -61 152 -221h84c50 211 -33 289 -166 292l49 229c37 -84 125 -136 222 -136l14 80c-112 0 -195 108 -210 176zM1031 37l273 256l-273 256l-54 -57l163 -159h-375l-13 -80h388l-163 -159zM515 531h74l22 101c16 75 -18 89 -96 89c-81 0 -106 -12 -106 -89
c0 -86 25 -101 106 -101z" />
    <glyph glyph-name="escapeleftneg" horiz-adv-x="1373" 
d="M133 -232h1107c78 0 103 15 103 101v803c0 77 -25 89 -103 89h-1107c-78 0 -103 -12 -103 -89v-803c0 -86 25 -101 103 -101zM868 509h147c136 0 188 -105 225 -256h-82c-24 132 -82 174 -127 174l65 -308c32 -153 96 -190 178 -190l18 -77c-149 0 -230 66 -279 237
c-164 0 -191 -61 -152 -221h-84c-50 211 33 289 166 292l-49 229c-37 -84 -125 -136 -222 -136l-14 80c112 0 195 108 210 176zM342 37l-273 256l273 256l54 -57l-163 -159h375l13 -80h-388l163 -159zM858 531h-74l-22 101c-16 75 18 89 96 89c81 0 106 -12 106 -89
c0 -86 -25 -101 -106 -101z" />
    <glyph glyph-name="noentryneg" horiz-adv-x="960" 
d="M827 -232h-694c-78 0 -103 15 -103 101v803c0 77 25 89 103 89h694c78 0 103 -12 103 -89v-803c0 -86 -25 -101 -103 -101zM767 0h124l-200 203v171c0 47 -7 78 -28 98l224 225h-133l-189 -192c-24 3 -53 4 -86 4c-34 0 -62 -1 -87 -3l-187 191h-133l223 -224
c-21 -21 -28 -52 -28 -99v-172l-199 -202h124l215 215v-407h66v372h13v-372h66v407zM479 721c-81 0 -106 -12 -106 -89c0 -86 25 -101 106 -101c78 0 103 15 103 101c0 77 -25 89 -103 89zM361 298v73c0 14 0 24 4 31l42 -41v-16zM597 371v-72l-45 46v16l41 41
c3 -7 4 -17 4 -31z" />
    <glyph glyph-name="trash" horiz-adv-x="1068" 
d="M171 334h46l20 -127h294l21 127h46l-85 -526h-257zM879 180l-76 329h-504l14 -80h363l58 -249l-60 -372h66l60 372h13v-372h66v372zM610 531h74c81 0 106 15 106 101c0 77 -25 89 -106 89c-78 0 -112 -14 -96 -89zM343 412c31 -34 96 -46 160 -46l-83 -122
c-63 5 -123 73 -123 102c0 27 45 64 46 66zM245 162l19 -122h98v122h-117zM407 162v-122h97l20 122h-117zM272 -5l23 -142h67v142h-90zM407 -5v-142h67l23 142h-90z" />
    <glyph glyph-name="material" horiz-adv-x="1068" 
d="M904 258l130 -226c12 -21 18 -47 18 -73c0 -85 -67 -151 -151 -151h-239v-122l-183 162l183 161v-122h239c39 0 72 32 72 72c0 12 -2 23 -8 33l-130 227zM425 -192h-260c-116 0 -184 130 -128 227l119 207l-105 61l232 78l48 -239l-106 61l-120 -207
c-25 -44 4 -108 59 -108h261v-80zM277 452l130 225c59 102 205 92 260 -3l120 -206l105 60l-48 -240l-231 78l106 62l-119 207c-24 42 -95 51 -123 3l-131 -226z" />
    <glyph glyph-name="recycling" horiz-adv-x="1068" 
d="M30 256c0 278 226 504 504 504s504 -226 504 -504s-226 -504 -504 -504s-504 226 -504 504zM534 739c127 -82 213 -163 302 -282c-92 -118 -193 -213 -302 -282v161c-109 -69 -210 -164 -302 -282c89 -119 175 -200 302 -282v159c711 32 522 808 0 808zM534 739
c-266 0 -485 -216 -485 -483c0 -130 52 -249 136 -335c-210 226 -164 636 349 659v159zM533 -228c-22 0 -42 2 -63 4c21 -2 42 -4 63 -4z" />
    <glyph glyph-name="flammable" horiz-adv-x="1068" 
d="M881 -192h-694c-78 0 -103 13 -103 92v733c0 70 25 81 103 81h694c78 0 103 -11 103 -81v-733c0 -79 -25 -92 -103 -92zM195 -161h678c71 0 79 5 79 77v700c0 64 -8 68 -79 68h-678c-71 0 -80 -4 -80 -68v-700c0 -72 9 -77 80 -77zM225 -79v39h158
c-99 44 -48 271 -170 253c98 44 146 -18 189 -83c-35 96 -26 328 -108 341c118 18 151 -94 178 -195c-9 107 56 321 -28 354c191 -15 117 -246 158 -354c42 93 95 199 53 240c157 -79 17 -282 18 -385c0 -4 -1 -8 -2 -12c58 48 125 88 96 133c120 -82 -22 -170 -40 -263
c-1 -12 -8 -22 -18 -29h143v-39h-627zM472 41c22 -18 2 -64 -34 -81h185c-15 9 -25 24 -26 44c-2 33 17 62 43 88c-28 -10 -66 -1 -79 43c-5 17 1 42 12 72c-25 -14 -60 -13 -86 22c-1 1 -2 3 -3 4c9 -31 19 -58 33 -77c25 -34 -30 -106 -90 -64c14 -20 29 -39 45 -51z" />
    <glyph glyph-name="poison" horiz-adv-x="1068" 
d="M881 -192h-694c-78 0 -103 13 -103 92v733c0 70 25 81 103 81h694c78 0 103 -11 103 -81v-733c0 -79 -25 -92 -103 -92zM195 -161h678c71 0 79 5 79 77v700c0 64 -8 68 -79 68h-678c-71 0 -80 -4 -80 -68v-700c0 -72 9 -77 80 -77zM280 -104l-118 117l253 254l-253 255
l115 113l253 -252l255 257l119 -118l-256 -256l254 -253l-116 -117l-254 255z" />
    <glyph glyph-name="Pct" horiz-adv-x="1068" 
d="M532 266c0 -139 140 -208 311 -208c25 0 70 2 93 5v-92c-90 -62 -238 -92 -378 -92c-272 0 -497 174 -497 386c0 214 225 388 497 388c140 0 289 -29 378 -92v-91c-23 3 -68 5 -93 5c-171 0 -311 -70 -311 -209zM242 1v361c0 85 17 108 96 108c57 0 83 -27 83 -106
c0 -77 -26 -106 -101 -106c-30 0 -48 6 -63 18v-66c18 -10 34 -17 70 -17c110 0 176 52 176 172c0 117 -64 171 -172 171c-91 0 -169 -40 -169 -159v-315zM936 347v-240h-100v240h-96v73h292v-73h-96z" />
    <glyph glyph-name="warning" horiz-adv-x="1068" 
d="M53 4l398 689c23 38 53 57 85 57c31 0 63 -19 85 -57l394 -689c13 -21 18 -42 18 -61c0 -49 -38 -85 -103 -85h-791c-65 0 -104 36 -104 85c0 19 6 40 18 61zM589 583h-112l25 -438h63zM534 66c-43 0 -59 -7 -59 -54c0 -50 16 -58 59 -58c45 0 59 8 59 58
c0 47 -14 54 -59 54z" />
    <glyph glyph-name="deadly" horiz-adv-x="1068" 
d="M534 15c7 9 17 14 29 4c8 9 16 9 24 5c8 8 15 8 21 6c6 6 11 8 15 6c8 9 12 8 16 13c11 19 -10 59 -4 62c50 10 89 -24 112 16c4 7 16 43 0 33c2 32 4 75 -8 97c4 7 24 43 24 77c0 113 -99 197 -229 197c-131 0 -229 -84 -229 -197c0 -34 19 -70 23 -77
c-11 -22 -9 -65 -7 -97c-16 10 -4 -26 0 -33c22 -40 62 -6 111 -16c7 -3 -14 -43 -4 -62c4 -5 8 -4 16 -13c4 2 10 0 15 -6c7 2 13 2 21 -6c8 4 17 4 24 -5c13 10 23 5 30 -4zM427 281c57 0 73 -7 73 -46c0 -31 -32 -72 -77 -79c-45 -8 -71 -9 -71 53c0 47 30 72 75 72z
M534 90c-11 -13 -44 -28 -37 20s19 95 37 95c17 0 29 -47 37 -95c7 -48 -27 -34 -37 -20zM534 -98c12 0 11 -10 31 -8s99 61 109 87c11 27 3 72 13 123c-11 2 -16 2 -24 3c2 -35 -9 -71 -17 -91c-3 -4 -8 -6 -7 0c-4 -4 -10 -13 -17 -12c-3 -5 -8 -12 -12 -9
c-5 -3 -11 -11 -15 -8c-7 -4 -12 -10 -18 -6c-7 -4 -14 -9 -21 -4c-8 -6 -15 -7 -22 1c-7 -7 -15 -7 -23 -1c-7 -5 -13 0 -20 4c-7 -4 -12 2 -18 6c-5 -3 -10 5 -15 8c-4 -3 -9 4 -12 9c-7 -1 -13 8 -18 12c2 -6 -4 -4 -6 0c-8 20 -19 56 -17 91c-8 -1 -14 -1 -25 -3
c11 -51 3 -96 14 -123c10 -26 89 -85 109 -87s19 8 31 8zM640 281c46 0 75 -25 75 -72c0 -62 -25 -60 -70 -53c-46 8 -78 48 -78 79c0 39 16 46 73 46zM53 4l398 689c23 38 53 57 85 57c31 0 63 -19 85 -57l394 -689c13 -21 18 -42 18 -61c0 -49 -38 -85 -103 -85h-791
c-65 0 -104 36 -104 85c0 19 6 40 18 61z" />
    </font>
</defs>
</svg>
